<?xml version="1.0" encoding="UTF-8" standalone="no"?>
<!DOCTYPE svg PUBLIC "-//W3C//DTD SVG 1.1//EN" "http://www.w3.org/Graphics/SVG/1.1/DTD/svg11.dtd">
<svg width="100%" height="100%" viewBox="0 0 752 950" version="1.1" xmlns="http://www.w3.org/2000/svg" xmlns:xlink="http://www.w3.org/1999/xlink" xml:space="preserve" xmlns:serif="http://www.serif.com/" style="fill-rule:evenodd;clip-rule:evenodd;stroke-linejoin:round;stroke-miterlimit:2;">
    <path d="M118.558,451.406C122.411,373.125 154.796,298.07 240.028,228.992C281.434,82.102 343.866,28.928 411.805,0.302C417.71,-2.186 423.159,11.27 426.664,19.848C453.034,84.376 482.17,143.637 503.423,214.366C609.942,276.238 666.625,383.159 642.426,538.583C645.376,543.313 645.557,546.282 645.055,551.766C644.708,555.562 642.509,565.181 637.587,566.282L635.796,586.476C638.258,587.492 640.76,588.915 643.302,590.744C680.656,590.835 713.15,573.84 740.892,540.133C743.416,537.066 747.718,537.6 748.214,541.443C766.16,680.398 711.815,723.301 607.821,714.226C560.759,826.889 474.136,895.79 372.301,947.863C363.396,952.417 360.104,948.995 360.302,942.654C362.871,860.259 424.5,787.379 443.123,667.596C580.044,718.655 706.152,722.285 742.637,612.684C640.392,803.461 263.677,588.445 103.213,445.343C86.56,430.491 68.884,417.151 54.953,402.503C52.349,399.765 48.376,404.253 51.414,407.96C113.817,484.115 258.407,588.518 400.229,650.239C282.911,687.6 202.049,749.647 170.301,844.95C163.858,864.291 156.346,876.558 148.725,890.666C145.458,896.712 134.918,893.439 135.06,887.096C137.168,792.697 101.791,716.678 93.236,639.568C-75.211,646.045 33.181,538.848 47.436,401.933C47.891,397.562 53.415,393.988 56.291,397.021C77.749,419.656 97.672,438.653 113.819,448.699C167.294,498.573 237.238,543.551 318.037,584.775C423.107,638.381 522.908,651.281 614.404,612.481C519.972,633.809 344.228,598.991 176.322,469.878C156.69,471.583 132.625,460.386 118.558,451.406ZM409.507,4.534C266.619,67.472 239.473,224.361 209.491,386.26C202.667,423.111 199.272,454.886 183.875,467.93C201.242,462.061 208.635,456.814 215.305,414.893C242.845,241.792 272.645,67.737 411.015,11.129C418.376,8.118 413.032,2.981 409.507,4.534ZM96.417,585.562C98.185,659.015 120.572,729.489 131.114,777.928C138.044,809.772 140.469,849.48 140.974,883.972C147.168,842.062 144.144,796.558 132.695,747.883C120.016,693.978 107.631,645.973 102.557,591.98L96.417,585.562ZM263.381,422.848C254.371,422.848 247.264,429.306 247.264,435.574C247.264,444.186 249.583,452.072 255.418,452.072C264.878,452.072 273.554,446.558 273.554,437.098C273.554,427.638 270.227,422.848 263.381,422.848ZM271.889,406.133L371.914,464.094C371.914,464.094 344.062,229.419 492.028,211.044C366.782,149.101 279.789,313.215 271.889,406.133ZM345.985,473.734C337.401,473.734 329.907,481.876 329.907,488.937C329.907,500.017 335.576,506.73 344.118,506.73C352.661,506.73 361.416,500.074 361.416,490.27C361.416,480.466 354.569,473.734 345.985,473.734ZM371.557,934.273C385.241,866.797 445.423,773.835 461.37,683.351L451.324,678.793C430.948,791.216 370.871,867.563 371.557,934.273ZM509.929,752.58C499.289,752.58 491.449,761.501 491.449,771.135C491.776,780.764 495.896,786.185 506.88,786.185C517.865,786.185 524.064,779.333 524.064,770.945C524.064,760.544 519.091,752.58 509.929,752.58ZM451.089,833.56C441.741,833.56 432.8,843.788 432.8,852.276C432.8,861.888 437.885,867.516 445.846,867.516C453.806,867.516 463.708,857.692 463.708,848.953C463.708,840.214 457.639,833.56 451.089,833.56ZM197.965,387.103C206.568,340.011 214.282,295.594 228.545,247.921C211.405,284.852 185.033,361.728 197.965,387.103ZM545.725,552.865C537.96,552.865 532.558,562.653 532.558,571.824C532.558,580.995 537.013,588.436 544.598,588.436C550.755,588.436 557.705,579.442 557.705,569.843C557.705,560.244 551.407,552.865 545.725,552.865ZM456.163,525.011C446.767,525.011 440.236,532.703 440.236,541.052C440.236,551.601 445.298,558.388 452.81,558.388C461.886,558.388 469.917,550.746 469.917,543.185C469.917,530.909 465.558,525.011 456.163,525.011ZM611.272,555.785C606.008,555.785 605.359,565.398 605.359,573.921C605.359,581.375 608.848,589.344 613.071,589.344C618.238,589.344 622.581,579.936 622.581,571.909C622.581,563.124 615.634,555.785 611.272,555.785Z" style="fill:#2d3234;"/>
</svg>
