<?xml version="1.0" encoding="UTF-8" standalone="no"?>
<!DOCTYPE svg PUBLIC "-//W3C//DTD SVG 1.1//EN" "http://www.w3.org/Graphics/SVG/1.1/DTD/svg11.dtd">
<svg width="100%" height="100%" viewBox="0 0 769 929" version="1.1" xmlns="http://www.w3.org/2000/svg" xmlns:xlink="http://www.w3.org/1999/xlink" xml:space="preserve" xmlns:serif="http://www.serif.com/" style="fill-rule:evenodd;clip-rule:evenodd;stroke-linejoin:round;stroke-miterlimit:2;">
    <path d="M571.773,429.238C600.372,430.436 634.364,440.916 671.465,454.341C639.449,439.218 606.524,427.902 572.058,423.026C572.377,413.483 572.191,403.055 571.358,392.039C608.922,384.509 646.922,380.754 685.178,379.219C646.654,378.313 608.475,380.077 570.87,386.298C569.694,373.851 567.69,360.744 564.665,347.386C602.579,332.754 640.493,320.71 678.407,310.699C638.508,318.209 600.098,328.352 563.178,341.13C560.162,329.035 556.292,316.787 551.427,304.687C587.031,283.109 623.392,264.56 660.091,247.367C621.446,262.024 583.863,278.238 548.506,297.718C544.123,287.68 539.029,277.785 533.14,268.205C564.407,240.347 597.489,215.029 632.153,191.927C595.816,211.934 561.342,235.047 529.063,261.819C522.553,251.995 515.16,242.557 506.791,233.7C533.439,201.205 562.768,170.544 594.702,141.666C561.287,168.055 530.304,197.029 501.373,228.183C498.657,225.523 495.847,222.923 492.938,220.388C488.47,216.495 483.968,212.796 479.434,209.287C501.179,170.572 524.553,133.349 549.77,97.815C522.29,132.5 496.902,168.15 473.132,204.548C464.11,197.956 454.971,192.102 445.744,186.956C462.863,145.807 481.649,105.812 502.556,67.285C478.135,104.583 457.349,143.438 439.105,183.383C426.492,176.839 413.726,171.593 400.878,167.57C412.61,125.009 425.736,82.702 439.943,40.591C424.024,81.801 409.007,123.511 395.126,165.852C383.82,162.637 372.457,160.356 361.086,158.96C365.615,115.19 369.347,71.42 372.766,27.651C367.319,71.295 361.549,114.874 354.988,158.295C341.544,157.016 328.099,156.959 314.731,158.04C312.7,114.46 310.216,70.881 307.3,27.301C307.548,71.057 308.126,114.814 309.033,158.57C295.465,159.997 281.989,162.587 268.686,166.253C260.672,123.999 250.201,81.744 238.957,39.489C248.816,82.185 257.717,124.919 263.35,167.784C251.128,171.429 239.063,175.978 227.219,181.362C213.741,140.001 196.919,100.577 178.364,62.156C195.779,102.904 210.385,143.653 220.737,184.402C209.036,190.06 197.564,196.532 186.386,203.749C165.732,166.409 141.904,130.774 114.062,96.645C138.968,132.126 162.293,168.452 181.345,207.068C169.759,214.843 158.504,223.421 147.651,232.724C117.682,196.476 84.34,162.437 49.178,129.592C82.317,163.727 113.811,198.495 142.361,234.396L122.737,233.396C91.887,201.074 48.833,171.145 2.171,141.923C117.885,-14.171 379.941,-52.888 554.847,83.305C671.702,174.296 780.789,384.756 672.137,545.956C661.64,561.53 644.765,577.915 621.71,574.572C611.789,520.135 585.178,479.264 556.645,454.533L569.956,447.235C570.768,441.793 571.391,435.758 571.773,429.238Z" style="fill:#800020;"/>
    <path d="M570.156,445.856C569.773,449.96 568.926,454.353 568.387,458.469C560.29,455.369 552.672,453.134 545.97,452.558C551.206,486.957 550.729,525.437 544.344,567.528C546.638,570.655 547.271,571.889 548.032,574.376C547.835,574.743 547.652,574.729 546.386,574.831C535.5,575.708 524.79,575.795 514.361,574.617C515.508,525.516 513.81,474.554 465.883,459.057C433.351,448.538 398.93,470.566 381.006,499.28C360.456,532.201 343.946,531.32 293.453,522.443C208.812,507.564 127.309,489.128 49.358,466.667C48.046,466.585 61.051,419.087 70.049,397.955C53.521,392.038 33.217,381.162 32.907,377.832C32.393,372.322 31.601,365.919 33.656,361.83C38.969,351.259 65.727,351.468 113.186,362.081C135.433,317.908 185.123,284.922 276.332,268.86C305.205,272.638 345.983,273.574 375.062,269.994C347.073,268.328 310.285,266.897 289.028,261.153C289.689,259.807 291.261,259.07 296.03,259.07C304.434,250.225 304.532,241.227 298.151,231.889C251.265,241.458 206.37,267.723 173.533,295.561C172.436,296.491 155.984,297.644 153.804,290.13C149.114,273.962 139.059,260.147 125.618,247.583C123.391,246.991 121.364,245.571 119.865,241.964C118.044,239.576 118.566,236.59 123.215,232.553L147.52,233.997C146.924,234.642 144.261,237.329 143.674,237.979L123.237,238.436C122.097,241.031 123.183,243.501 125.486,245.901L143.193,245.305C157.554,260.218 167.591,275.633 170.586,291.865C171.03,294.273 174.734,291.576 173.547,288.134C168.893,274.632 160.117,261.802 153.639,248.975C267.606,160.368 405.229,132.641 504.199,254.044C549.084,309.103 566.046,368.27 561.302,439.958C560.696,449.109 567.194,451.537 570.156,445.856ZM371.948,232.75C366.195,248.456 369.311,260.974 380.2,265.784C388.419,265.25 387.631,267.839 384.938,267.839L384.858,269.827C388.733,269.646 389.883,270.731 387.703,273.808C419.814,282.736 447.325,296.372 470.077,314.325C442.672,266.965 408.326,242.232 371.948,232.75ZM134.622,358.225C145.437,360.047 156.252,362.669 167.068,365.905C192.714,330.628 230.371,302.731 279.424,281.834C214.843,292.476 167.266,318.568 134.622,358.225ZM79.009,373.959C172.29,395.292 263.672,426.062 353.133,466.466C371.396,482.431 394.243,467.981 383.359,448.696C373.727,431.631 350.421,429.973 343.899,441.118C275.934,407.889 147.88,368.253 122.292,365.662C94.931,362.891 38.578,349.661 37.027,372.306C43.811,369.604 63.321,370.371 79.009,373.959ZM334.513,229.811C330.901,239.153 328.669,249.761 328.483,262.243L366.017,263.563C355.439,256.211 350.538,245.369 351.567,230.881L334.513,229.811ZM143.483,408.313C132.31,404.324 120.931,400.644 109.344,397.276C98.546,418.753 90.664,442.879 85.508,469.481L127.429,479.781C129.264,453.798 134.647,429.994 143.483,408.313ZM313.839,470.11C302.001,470.11 290.505,475.632 290.505,488.145C290.505,502.988 298.805,512.978 309.665,512.978C322.162,512.978 331.768,501.829 331.768,491.249C331.768,480.67 321.82,470.11 313.839,470.11ZM313.839,475.11C315.978,475.11 318.236,476.438 320.286,478.25C323.863,481.413 326.768,486.301 326.768,491.249C326.768,499.415 319.311,507.978 309.665,507.978C301.228,507.978 295.505,499.677 295.505,488.145C295.505,478.6 304.809,475.11 313.839,475.11ZM607.354,758.545C549.365,758.406 491.497,749.294 433.781,728.978C433.937,728.321 434.091,727.663 434.243,727.004C435.518,721.467 432.865,716.767 430.062,714.46C399.252,689.105 387.903,651.837 403.087,598.328C413.039,595.958 418.143,583.132 406.96,580.447C355.317,571.568 302.941,564.334 251.122,555.848C248.885,562.537 249.949,569.151 256.756,569.878C255.446,602.117 244.561,622.868 229.495,636.445C225.106,633.204 223.068,620.954 221.545,606.728C220.374,595.786 197.01,593.026 194.89,605.473C191.681,624.316 187.883,641.996 183.47,658.619C178.66,659.745 173.891,660.637 169.262,661.375C159.516,662.929 156.118,690.972 162.57,719.523C141.029,769.047 111.377,807.125 72.487,838.469C4.04,893.632 -21.713,858.824 20.483,766.736C35.102,734.832 25.199,705.547 14.891,670.804C6.521,642.594 13.567,616.612 33.368,598.888C54.63,579.855 70.905,553.115 69.153,516.64L70.284,515.232C59.512,511.78 48.843,508.097 38.291,504.152C33.988,498.079 34.36,493.582 40.218,490.933C42.177,487.274 43.608,482.936 44.767,478.249C44.686,477.979 44.609,477.712 44.537,477.448C144.738,506.639 290.419,536.221 341.363,536.388C368.948,536.478 384.266,515.07 399.168,491.545C422.682,454.424 492.762,453.568 505.264,523.426C508.63,542.237 508.022,562.559 507.877,584.157C519.502,585.825 531.322,586.636 543.518,585.792C544.21,585.744 543.626,586.191 543.177,586.343L544.85,616.134C545.466,618.101 547.498,620.635 551.54,623.973C551.718,624.121 552.128,624.336 550.589,624.669C540.951,626.753 530.263,628.093 518.15,628.426C508.291,628.697 497.488,628.3 485.54,627.094C493.74,602.285 500.962,570.001 496.867,543.874C496.125,539.141 495.012,534.609 493.465,530.361C487.808,514.819 476.356,503.068 456.099,499.077C455.183,498.896 454.248,498.731 453.295,498.583C431.706,495.22 417.449,503.987 407.675,518.657C398.936,531.773 393.782,549.607 390.176,567.71L413.87,571.722C427.49,542.836 447.971,517.696 468.642,524.475C469.64,524.802 470.604,525.151 471.535,525.52C481.87,529.616 488.114,536.265 491.078,545.098C497.408,563.962 488.778,592.789 473.094,627.987C470.321,634.212 471.767,643.454 471.799,643.454C477.696,685.52 539.676,727.337 607.354,758.545ZM378.632,527.987C372.173,527.383 366.326,532.217 365.688,539.039C365.049,545.861 369.175,552.019 375.633,552.623C382.091,553.227 388.452,548.051 389.091,541.229C389.729,534.407 385.09,528.592 378.632,527.987ZM378.166,532.966C381.919,533.317 384.483,536.798 384.112,540.763C383.73,544.85 379.968,548.007 376.099,547.645C372.345,547.293 370.295,543.47 370.666,539.505C371.039,535.516 374.39,532.612 378.166,532.966ZM485.213,643.267C497.74,642.962 509.983,642.292 521.909,641.211C534.134,640.103 546.025,638.565 557.547,636.55C557.952,636.244 558.157,635.786 558.334,635.889C609.367,665.938 658.688,698.633 706.655,733.419L708.55,734.605C706.387,733.455 704.216,732.329 702.041,731.232C740.512,759.295 778.258,789.9 766.644,788.647C637.922,774.762 470.777,683.936 485.213,643.267ZM266.131,570.845C307.376,575.515 350.902,583.788 396.383,595.148C382.764,650.66 391.928,693.606 425.695,722.985C391.74,873.392 257.501,927.158 177.454,928.62C106.504,929.915 78.631,873.86 121.512,848.921C140.877,837.657 157.407,823.816 170.64,806.978C182.444,791.959 185.152,750.869 175.446,728.459C160.674,694.351 165.593,671.224 187.509,666.368C236.156,655.591 262.919,624.27 266.131,570.845ZM270.625,587.453C263.531,633.573 236.578,662.717 188.007,673.38C175.729,676.075 171.415,693.575 176.927,706.516C205.769,774.225 178.78,822.215 139.924,841.985C85.077,869.89 107.221,924.194 184.14,921.009C274.2,917.28 381.845,852.042 415.133,732.318C416.479,727.475 414.617,723.947 412.54,721.531C380.196,683.913 376.614,647.239 385.092,610.959C346.936,602.368 308.781,594.618 270.625,587.453ZM274.694,593.308C309.511,599.893 344.328,606.975 379.145,614.75C371.788,650.865 376.583,687.381 408.749,724.791C409.944,726.181 411.09,728.192 410.315,730.979C377.684,848.341 272.216,912.358 183.933,916.013C148.16,917.494 124.811,906.429 117.096,890.928C109.791,876.251 118.041,858.729 142.191,846.441C182.93,825.714 211.766,775.546 181.527,704.556C178.792,698.136 178.922,690.358 181.705,684.682C183.258,681.513 185.678,679.01 189.079,678.264C238.142,667.492 266.1,638.674 274.694,593.308ZM302.359,713.394C272.679,713.163 250.512,737.705 250.512,759.42C250.512,787.713 266.465,804.538 286.751,804.538C309.737,804.538 334.937,783.66 334.937,757.933C334.937,729.291 319.06,713.394 302.359,713.394ZM302.32,718.394L302.359,718.394C316.949,718.394 329.937,732.911 329.937,757.933C329.937,780.946 307.313,799.538 286.751,799.538C268.927,799.538 255.512,784.279 255.512,759.42C255.512,739.924 275.674,718.186 302.32,718.394ZM297.808,732.847C283.88,732.847 270.749,746.319 270.749,762.475C270.749,776.675 281.209,787.993 292.756,787.993C306.576,787.993 321.185,772.443 321.185,758.622C321.185,744.802 311.629,732.847 297.808,732.847ZM297.808,737.847C308.824,737.847 316.185,747.606 316.185,758.622C316.185,764.353 313.005,770.374 308.543,775.031C304.139,779.628 298.412,782.993 292.756,782.993C283.624,782.993 275.749,773.705 275.749,762.475C275.749,749.163 286.332,737.847 297.808,737.847ZM146.476,857.731C133.981,857.731 126.995,867.072 126.995,879.567C126.995,889.29 137.341,898.94 147.064,898.94C156.788,898.94 165.635,888.494 165.635,875.606C165.635,864.954 157.128,857.731 146.476,857.731ZM146.476,862.731C154.256,862.731 160.635,867.826 160.635,875.606C160.635,881.81 158.159,887.341 154.43,890.747C152.293,892.698 149.746,893.94 147.064,893.94C143.411,893.94 139.693,892.009 136.835,889.282C134.044,886.619 131.995,883.136 131.995,879.567C131.995,870.085 136.994,862.731 146.476,862.731Z" style="fill:#2d3234;"/>
</svg>
