<?xml version="1.0" encoding="UTF-8" standalone="no"?>
<!DOCTYPE svg PUBLIC "-//W3C//DTD SVG 1.1//EN" "http://www.w3.org/Graphics/SVG/1.1/DTD/svg11.dtd">
<svg width="100%" height="100%" viewBox="0 0 777 612" version="1.1" xmlns="http://www.w3.org/2000/svg" xmlns:xlink="http://www.w3.org/1999/xlink" xml:space="preserve" xmlns:serif="http://www.serif.com/" style="fill-rule:evenodd;clip-rule:evenodd;stroke-linejoin:round;stroke-miterlimit:2;">
    <path d="M585.034,581.765C580.02,586.695 573.897,590.62 566.72,593.02C430.007,638.728 141.637,592.104 62.06,548.441C31.404,531.62 11.978,509.849 6.647,476.858C-4.921,405.271 -1.074,227.103 15.731,189.437C17.901,182.84 21.393,176.673 25.707,171.062C30.531,131.189 59.331,82.596 116.819,57.542C148.216,43.858 175.997,33.98 204.681,22.622C228.96,13.008 278.795,4.544 304.497,1.583C353.189,-4.025 374.419,5.866 392.794,21.75C402.438,30.087 397.983,40.055 384.813,46.623C385.422,48.937 385.815,51.437 385.88,53.992L386.426,56.792C392.535,33.643 428.247,15.574 464.416,20.817C557.74,34.346 639.901,52.541 700.761,79.637C727.475,91.53 774.551,147.468 775.421,198.865C776.705,274.754 774.241,352.163 775.989,431.929C776.768,467.478 771.377,495.053 762.93,513.97C741.521,561.914 659.531,593.052 583.52,584.655C584.032,583.694 584.537,582.73 585.034,581.765ZM217.207,267.943C208.689,286.022 199.877,304.102 190.871,322.181C174.976,322.286 158.273,322.675 143.387,322.371C136.169,322.224 134.927,325.919 139.018,330.634C151.463,344.98 163.28,359.744 174.202,375.106C169.567,396.132 165.386,417.288 161.64,438.568C160.963,442.417 162.724,442.196 165.748,440.89C183.422,433.255 200.714,424.856 217.899,416.243C235.614,428.081 252.951,440.523 269.872,453.63C273.676,456.577 277.497,454.386 276.599,450.296C271.979,429.263 267.824,408.462 264.157,387.905C279.49,374.708 294.292,361.551 308.568,348.435C313.371,344.023 311.544,341.205 304.103,339.624C285.247,335.618 266.441,331.356 247.666,326.943C239.218,307.45 230.828,287.899 222.543,268.244C220.578,263.582 219.154,263.812 217.207,267.943ZM104.973,139.805C119.745,140.913 136.697,142.296 149.449,145.288C247.676,168.336 348.487,182.236 454.588,177.422C506.422,175.07 574.484,222.008 582.909,279.436C587.98,245.748 584.496,212.061 571.2,178.374C542.02,152.224 502.737,131.678 445.158,113.293C409.478,101.901 392.074,87.186 387.074,72.82C366.158,81.21 341.58,88.658 319.747,93.526C297.459,101.438 270.043,102.86 252.016,105.154C190.18,113.024 141.689,124.725 104.973,139.805ZM721.705,115.508C712.168,104.835 702.501,96.831 694.66,93.34C634.826,66.701 554.014,48.963 462.264,35.662C442.962,32.864 423.764,37.925 411.376,47.204C405.317,51.743 400.737,57.115 400.518,63.35C400.343,68.326 403.283,73.204 408.741,78.215C410.969,80.259 413.558,82.257 416.526,84.207C410.246,66.993 429.927,56.268 457.624,65.695C520.044,86.94 595.297,120.221 625.623,121.449C657.794,122.751 696.482,113.334 721.705,115.508ZM66.347,157.327C65.135,157.936 63.898,158.589 62.645,159.275C49.443,166.498 35.06,178.679 29.98,194.124C29.821,194.608 29.637,195.083 29.429,195.549C24.764,206.006 21.559,228.232 19.113,255.92C13.05,324.565 13.492,425.191 21.455,474.465C25.558,499.859 39.804,517.185 61.733,530.88C69.536,477.109 69.494,420.334 64.389,359.883C55.708,257.063 53.636,166.598 126.133,183.524C232.096,208.263 335.82,220.463 438.754,228.235C495.546,232.522 532.069,264.14 534.208,320.85C537.925,419.416 550.555,502.556 569.141,575.388C581.975,567.261 587.779,551.076 586.164,536.793C576.586,452.049 570.725,369.626 568.757,289.639C568.101,262.966 551.472,238.614 529.67,220.876C507.399,202.756 479.415,191.311 455.268,192.406C347.741,197.286 245.569,183.249 146.023,159.891C126.531,155.318 96.965,154.708 81.31,152.835C79.708,152.643 77.781,152.907 75.619,153.516C72.624,154.781 69.526,156.055 66.347,157.327ZM378.837,29.711C363.704,18.1 344.841,12.036 306.213,16.485C281.499,19.331 233.55,27.324 210.203,36.569C181.674,47.866 154.04,57.682 122.812,71.292C82.352,88.926 57.461,119.338 46.51,148.899C51.274,147.149 55.932,145.366 60.418,143.582C63.204,142.267 65.924,141.162 68.511,140.283C73.453,138.218 78.108,136.175 82.377,134.202C92.49,114.953 127.885,87.11 151.058,77.857C234.808,44.413 292.036,38.882 378.837,29.711Z" style="fill:#2d3234;"/>
    <path d="M219.637,278.304L239.64,331.836L298.506,345.743L256.071,386.559L267.692,443.521L216.779,409.087L168.962,433.091L181.012,375.462L147.435,329.836L196.49,329.693L219.637,278.304ZM211.539,328.159L187.012,351.639L198.204,363.641L204.824,358.593L225.542,384.74C217.258,391.102 208.901,388.379 200.49,379.12L183.678,395.17L188.25,400.647L199.299,391.55C210.828,400.978 222.538,402.491 234.448,395.408L242.258,406.124L247.545,403.933L239.401,391.36C264.462,364.875 233.926,322.067 211.539,328.159ZM212.447,332.582C226.57,328.842 244.184,358.845 231.808,377.792L211.008,352.724L220.567,342.263L212.447,332.582Z" style="fill:#800020;"/>
</svg>
