<?xml version="1.0" encoding="UTF-8" standalone="no"?>
<!DOCTYPE svg PUBLIC "-//W3C//DTD SVG 1.1//EN" "http://www.w3.org/Graphics/SVG/1.1/DTD/svg11.dtd">
<svg width="100%" height="100%" viewBox="0 0 982 735" version="1.1" xmlns="http://www.w3.org/2000/svg" xmlns:xlink="http://www.w3.org/1999/xlink" xml:space="preserve" xmlns:serif="http://www.serif.com/" style="fill-rule:evenodd;clip-rule:evenodd;stroke-linejoin:round;stroke-miterlimit:2;">
    <path d="M418.134,351.012C399.895,394.455 380.737,437.477 366.858,482.03C358.914,507.533 359.718,528.002 368.977,539.134C314.436,514.703 256.392,495.39 194.677,481.445C162.747,474.231 124.121,482.101 116.099,478.493C81.559,462.959 48.007,446.338 15.947,428.076C-11.202,412.611 -0.719,383.219 25.176,376.185C79.962,361.303 151.211,255.789 209.206,127.709C229.099,83.776 256.668,58.242 295.449,53.719C365.56,46.779 432.787,66.061 516.006,104.241C601.387,143.413 656.604,213.612 701.731,317.675C759.47,450.822 785.123,600.959 877.295,700.037C884.963,708.279 891.475,703.58 892.486,702.64C893.496,701.7 899.176,696.675 891.524,688.45C799.713,589.761 774.296,443.368 716.783,310.744C671.087,205.367 612.543,127.154 526.085,87.488C444.473,50.045 374.227,34.728 305.621,39.983C327.944,20.836 344.578,5.613 373.153,2.58C440.335,-4.55 503.591,2.955 562.447,26.862C673.638,72.028 719.525,199.425 790.64,390.808C822.485,476.51 893.581,556.196 958.551,614.141C984.635,637.405 989.584,667.737 969.224,684.77C952.028,699.156 933.854,712.322 914.72,724.286C890.219,739.605 861.108,734.427 834.077,728.781C666.438,693.768 547.221,636.493 446.661,578.713C428.078,568.035 409.045,558.018 389.551,548.672C407.727,550.032 420.942,535.178 434.637,496.884C451.877,448.675 471.603,402.798 492.748,358.25C503.246,352.645 524.405,334.998 524.405,334.998C527.157,331.745 530.056,328.713 533.261,326.142C535.999,325.944 537.184,324.56 537.024,322.146C539.95,320.618 540.987,318.105 541.185,315.155C544.109,313.301 544.575,310.415 544.648,307.364C545.689,304.352 546.002,301.066 545.68,297.543C547.257,294.853 547.61,291.05 547.311,286.656C548.374,283.583 548.171,280.185 547.245,276.601C548.472,273.434 548.178,270.107 547.245,266.713C547.415,261.758 547.364,257.02 544.848,254.694C544.434,247.811 543.074,241.674 539.421,237.348C536.738,230.618 536.987,223.519 531.497,221.434C529.653,217.724 527.031,214.711 523.54,212.478C522.306,208.343 519.127,205.57 514.484,203.822C511.973,201.515 508.224,199.934 504.063,198.595C501.897,195.237 498.109,192.961 493.542,191.204C490.478,188.59 486.148,186.349 479.992,184.645C474.796,182.964 470.578,183.13 467.673,185.777C463.953,185.5 460.211,185.599 456.454,185.977L448.202,185.856L442.771,187.697C438.58,189.198 435.242,191.153 433.182,193.79C431.11,195.381 428.347,196.427 424.926,196.953C422.031,199.21 418.771,200.735 415.237,201.714L414.438,204.144C412.454,206.384 409.623,208.059 406.148,209.305C404.918,211.429 402.81,213.511 400.089,215.564L400.688,218.194L396.946,219.699C395.48,221.912 394.286,223.94 393.53,226.651C386.744,235.259 387.205,240.728 384.008,251.487L384.907,252.719C383.945,256.285 382.761,259.539 381.444,262.607L382.976,263.307C381.923,266.107 381.821,269.02 381.977,271.963L383.941,272.729C383.598,276.188 382.885,279.595 382.044,282.983L385.839,282.95C386.133,286.82 386.147,290.55 385.872,294.136L387.704,294.602C388.028,298.999 388.972,302.656 391.499,304.424C392.02,312.006 394.656,318.232 399.722,322.902C399.722,322.902 410.656,343.388 418.134,351.012ZM11.06,396.258C34.884,392.952 55.138,394.988 77.301,396.602C123.146,399.943 168.196,365.642 176.881,328.9C190.656,270.623 203.739,212.346 215.964,154.069C216.247,152.719 215.38,151.393 214.03,151.109C212.68,150.826 211.353,151.693 211.07,153.043C198.855,211.278 172.445,258.56 158.68,316.795C150.462,351.56 120.565,383.505 77.188,380.344C54.673,378.704 34.575,387.947 10.372,391.305C9.006,391.495 8.05,392.759 8.24,394.125C8.429,395.492 9.693,396.448 11.06,396.258ZM467.746,366.039C447.262,413.963 427.028,462.086 407.252,510.577C406.054,513.512 403.58,514.306 401.745,514.521C401.258,510.433 401.737,508.01 403.382,504.028C422.362,458.086 442.114,412.241 462.215,366.439C464.017,366.388 465.866,366.255 467.746,366.039ZM440.534,363.933C423.719,402.304 407.985,441.069 392.889,480.066C389.24,489.494 381.472,495.78 375.476,501.721C380.942,492.693 386.436,484.538 389.317,476.94C403.886,438.518 418.854,400.154 434.526,361.889C436.438,362.665 438.441,363.347 440.534,363.933ZM409.141,273.385L408.044,269.966C410.09,266.46 410.088,263.416 409.292,260.55C412.144,258.978 412.863,256.491 411.737,253.215L416.419,249.261L415.847,244.787C418.755,240.993 421.406,236.902 423.39,232.042C428.089,230.65 432.229,228.68 434.939,225.228L435.043,222.679C438.963,222.651 441.969,221.394 444.042,218.881C447.873,218.98 451.449,218.43 454.498,216.54C457.37,216.022 460.513,215.866 463.81,215.916C466.233,215.265 468.835,215.005 471.613,215.135L486.127,217.268L486.231,219.557C491.067,221.682 495.593,222.916 499.861,223.407L499.392,226.944C500.41,230.858 502.459,232.391 505.323,232.042L505.115,234.435C508.636,238.001 511.485,241.944 513.23,246.504C514.516,249.312 515.826,251.832 517.184,253.787C518.823,256.324 519.958,259.208 520.461,262.527C520.456,264.729 520.73,266.931 521.293,269.133C522.461,271.79 522.705,274.704 522.594,277.717C522.878,280.447 522.807,283.155 522.293,285.835C514.119,255.627 485.367,239.938 462.484,239.938C440.203,239.938 419.823,254.801 409.141,273.385ZM462.361,252.999C493.876,252.999 512.906,274.589 512.906,309.314C512.906,333.939 490.059,354.894 458.703,354.894C431.718,354.894 410.438,330.481 410.438,305.029C410.438,273.481 434.412,252.999 462.361,252.999ZM494.229,280.481C459.417,280.481 437.588,293.584 437.588,332.802C445.646,311.281 473.352,288.821 494.229,280.481Z" style="fill:#2d3234;"/>
    <path d="M409.63,371.142L408.311,370.776C403.403,368.848 399.13,365.916 395.471,362.012C392.321,360.182 389.596,357.53 387.279,354.087C383.252,352.094 380.146,349.276 378.096,345.514C374.615,342.209 371.445,337.622 368.38,332.598C367.451,329.737 365.533,327.132 363.199,324.635C362.701,322.653 361.712,320.697 360.227,318.767C359.475,313.257 355.96,315.338 356.683,304.022L352.606,293.811C352.165,289.917 351.304,287.109 349.977,285.505C350.341,279.061 349.312,274.293 347.387,270.607C351.259,264.271 352.921,256.307 353.826,247.784C353.788,240.415 355.591,233.908 358.779,228.048C359.775,221.879 362.218,216.175 367.428,211.359C367.166,208.265 367.688,205.249 371.124,202.52C371.743,200.287 372.721,198.144 374.172,196.119L374.629,193.337C375.942,190.406 378.159,187.83 381.449,185.679L380.988,183.434C385.067,181.15 388.77,178.245 391.965,174.504C399.516,169.004 407.626,163.741 416.894,158.97C429.04,154.6 441.223,150.277 454.847,147.714C461.4,148.61 467.574,149.173 472.826,148.93C480.351,149.897 487.617,151.588 494.735,153.693C502.826,158.344 510.647,161.337 518.251,162.98L521.465,163.814C522.859,165.912 524.331,167.538 526.049,167.684C536.42,177.001 544.207,184.96 544.981,189.235L547.66,190.723C552.766,196.121 557.289,201.609 560.281,207.333L562.008,207.928C563.914,210.269 565.832,212.837 567.901,218.287C569.109,225.067 573.126,230.749 573.378,236.98L575.343,238.886C576.367,242.709 576.762,246.59 576.891,250.495L578.677,250.197C579.767,257.658 580.451,264.916 580.403,271.808L582.011,273.415C581.829,277.956 581.344,282.287 580.106,286.096L582.189,286.036L580.165,290.263L578.022,299.431C577.752,303.4 577.113,307.369 576.355,311.338L574.51,312.647L574.748,316.16C572.708,322.796 569.456,329.657 565.222,336.699C558.952,348.944 548.851,359.091 535.753,367.597C523.136,379.23 506.507,387.689 484.542,391.925L477.992,390.108C482.822,379.405 487.745,368.791 492.748,358.25C500.696,354.007 508.054,348.018 513.687,340.053L521.927,333.912L524.405,334.998C527.157,331.745 530.056,328.713 533.261,326.142C535.999,325.944 537.184,324.56 537.024,322.146C539.95,320.618 540.987,318.105 541.185,315.155C544.109,313.301 544.575,310.415 544.648,307.364C545.689,304.352 546.002,301.066 545.68,297.543C547.257,294.853 547.61,291.05 547.311,286.656C548.374,283.583 548.171,280.185 547.245,276.601C548.472,273.434 548.178,270.107 547.245,266.713C547.415,261.758 547.364,257.02 544.848,254.694C544.434,247.811 543.074,241.674 539.421,237.348C536.738,230.618 536.987,223.519 531.497,221.434C529.653,217.724 527.031,214.711 523.54,212.478C522.306,208.343 519.127,205.57 514.484,203.822C511.973,201.515 508.224,199.934 504.063,198.595C501.897,195.237 498.109,192.961 493.542,191.204C490.478,188.59 486.148,186.349 479.992,184.645C474.796,182.964 470.578,183.13 467.673,185.777C463.953,185.5 460.211,185.599 456.454,185.977L448.202,185.856L442.771,187.697C438.58,189.198 435.242,191.153 433.182,193.79C431.11,195.381 428.347,196.427 424.926,196.953C422.031,199.21 418.771,200.735 415.237,201.714L414.438,204.144C412.454,206.384 409.623,208.059 406.148,209.305C404.918,211.429 402.81,213.511 400.089,215.564L400.688,218.194L396.946,219.699C395.48,221.912 394.286,223.94 393.53,226.651C386.744,235.259 387.205,240.728 384.008,251.487L384.907,252.719C383.945,256.285 382.761,259.539 381.444,262.607L382.976,263.307C381.923,266.107 381.821,269.02 381.977,271.963L383.941,272.729C383.598,276.188 382.885,279.595 382.044,282.983L385.839,282.95C386.133,286.82 386.147,290.55 385.872,294.136L387.704,294.602C388.028,298.999 388.972,302.656 391.499,304.424C392.02,312.006 394.656,318.232 399.722,322.902L402.935,324.466L405.616,329.895C408.372,338.115 412.499,345.267 418.134,351.012C415.313,357.729 412.471,364.437 409.63,371.142Z" style="fill:#800020;"/>
</svg>
