<?xml version="1.0" encoding="UTF-8" standalone="no"?>
<!DOCTYPE svg PUBLIC "-//W3C//DTD SVG 1.1//EN" "http://www.w3.org/Graphics/SVG/1.1/DTD/svg11.dtd">
<svg width="100%" height="100%" viewBox="0 0 899 1109" version="1.1" xmlns="http://www.w3.org/2000/svg" xmlns:xlink="http://www.w3.org/1999/xlink" xml:space="preserve" xmlns:serif="http://www.serif.com/" style="fill-rule:evenodd;clip-rule:evenodd;stroke-linejoin:round;stroke-miterlimit:2;">
    <path d="M858.604,425.142C858.717,426.546 858.825,427.958 858.929,429.38C863.403,435.516 866.811,443.326 863.254,462.08C865.832,463.946 866.903,466.972 867.005,470.742L871.565,514.188C931.342,574.127 884.382,643.974 784.791,672.965C783.854,673.237 782.904,673.5 781.939,673.753L772.757,695.942C783.224,700.458 785.312,705.672 777.49,711.712L767.06,738.502C765.194,742.664 760.529,742.537 756.13,740.431C722.258,838.094 683.195,913.995 634.069,976.682L578.226,947.18C617.67,903.366 654.754,867.064 690.715,805.205C703.266,783.616 713.108,744.842 729.339,722.821L727.053,722.321C709.01,750.134 695.202,785.611 678.26,812.621C697.196,768 708.668,723.531 716.375,679.14C633.795,677.018 525.15,653.306 475.27,656.864C361.868,664.954 262.626,675.67 162.807,653.972C132.392,704.542 114.344,760.062 114.019,832.298C70.333,764.496 81.07,704.354 117.963,641.954C116.534,641.496 115.105,641.03 113.676,640.556C4.486,604.397 -14.336,564.442 8.66,531.561C11.643,527.297 13.871,521.789 19.805,516.63C39.367,499.625 50.441,484.293 53.096,470.622C51.697,470.112 51.04,469.161 51.207,467.707C52.745,454.335 54.943,437.536 57.7,417.825C58.505,412.066 62.6,406.872 67.579,402.864C73.727,339.03 89.082,270.412 137.898,184.404C144.48,172.806 150.528,170.951 159.53,148.631C178.186,129.764 197.521,112.935 217.129,96.926C249.038,65.293 283.056,45.832 318.256,33.018C321.518,31.831 322.611,29.012 325.75,27.569C363.273,10.32 411.392,9.263 433.867,7.992C438.425,4.91 448.706,0.546 461.368,0.137C489.167,-0.759 512.867,2.872 532.934,6.945C537.836,7.94 566.352,5.881 583.863,16.712C621.224,33.377 655.854,52.621 687.857,74.346C694.703,74.963 699.645,78.786 703.596,84.281C725.037,99.496 744.488,114.198 741.548,123.126C765.984,154.808 784.92,186.904 799.259,219.347C806.276,229.829 809.816,240.698 809.975,251.942C832.219,294.66 851.658,343.762 858.336,421.906L794.838,356.314L679.909,446.835L679.909,504.835C693.283,505.236 706.071,504.735 719.471,505.028C787.395,506.516 849.909,500.835 859.909,488.835L858.604,425.142ZM116.031,299.141C114.872,300.378 113.079,301.794 113.048,302.642C113.003,303.848 115.337,304.51 116.709,304.964C118.689,305.619 122.166,306.153 124.925,306.572C128.065,307.048 132.052,307.133 135.551,307.822C140.091,308.715 148.277,311.84 152.161,311.93C154.691,311.988 156.79,308.804 158.859,308.358C160.743,307.951 164.038,310.114 164.574,309.251C165.11,308.387 163.816,304.503 162.073,303.178C159.9,301.526 153.486,301.035 151.536,299.338C149.915,297.928 151.968,294.44 150.375,292.998C148.024,290.87 141.698,288.116 137.427,286.568C133.353,285.092 126.472,283.324 124.746,283.711C123.02,284.098 127.514,287.819 127.068,288.89C126.621,289.962 123.78,290.001 122.067,290.14C119.879,290.319 115.161,289.233 113.941,289.962C112.72,290.691 114.238,293.221 114.744,294.516C115.141,295.532 116.62,296.203 116.94,297.142C117.686,297.363 118.517,297.642 119.214,297.758C120.97,298.05 123.72,298.502 125.835,298.599C127.859,298.692 129.881,298.32 131.907,298.343C134.095,298.367 136.826,298.282 138.966,298.745C141.002,299.186 142.88,300.343 144.745,301.123C146.555,301.88 149.208,302.708 150.159,303.427C150.699,303.836 151.112,305.289 150.451,305.439C149.781,305.591 147.512,304.896 146.135,304.342C144.471,303.671 142.35,301.946 140.466,301.416C138.657,300.906 136.712,301.106 134.833,301.159C132.888,301.214 130.817,301.837 128.798,301.745C126.408,301.635 122.878,301.056 120.495,300.501C119.138,300.185 117.345,299.647 116.031,299.141ZM361.132,155.656C358.69,155.861 355.942,157.963 354.77,159.34C353.77,160.514 352.88,162.973 354.1,163.916C355.905,165.312 361.914,166.409 365.597,167.711C369.161,168.971 372.555,170.8 376.202,171.73C379.848,172.66 384.388,172.344 387.476,173.293C390.136,174.11 392.076,176.592 394.732,177.423C398.062,178.465 405.466,180.176 407.457,179.544C409.353,178.941 405.801,174.967 406.675,173.628C407.55,172.288 411.829,173.032 412.703,171.507C413.578,169.981 413.692,166.033 411.922,164.474C409.578,162.409 403.317,160.067 398.638,159.116C392.871,157.944 383.569,158.019 377.318,157.442C371.913,156.943 364.89,155.34 361.132,155.656ZM367.376,159.937C369.228,159.883 373.29,160.775 375.789,160.942C377.979,161.089 380.211,160.562 382.373,160.942C384.583,161.331 386.77,162.671 389.048,163.274C391.609,163.952 395.236,164.135 397.735,165.012C400.008,165.809 403.58,167.404 404.045,168.532C404.51,169.66 402.12,171.726 400.524,171.778C398.901,171.832 396.345,169.896 394.306,168.852C392.028,167.686 389.437,165.789 386.854,164.783C384.281,163.781 381.537,163.231 378.807,162.817C376.04,162.398 372.611,162.527 370.257,162.268C368.379,162.062 365.159,161.651 364.679,161.263C364.199,160.874 366.375,159.965 367.376,159.937ZM679.909,562.835L679.909,600.835L722.909,609.835L859.909,570.835L859.909,544.835C810.909,554.835 760.909,564.835 679.909,562.835ZM461.625,282.906C459.299,283.427 455.672,284.915 454.816,287.148C453.96,289.38 455.151,293.901 456.49,296.301C457.83,298.701 460.25,300.664 462.853,301.547C466.909,302.924 474.878,303.324 480.824,304.561C486.815,305.807 492.703,308.037 498.796,309.026C505.103,310.049 513.177,310.347 518.665,310.7C523.012,310.98 528.302,311.891 531.725,311.147C534.64,310.513 537.883,308.58 539.204,306.235C540.525,303.891 541.493,298.998 539.651,297.082C537.809,295.166 531.933,295.746 528.153,294.738C523.409,293.473 516.969,290.761 511.186,289.492C504.321,287.985 494.033,286.608 486.964,285.696C480.923,284.918 472.992,284.487 468.769,284.022C466.373,283.758 463.951,282.385 461.625,282.906ZM474.851,292.147C475.607,291.915 476.313,291.235 477.091,291.37C478.143,291.553 479.705,292.91 481.161,293.245C483.218,293.717 486.807,293.816 489.436,294.205C491.95,294.576 494.441,295.089 496.935,295.577C499.663,296.11 502.825,297.024 505.805,297.405C508.784,297.786 512.51,297.543 514.812,297.863C516.469,298.093 518.675,298.449 519.612,299.326C520.55,300.202 520.778,302.816 520.435,303.121C520.092,303.425 518.674,301.468 517.555,301.155C516.031,300.728 513.387,300.627 511.291,300.56C508.891,300.484 505.195,300.911 503.153,300.697C501.71,300.547 500.466,299.536 499.038,299.28C497.079,298.929 493.933,298.946 491.402,298.594C488.72,298.221 485.558,297.642 482.944,297.04C480.504,296.478 477.32,295.096 475.72,294.982C474.807,294.917 474.197,296.027 473.342,296.354C472.245,296.773 470.492,297.786 469.136,297.497C467.78,297.207 465.143,295.249 465.204,294.616C465.265,293.984 468.083,294.065 469.502,293.702C471.11,293.29 473.586,292.536 474.851,292.147ZM334.793,320.473C331.513,320.533 327.653,321.961 325.444,323.543C323.407,325.001 321.909,327.868 321.537,329.961C321.166,332.05 321.576,334.75 323.211,336.101C325.351,337.868 330.723,339.938 334.374,340.566C337.911,341.174 341.559,339.408 345.118,339.868C352.676,340.845 370.536,345.1 379.722,346.426C386.504,347.405 395.675,348.449 400.233,347.821C403.062,347.431 405.977,344.31 407.07,342.658C407.944,341.338 407.217,339.44 406.791,337.914C406.186,335.752 406.024,331.134 403.442,329.682C400.256,327.891 392.969,327.71 387.675,327.171C381.28,326.519 371.606,326.45 365.071,325.775C359.496,325.2 353.513,324.008 348.467,323.124C343.893,322.323 338.63,320.403 334.793,320.473ZM338.366,323.535C339.329,323.44 340.049,324.512 340.789,325.135C342,326.157 343.663,328.664 345.635,329.662C347.655,330.683 350.733,331.003 352.905,331.262C354.812,331.49 356.76,330.984 358.666,331.216C361.104,331.514 364.533,332.739 367.536,333.045C371.727,333.472 379.835,333.701 383.813,333.777C386.344,333.825 389.292,333.06 391.402,333.502C393.314,333.903 396.257,335.827 396.478,336.429C396.699,337.031 393.998,337.162 392.728,337.114C390.305,337.023 385.552,336.101 381.938,335.88C377.953,335.636 373.183,335.915 368.816,335.651C364.404,335.385 359.748,334.981 355.465,334.28C351.299,333.598 346.199,332.268 343.121,331.445C341.035,330.887 338.541,330.279 336.994,329.342C335.646,328.525 333.611,326.789 333.839,325.821C334.068,324.853 337.207,323.649 338.366,323.535ZM624.25,109.439C622.667,109.896 620.988,110.262 620.396,110.854C619.617,111.633 620.011,113.772 621.066,114.091C623.522,114.835 631.614,114.221 635.131,115.319C637.944,116.197 639.47,119.48 642.163,120.677C645.679,122.24 651.674,122.952 656.228,124.695C660.99,126.519 666.572,129.607 670.739,131.616C674.246,133.307 677.734,135.151 681.232,136.751C684.688,138.332 689.269,141.421 691.724,141.216C694.083,141.019 696.831,137.726 695.966,135.523C694.943,132.918 688.859,128.342 685.585,125.588C682.685,123.15 679.315,120.323 676.32,119.003C673.633,117.818 670.43,118.494 667.613,117.663C663.39,116.417 655.576,113.403 650.981,111.524C647.253,109.999 643.428,107.542 640.042,106.389C637.03,105.363 632.898,104.25 630.666,104.603C629.565,104.777 628.915,105.788 628.231,106.782C629.299,107.461 630.44,108.33 631.566,108.722C634.014,109.576 638.365,110.39 640.667,110.975C642.242,111.376 643.852,111.674 645.378,112.234C647.172,112.892 649.418,114.023 651.435,114.926C653.483,115.843 655.508,117.007 657.668,117.735C659.896,118.486 663.305,118.813 664.808,119.432C665.656,119.782 667.027,121.193 666.68,121.451C666.334,121.71 663.997,121.374 662.73,120.983C660.643,120.339 656.912,118.671 654.156,117.589C651.506,116.547 648.548,115.121 646.197,114.487C644.207,113.95 642.013,114.224 640.052,113.785C638.12,113.352 636.243,112.409 634.434,111.853C632.706,111.322 630.944,110.908 629.196,110.449C627.969,110.127 625.866,109.807 624.25,109.439ZM263.796,135.229C261.749,135.843 259.777,137.61 258.549,139.135C257.366,140.605 255.889,143.005 256.428,144.382C256.968,145.759 259.743,147.247 261.786,147.396C265.879,147.693 276.279,146.503 280.986,146.168C284.003,145.953 287.005,145.265 290.027,145.386C293.265,145.517 296.942,146.472 300.409,146.949C305.413,147.638 315.459,149.089 320.055,149.517C322.685,149.762 325.617,150.67 327.98,149.517C330.343,148.363 333.282,144.624 334.231,142.596C334.976,141.003 335.162,138.285 333.673,137.349C331.422,135.936 325.135,134.695 320.724,134.112C314.808,133.331 304.055,132.773 298.176,132.661C293.927,132.581 289.679,133.011 285.451,133.443C280.893,133.908 274.437,135.154 270.828,135.452C268.491,135.645 265.842,134.615 263.796,135.229ZM313.732,141.047C314.316,141.211 315.194,142.519 314.601,142.647C313.648,142.853 310.184,142.648 308.017,142.282C305.403,141.84 302.038,140.217 298.918,139.996C295.383,139.744 290.846,140.616 286.802,140.773C282.664,140.933 277.376,140.91 274.092,140.956C271.76,140.988 267.393,141.299 267.096,141.047C266.799,140.796 270.496,139.581 272.308,139.447C276.012,139.173 284.905,139.607 289.317,139.401C292.493,139.253 295.609,137.999 298.781,138.212C302.85,138.487 311.095,140.308 313.732,141.047ZM80.485,752.031C80.591,871.607 232.564,920.419 396.8,927.157C459.276,929.721 518.984,928.693 563.73,947.404C552.751,962.472 542.026,977.487 535.469,992.708C502.164,980.14 410.835,990.892 350.973,984.262C258.037,973.968 144.656,946.837 103.869,869.579C100.341,862.895 101.419,855.477 93.26,826.291C81.705,806.628 79.235,780.627 80.485,752.031ZM574.143,952.837C591.335,961.192 607.696,970.377 624.094,979.526C629.642,982.622 632.851,988.661 630.78,994.214C625.702,1007.84 618.871,1020.21 608.72,1030.22C605.678,1033.22 598.521,1034.93 594.546,1033.08C587.449,1029.78 578.833,1025.07 570.943,1019.42C565.033,1015.18 547.98,1006.56 537.795,999.644C536.766,998.946 539.963,996.628 540.881,994.672C546.879,981.892 553.743,968.731 565.513,953.408C566.45,952.188 570.522,951.077 574.143,952.837ZM572.004,961.289C569.467,960.431 565.216,959.437 564.095,960.877C553.59,974.366 543.099,987.852 547.406,998.872C552.76,1001.44 563.299,1002.48 568.987,1006C579.368,1012.44 589.741,1018.85 598.888,1022.33C606.133,1012.61 611.396,1002.16 614.982,991.099C615.753,988.723 615.965,986.541 612.056,983.692C599.826,974.778 587.17,966.412 572.004,961.289ZM568.326,963.835C580.266,967.66 593.887,974.54 609.533,985.095C611.216,986.231 613.826,987.995 612.848,989.325C609.256,994.209 606.237,999.904 603.246,1005.67C601.154,1009.7 600.039,1014.28 598.845,1018.82C587.941,1015.31 577.796,1007.96 567.698,1004.13C566.731,995.195 556.128,991.796 550.552,998.983C548.871,989.495 554.919,977.743 568.326,963.835ZM543.696,1007.47L587.989,1034.62C587.989,1034.62 537.314,1075.15 525.908,1085.63C522.605,1088.66 522.348,1094.06 519.55,1097.49C516.752,1100.91 511.941,1104.37 509.119,1106.2C507.193,1107.45 504.734,1109.38 502.618,1108.49C492.546,1104.23 456.635,1087.08 448.682,1080.63C445.443,1078 453.159,1072.18 454.897,1069.77C455.981,1068.26 458.063,1067.66 459.112,1066.12C460.35,1064.31 459.948,1060.04 462.327,1058.91C465.339,1057.48 473.471,1058.36 477.186,1057.55C479.861,1056.97 482.723,1054.6 484.616,1054.05C485.876,1053.69 487.515,1055.08 488.545,1054.27C498.392,1046.5 527.099,1023.96 543.696,1007.47Z" style="fill:#2d3234;"/>
    <path d="M769.513,595.553L778.886,602.656L789.826,608.572L800.653,620.069L805.23,632.571L811.146,629.446L812.374,623.529L818.178,630.339L828.113,625.985L833.917,620.739L835.927,626.655L827.666,636.59L822.197,642.282L821.527,650.096L822.977,658.713C811.352,664.157 798.576,668.952 784.791,672.965C709.237,694.959 541.09,652.169 475.27,656.864C343.304,666.279 230.514,679.248 113.676,640.556C5.444,604.715 -13.999,565.143 8.065,532.428L8.56,533.371L12.043,533.818L20.794,527.835L23.83,523.638L32.225,521.762L42.673,513.815L46.334,504.617L50.174,497.473L54.728,498.366L53.389,510.243L47.941,516.583L39.994,524.888L34.189,526.853L30.26,535.068L26.956,541.051L18.472,546.499L15.525,554.714L13.204,562.483L17.311,573.11L25.438,579.986L23.741,575.164L21.955,569.091L18.651,568.556L21.419,561.858L23.83,557.482L28.563,554.446L32.671,550.964L34.189,559.804L29.546,565.787L29.635,572.038L31.867,577.843L27.76,583.201L73.481,613.116L127.151,634.28L134.652,634.459L137.867,627.047L140.724,626.243L157.78,628.029L162.871,623.207L166.175,617.135L160.37,617.492L148.404,619.189L141.528,617.046L146.35,610.169L149.922,609.455L160.549,610.348L170.818,611.509L173.854,605.258L169.657,602.311L162.603,599.9L164.031,596.596L175.462,595.971L179.748,590.791L179.748,584.362L172.961,582.576L169.122,578.111L171.459,572.749L175.567,570.695L185.033,574.981L192.802,571.856L195.928,564.176L202.893,561.051L202.536,554.8L201.553,549.263L209.144,547.566L213.073,543.459L212.716,537.207L202.536,533.1L195.213,531.939L196.642,525.688L197.535,522.294L188.225,520.905L164.918,569.395L159.828,571.091L148.576,572.431L142.772,569.662L147.594,563.054L152.505,553.678L150.987,545.641L142.147,554.66L141.611,547.07L133.931,539.479L128.394,530.46L133.752,520.101L133.485,512.6L134.704,506.066C137.637,506.905 140.623,507.735 143.661,508.558C140.688,508.061 138.246,507.724 136.645,507.611C133.975,507.424 134.683,513.488 134.417,515.327C134.255,516.44 134.035,518.147 135.045,518.642C136.369,519.289 140.036,518.985 142.361,519.213C144.576,519.431 147.058,518.908 148.99,520.013C151.038,521.185 152.747,524.18 154.648,526.243C156.896,528.681 159.506,532.577 162.478,534.644C165.426,536.694 169.651,538.645 172.48,538.645C175.159,538.645 178.157,536.616 179.452,534.644C180.748,532.672 178.979,529.108 180.252,526.814C181.606,524.375 190.32,521 188.541,519.381C198.757,521.585 209.347,523.718 220.262,525.777L206.138,564.145L180.576,604.33L170.307,625.204L169.972,630.115L167.07,639.827L173.656,641.613L186.269,642.059L204.799,644.18L215.515,639.715C215.515,639.715 219.757,631.343 220.203,627.548C220.65,623.753 226.901,609.576 226.901,609.576L225.673,595.735L214.845,585.8L213.059,572.852L209.264,566.936L218.752,544.834L226.343,547.736L236.612,550.75L247.663,546.397L259.272,548.183L260.5,555.773L249.672,561.243L242.417,564.145L229.915,560.685L230.919,567.159L245.989,577.54L266.528,568.498L286.397,573.521L303.029,585.13L319.549,602.432L326.805,614.823L328.591,632.906L333.168,639.938L345.67,642.617L365.539,643.734L382.618,646.859L500.828,644.515L492.791,636.478L470.355,630.562L460.978,631.343L447.025,632.125L435.974,625.315L427.602,628.887L413.314,631.901L405.501,635.697L391.436,631.12L386.971,621.967L393.334,609.8L404.05,609.688L422.579,611.139L428.83,608.46L421.128,593.949L419.119,585.242L428.272,588.702L440.328,592.498L448.141,598.191L453.053,610.581L467.787,611.251L471.136,601.204L477.61,591.047L487.322,596.293L495.694,604.665L494.019,612.702L493.908,622.636L501.052,623.529L510.093,612.59L518.8,611.139L526.614,615.716L531.749,624.757L543.469,614.265L556.753,616.944L562.78,622.078L569.366,627.994L575.84,635.808L588.119,636.59L604.305,636.478L619.709,636.813L633.662,631.678L645.048,634.469L653.978,643.064L654.09,651.436L642.146,656.794L651.076,661.594L715.483,671.751L776.096,669.296L804.114,661.705L796.523,655.566L792.839,642.617L785.361,631.79L775.649,621.632L765.603,606.339L763.204,597.487L769.513,595.553ZM679.909,569.355L541.102,562.249L498.328,558.203C617.883,565.424 734.781,564.649 812.518,553.654C777.335,560.132 741.231,564.349 679.909,562.835L679.909,569.355ZM859.909,544.293C864.112,543.353 855.122,545.606 858.928,544.575C861.668,543.833 864.119,542.794 866.018,541.557L872.127,551.599L880.789,560.886L887.843,565.262L888.915,576.513L889.361,583.568L878.11,572.048L870.251,561.69L865.34,552.045L865.142,562.295L865.999,570.153L867.142,583.727L867.213,587.227L860.141,582.226L854.497,578.797L852.568,567.938L859.909,565.835L859.909,544.293ZM843.952,572.741L845.567,579.083L855.64,585.155L858.855,594.8L861.141,602.587L863.427,605.516L862.284,610.231L854.283,604.516L852.497,610.088L853.926,617.518C853.926,617.518 849.282,610.588 848.067,609.159C846.853,607.73 838.28,599.801 838.28,599.801L834.994,589.299L832.422,582.012L824.644,578.658L843.952,572.741ZM824.633,578.662L821.278,588.37L821.992,602.087L828.85,611.588L824.278,619.732L818.563,617.661L810.99,603.873L805.489,592.157L799.927,586.233L824.633,578.662ZM706.979,423.738C717.34,380.181 724.756,331.655 727.024,310.047C727.401,306.447 726.56,302.45 724.979,298.445C728.501,296.5 726.755,290.565 727.471,286.596C728.191,282.596 729.984,278.488 729.284,274.457C728.494,269.899 724.401,263.317 722.727,259.248C721.478,256.212 721.076,252.758 719.238,250.039C716.959,246.667 711.727,238.504 709.053,239.016C706.378,239.527 704.628,248.228 703.192,253.108C701.332,259.434 700.681,270.689 697.89,276.968C695.462,282.432 688.704,286.921 686.449,290.782C684.838,293.539 682.984,297.851 684.356,300.13C684.746,300.778 685.447,301.42 686.337,302.003C680.875,302.627 673.921,292.485 669.537,290.931C666.246,289.765 661.333,294.01 659.072,291.35C656.165,287.931 657.326,275.589 652.095,270.42C646.165,264.56 630.863,259.467 623.491,256.188C618.451,253.946 609.189,254.374 607.864,250.746C606.538,247.118 611.407,238.791 615.538,234.421C620.352,229.328 631.049,219.863 636.747,220.189C642.444,220.514 647.117,229.97 649.723,236.375C652.723,243.746 651.072,258.025 654.746,264.42C658.052,270.175 665.885,277.164 671.769,274.746C677.653,272.327 688.978,258.56 690.048,249.909C691.117,241.258 683.336,231.238 678.187,222.84C672.955,214.305 660.909,205.306 658.653,198.701C656.864,193.462 659.421,183.306 664.653,183.213C669.885,183.12 683.026,191.278 690.048,198.143C697.327,205.259 704.303,220.98 708.326,225.91C709.619,227.494 713.015,226.048 714.187,227.724C717.861,232.979 726.627,246.803 730.372,257.444C734.465,269.071 731.419,292.141 738.744,297.489C746.07,302.838 768.557,296.908 774.325,289.536C780.092,282.164 774.464,262.839 773.348,253.258C772.501,245.985 768.232,237.63 767.627,232.049C767.18,227.921 767.976,222.817 769.72,219.77C771.426,216.791 778.608,217.165 778.092,213.77C777.534,210.096 769.976,203.027 766.371,197.724C762.882,192.591 757.069,186.236 756.465,181.957C755.918,178.086 762.959,175.954 762.744,172.051C762.488,167.423 757.953,159.632 754.93,154.19C752.01,148.934 742.046,136.33 744.605,139.4C747.163,142.47 762.837,161.655 770.278,172.609C777.33,182.988 787.51,200.468 789.255,205.12C790.387,208.14 781.34,197.345 780.743,200.515C780.069,204.096 783.208,218.328 785.208,226.607C787.146,234.628 791.888,241.981 792.743,250.188C793.673,259.118 788.603,276.118 790.789,280.187C792.975,284.257 801.905,276.095 805.859,274.606C808.753,273.517 813.928,273.304 814.51,271.257C815.091,269.211 811.002,265.341 809.347,262.327C807.394,258.769 804.748,254.161 802.789,249.909C799.929,243.7 792.262,226.355 792.185,225.073C792.108,223.79 800.172,238.417 802.327,242.215C803.362,244.04 804.113,246.477 805.113,247.859C805.927,248.982 806.941,250.524 808.328,250.502C808.708,250.496 809.286,250.446 809.929,250.34C809.952,250.873 809.967,251.407 809.975,251.942C832.219,294.66 851.658,343.762 858.336,421.906L794.838,356.314L706.979,423.738ZM858.604,425.142C858.717,426.546 858.825,427.958 858.929,429.38C863.403,435.516 866.811,443.326 863.254,462.08C865.832,463.946 866.903,466.972 867.005,470.742L867.012,470.812C866.48,470.506 865.929,470.21 865.358,469.926C866.904,484.631 859.909,487.835 859.909,488.835L858.604,425.142ZM144.752,174.525C149.068,169.01 153.674,163.151 159.53,148.631C169.307,138.744 179.27,129.416 189.361,120.473C189.746,121.062 190.199,121.599 190.668,122.052C191.764,123.112 194.026,123.219 194.883,124.267C195.74,125.315 195.217,127.91 195.812,128.339C196.407,128.768 197.762,127.578 198.455,126.839C199.884,125.315 203.242,121.302 204.385,119.195C205.193,117.704 204.312,115.562 205.313,114.194C206.516,112.551 209.79,110.765 211.6,109.336C213.141,108.119 214.789,107.015 216.172,105.621C217.756,104.026 220.816,101.013 221.102,99.763C221.37,98.59 218.868,98.816 217.887,98.12C217.576,97.9 217.259,97.524 216.93,97.089L217.129,96.926C236.337,77.884 256.309,63.253 276.844,51.827C280.856,50.405 285.04,48.783 288.5,47.427C298.201,43.624 311.736,36.685 322.151,32.522C331.606,28.742 343.898,24.616 350.99,22.449C355.461,21.083 360.67,19.913 364.707,19.52C368.196,19.18 373.518,19.293 375.208,20.091C376.484,20.693 373.456,24.103 374.851,24.306C377.554,24.699 386.27,24.02 391.425,22.449C396.581,20.877 404.416,14.793 405.785,14.876C406.367,14.911 405.842,16.021 404.835,17.436C405.777,17.28 406.765,17.254 407.684,17.011C409.599,16.506 412.409,15.659 414.714,14.897C417.003,14.14 419.353,13.182 421.515,12.439C423.56,11.736 425.545,10.733 427.687,10.439C429.84,10.144 433.488,10.029 434.431,10.667C435.374,11.306 432.253,13.653 433.345,14.268C434.565,14.954 439.127,14.611 441.747,14.782C444.186,14.942 446.622,15.158 449.062,15.297C451.567,15.44 455.178,15.906 456.778,15.64C457.668,15.491 459.035,14.363 458.664,13.697C458.292,13.03 455.178,12.439 454.549,11.639C453.98,10.914 454.165,9.462 454.892,8.896C456.016,8.019 460.874,7.219 461.293,6.381C461.712,5.543 457.645,4.609 457.406,3.866C457.168,3.123 458.833,2.09 459.864,1.923C461.807,1.609 466.217,1.885 469.066,1.98C471.699,2.068 474.781,2.209 476.952,2.495C478.698,2.724 480.508,2.935 482.096,3.695C483.887,4.552 485.868,7.305 487.697,7.638C489.526,7.972 491.583,5.781 493.069,5.695C494.341,5.622 497.213,6.143 496.613,7.124C496.013,8.105 491.555,10.791 489.469,11.582C487.792,12.217 485.611,12.268 484.096,11.868C482.619,11.477 481.902,9.339 480.382,9.181C478.819,9.02 476.551,10.158 474.724,10.896C471.399,12.239 464.76,15.983 460.436,17.24C456.684,18.331 451.263,17.973 448.777,18.44C447.587,18.663 446.138,20.202 445.519,20.04C444.9,19.878 445.805,17.897 445.062,17.469C444.319,17.04 442.393,17.398 441.061,17.469C439.451,17.554 437.245,17.542 435.403,17.983C433.374,18.469 430.92,19.276 428.888,20.383C426.773,21.536 425.074,23.932 422.715,24.898C420.086,25.975 415.028,25.918 413.114,26.841C411.893,27.43 411.433,29.103 411.228,30.442C410.951,32.242 410.818,35.624 411.456,37.643C412.068,39.58 413.285,42.615 415.057,42.558C416.829,42.501 416.275,40.343 417.057,39.358C418.448,37.605 420.771,33.913 423.401,32.042C426.402,29.909 431.755,27.765 435.06,26.556C437.678,25.598 442.566,24.232 443.233,24.784C443.9,25.336 440.768,28.495 439.061,29.871C437.003,31.528 433.427,32.831 430.888,34.728C428.288,36.672 425.525,39.663 423.458,41.53C421.816,43.013 420.178,44.503 418.486,45.93C416.419,47.673 413.237,50.626 411.056,51.988C409.348,53.055 407.313,53.855 405.398,54.103C403.484,54.351 401.226,53.189 399.569,53.474C398.013,53.743 396.578,54.71 395.454,55.818C394.187,57.065 393.154,59.264 391.967,60.961C390.129,63.59 386.328,68.963 384.423,71.592C383.162,73.332 381.232,76.649 380.537,76.735C379.842,76.821 380.699,73.586 380.251,72.106C379.746,70.439 378.394,68.324 377.508,66.734C376.713,65.306 374.787,64.188 374.936,62.561C375.089,60.895 378.175,58.456 378.422,56.732C378.656,55.103 377.924,52.892 376.422,52.217C374.917,51.541 370.631,51.56 369.392,52.674C368.154,53.789 370.269,57.475 368.992,58.904C367.716,60.333 363.677,60.695 361.734,61.247C360.289,61.658 358.667,61.676 357.333,62.219C356.017,62.755 354.825,63.595 353.733,64.505C351.332,66.505 343.379,74.373 342.931,74.221C342.483,74.068 349.789,65.981 351.047,63.59C351.63,62.481 351.465,60.643 350.475,59.875C349.418,59.056 344.922,59.447 344.703,58.675C344.484,57.904 347.656,55.856 349.161,55.246C350.575,54.673 352.318,55.588 353.733,55.017C355.457,54.322 357.598,52.413 359.505,51.074C361.582,49.617 363.982,47.159 366.192,46.273C368.232,45.456 370.605,45.351 372.764,45.759C374.984,46.178 377.394,48.073 379.508,48.788C381.427,49.436 383.469,49.634 385.452,50.045C387.843,50.541 391.024,51.884 393.853,51.76C396.682,51.636 400.616,50.293 402.426,49.302C403.645,48.635 404.712,47.159 404.712,45.816C404.712,44.473 403.788,42.267 402.426,41.244C400.855,40.063 397.425,38.396 395.282,38.729C393.139,39.062 391.625,41.956 389.567,43.244C387.3,44.663 383.48,46.911 381.68,47.245C380.521,47.459 378.708,45.806 378.765,45.244C378.822,44.682 380.938,44.331 382.023,43.873C383.557,43.225 386.767,42.196 387.967,41.358C388.735,40.821 389.843,39.224 389.224,38.843C388.605,38.462 384.709,39.739 384.252,39.072C383.795,38.405 386.929,34.871 386.481,34.843C386.033,34.814 383.031,37.363 381.566,38.901C380.023,40.52 378.441,43.73 377.222,44.559C376.381,45.13 374.101,44.878 374.25,43.873C374.403,42.844 376.589,40.008 378.137,38.386C380.118,36.31 384.157,33.281 386.138,31.414C387.531,30.101 388.581,28.443 390.024,27.184C390.109,27.111 390.195,27.037 390.282,26.964C389.611,27.11 388.941,27.226 388.282,27.307C377.911,28.581 350.419,26.83 337.417,30.593C326.753,33.679 316.532,47.036 310.269,49.882C307.033,51.352 302.59,47.572 299.839,47.667C297.613,47.744 295.767,50.132 293.767,50.453C291.795,50.77 289.694,48.86 287.837,49.596C285.825,50.394 283.605,53.22 281.693,55.24C279.574,57.478 274.764,61.788 275.121,63.027C275.478,64.265 281.09,63.624 283.837,62.669C286.611,61.705 290.195,57.954 291.766,57.24C292.339,56.98 293.664,57.896 293.267,58.383C288.206,64.586 263.512,89.841 261.404,94.46C259.297,99.08 274.542,89.542 280.622,86.102C288.766,81.494 302.089,72.004 310.269,66.813C316.676,62.747 324.748,57.8 329.701,54.954C333.035,53.039 337.345,49.941 339.988,49.739C342.268,49.564 345.585,52.239 345.561,53.739C345.537,55.24 342.094,57.577 339.846,58.74C336.738,60.348 331.107,61.539 326.915,63.384C321.855,65.61 315.023,68.706 309.484,72.1C302.816,76.184 292.909,83.006 286.908,87.888C281.984,91.894 277.443,97.77 273.478,101.39C270.223,104.361 266.803,107.187 263.119,109.606C258.404,112.701 250.164,116.797 245.187,119.964C241.044,122.601 235.222,126.12 233.257,128.609C231.958,130.254 231.935,134.3 233.4,134.895C234.864,135.491 239.37,133.585 242.044,132.181C245.807,130.204 252.581,124.894 255.975,123.036C257.944,121.959 261.964,119.81 262.404,121.036C262.845,122.262 260.633,127.699 258.618,130.395C255.939,133.979 248.668,139.205 246.33,142.54C244.79,144.737 242.486,149.151 244.593,150.402C246.699,151.653 254.176,150.096 258.97,150.045C264.536,149.986 272.946,149.926 277.991,150.045C281.748,150.134 285.497,150.459 289.243,150.76C294.631,151.191 305.406,151.593 310.318,152.635C313.404,153.29 316.39,156.147 318.712,157.011C320.46,157.66 324.946,156.085 324.248,157.814C321.063,165.717 306.601,188.306 299.602,204.429C291.163,223.867 281.436,250.808 273.615,274.44C264.045,303.359 249.653,345.94 242.182,377.939C235.634,405.981 230.694,448.604 228.962,464.789C218.633,462.95 208.634,461.083 198.925,459.192C200.799,457.179 198.792,451.064 199.095,447.587C199.461,443.388 199.545,437.932 199.69,434.648C199.789,432.393 200.574,429.984 199.964,427.881C199.354,425.778 196.991,424.175 196.032,422.029C194.394,418.362 192,410.063 190.134,405.878C188.721,402.709 187.338,399.322 184.838,396.916C181.304,393.516 173.047,387.009 168.931,385.475C166.098,384.418 161.44,384.978 160.141,387.707C158.513,391.126 159.071,400.8 159.164,405.986C159.241,410.294 161.349,414.562 160.699,418.822C160.244,421.805 158.157,424.768 156.649,427.879C158.022,420.587 159.931,414.865 159.089,408.781C156.745,391.843 151.174,377.996 145.158,364.577C139.782,352.587 180.467,354.432 185.343,350.736C190.378,346.918 192.57,341.722 192.576,335.466C192.582,329.71 209.542,311.692 217.491,305.014C226.111,297.773 229.07,288.6 223.653,276.617C217.418,262.824 238.832,259.251 241.692,254.113C251.236,236.962 244.459,222.677 239.638,224.822C228.243,229.893 217.346,233.409 209.008,228.93C203.857,228.108 224.998,218.763 217.491,207.409C213.155,200.851 211.598,185.396 209.543,185.352C207.093,185.299 200.589,193.267 195.702,194.46C188.864,196.13 177.005,199.814 175.431,203.122C173.626,206.914 171.584,211.169 168.197,212.678C157.896,217.268 148.326,220.027 140.693,217.946L140.529,218.241C140.617,217.521 140.754,216.817 141.053,216.174C142.449,213.179 146.151,207.095 147.974,204.565C149.022,203.111 150.494,201.976 151.993,200.993C153.667,199.896 156.407,199.543 158.02,197.979C159.825,196.231 162.095,192.398 162.82,190.5C163.288,189.276 163.559,186.035 162.374,186.594C160.755,187.356 153.89,195.282 153.109,195.077C152.327,194.872 156.29,188.566 157.685,185.366C159.047,182.243 161.239,178.761 161.481,175.878C161.708,173.168 160.364,168.79 159.137,168.064C157.909,167.338 155.826,170.429 154.113,171.524C152.048,172.845 148.904,175.989 146.746,175.989C146.057,175.989 145.39,175.343 144.752,174.525ZM157.071,450.534L156.21,450.345C155.683,447.006 155.444,443.948 155.407,441.12C155.821,444.399 156.411,447.468 156.652,449.101C156.719,449.552 156.842,450.097 157.071,450.534ZM136.524,225.606C131.664,234.72 127.827,242.618 124.797,249.559C124.624,249.638 124.455,249.719 124.291,249.802C124.72,248.412 125.068,246.705 125.538,245.42C126.393,243.076 127.21,240.355 128.328,237.941C129.612,235.169 131.361,231.355 133.24,228.788C134.101,227.61 135.336,226.589 136.524,225.606ZM120.842,252.556C120.252,253.365 119.884,254.244 119.707,255.185C114.759,255.651 112.837,258.351 113.01,262.596C107.671,263.882 105.037,266.561 103.722,269.919C103.643,267.206 102.442,264.843 100.412,262.74L100.161,262.957C103.439,254.557 107.029,245.993 110.964,237.251C113.093,235.947 114.037,232.978 115.938,231.243C118.059,229.309 121.724,225.681 122.97,225.997C124.217,226.313 123.882,230.871 123.417,233.141C122.952,235.411 120.755,237.272 120.18,239.615C119.435,242.648 118.449,249.271 118.952,251.336C119.124,252.042 119.94,252.45 120.842,252.556ZM352.91,115.557C356.925,112.353 361.586,109.444 366.212,107.707C375.626,104.172 390.737,106.015 401.932,101.456C413.262,96.842 425.727,85.345 434.192,80.024C440.202,76.246 452.238,72.247 452.722,69.531C453.206,66.815 441.132,65.196 437.094,63.726C434.242,62.688 431.52,60.406 428.499,60.713C424.276,61.14 416.481,65.866 411.755,66.294C407.774,66.654 399.849,64.75 400.146,63.28C400.444,61.81 408.749,58.322 413.541,57.475C421.653,56.043 437.504,53.066 448.815,54.685C460.126,56.303 476.2,62.499 481.41,67.187C485.296,70.684 475.656,80.012 480.07,82.814C484.554,85.661 502.529,83.554 508.311,84.265C510.64,84.552 516.469,86.117 514.762,87.081C513.056,88.046 498.432,86.906 498.074,90.053C497.716,93.2 509.04,103.343 512.614,105.964C514.47,107.326 517.513,104.974 519.518,105.781C521.522,106.589 522.575,109.6 524.638,110.811C530.056,113.988 547.069,120.94 552.026,124.847C554.565,126.849 552.41,132.272 554.38,134.257C556.35,136.242 562.06,135.299 563.846,136.758C565.491,138.102 563.736,141.375 565.096,143.009C569.085,147.801 592.645,164.128 587.778,165.512C582.911,166.896 547.712,154.037 535.895,151.314C529.677,149.881 521.86,147.34 516.874,149.17C511.888,151.001 503.681,157.096 505.979,162.297C509.432,170.111 537.71,185.947 537.591,196.053C537.472,206.159 507.348,218.08 505.265,222.932C503.181,227.784 518.515,224.165 525.089,225.165C532.233,226.251 542.424,225.72 548.129,229.451C553.834,233.182 555.018,243.14 559.321,247.552C563.242,251.573 569.385,253.226 573.943,255.924C578.227,258.459 587.99,260.686 586.669,263.738C585.348,266.789 564.158,269.207 566.018,274.23C567.879,279.253 594.713,281.809 597.831,293.876C601.273,307.197 587.975,333.762 586.669,354.154C585.162,377.688 589.18,411.046 588.79,435.082C588.446,456.229 569.218,487.528 584.325,498.374C586.67,500.057 590.117,501.87 594.339,503.637C583.729,503.11 573.12,502.508 562.57,501.836C555.707,501.399 548.937,500.953 542.259,500.501C549.884,500.422 556.194,500.136 560.664,499.623C572.798,498.231 570.659,471.737 562.115,463.01C548.199,448.796 494.656,424.481 477.168,414.341C470.422,410.43 459.085,408.444 457.187,402.174C455.289,395.905 469.514,384.863 465.782,376.724C460.74,365.729 426.769,348.129 426.937,336.204C427.104,324.278 466.973,318.102 466.787,305.172C466.774,304.291 466.624,303.362 466.353,302.392C470.605,303.163 476.3,303.62 480.824,304.561C486.815,305.807 492.703,308.037 498.796,309.026C505.103,310.049 513.177,310.347 518.665,310.7C523.012,310.98 528.302,311.891 531.725,311.147C534.64,310.513 537.883,308.58 539.204,306.235C540.525,303.891 541.493,298.998 539.651,297.082C537.809,295.166 531.933,295.746 528.153,294.738C523.409,293.473 516.969,290.761 511.186,289.492C504.321,287.985 494.033,286.608 486.964,285.696C480.923,284.918 472.992,284.487 468.769,284.022C466.373,283.758 463.951,282.385 461.625,282.906C459.676,283.342 456.812,284.459 455.432,286.123C445.784,275.652 432.472,264.819 425.82,258.624C418.503,251.809 409.895,241.787 400.146,243.108C390.398,244.429 380.207,262.695 367.329,266.55C351.478,271.294 319.739,270.029 305.042,271.573C296.342,272.487 277.066,284.311 279.145,275.814C279.331,275.054 279.572,274.201 279.865,273.264C280.618,274.742 284,274.617 285.876,274.337C291.174,273.549 305.358,268.771 311.505,267.908C315.242,267.383 319.229,270.244 322.757,269.158C326.284,268.071 330.734,264.708 332.669,261.389C334.604,258.07 333.463,253.231 334.365,249.244C335.363,244.839 338.354,238.811 338.652,234.956C338.888,231.903 338.503,227.306 336.151,226.116C333.8,224.925 328.077,229.485 324.543,227.812C320.926,226.101 316.565,219.254 314.452,215.846C312.894,213.333 312.963,209.744 311.862,207.363C311.499,206.577 311.073,205.484 310.601,204.453C320.053,184.849 328.948,166.675 332.948,157.492C333.233,156.838 333.495,156.176 333.738,155.508C334.314,156.843 335.247,158.105 336.461,158.712C338.991,159.977 344.796,160.87 348.293,160.833C350.407,160.81 352.55,160.282 354.574,159.587C353.662,160.831 352.961,163.035 354.1,163.916C355.905,165.312 361.914,166.409 365.597,167.711C369.161,168.971 372.555,170.8 376.202,171.73C379.848,172.66 384.388,172.344 387.476,173.293C390.136,174.11 392.076,176.592 394.732,177.423C398.062,178.465 405.466,180.176 407.457,179.544C409.353,178.941 405.801,174.967 406.675,173.628C407.55,172.288 411.829,173.032 412.703,171.507C413.497,170.121 413.664,166.736 412.362,164.959C414.905,164.329 417.417,163.473 419.398,162.842C422.982,161.701 425.99,159.195 429.444,157.707C432.942,156.2 436.559,154.404 440.383,153.8C444.272,153.186 449.183,155.438 452.774,154.024C456.364,152.61 460.513,148.889 461.927,145.317C463.341,141.745 460.606,136.275 461.257,132.592C461.863,129.167 466.671,125.913 465.834,123.215C464.997,120.518 459.585,118.447 456.234,116.406C452.569,114.174 448.454,110.61 443.844,109.82C439.063,109.002 433.005,111.337 427.547,111.495C421.761,111.662 415.271,110.91 409.129,110.825C402.375,110.732 393.092,110.732 387.027,110.937C382.253,111.098 376.776,111.997 372.739,112.053C369.418,112.099 366.07,110.661 362.804,111.271C359.638,111.863 355.381,114.098 352.91,115.557ZM337.166,143.361C337.446,142.406 337.747,141.459 338.083,140.525C340.166,134.72 341.259,127.554 345.45,122.665C346.857,121.024 348.569,119.291 350.493,117.588C349.858,118.334 349.277,119.145 348.628,119.867C347.289,121.355 345.315,122.824 344.386,124.778C342.954,127.792 341.577,134.229 340.033,137.95C339.286,139.751 338.188,141.618 337.166,143.361ZM395.422,158.617C389.796,157.951 382.506,157.921 377.318,157.442C372.157,156.966 365.522,155.482 361.662,155.625C362.704,154.843 363.783,154.163 365.037,153.912C368.758,153.168 374.934,153.373 379.771,154.024C384.608,154.675 389.929,155.884 394.059,157.819C394.535,158.042 394.987,158.312 395.422,158.617ZM120.486,501.807L88.745,492.686L88.835,497.955L105.444,502.509L112.142,509.385L110.624,521.887L99.193,521.619L84.102,520.19L77.672,515.279L76.422,511.439L77.226,505.188L79.458,496.615L80.262,489.203L64.813,479.38L64.908,488.007L64.462,500.241L61.872,493.097L60.443,485.596L60.086,477.738L52.748,472.225C52.869,471.72 52.979,471.219 53.077,470.719L53.688,471.317C67.687,482.252 90.751,492.464 120.486,501.807ZM52.901,470.546C52.076,470.203 51.54,469.689 51.31,468.99L52.901,470.546ZM66.261,403.971C66.692,403.593 67.132,403.224 67.579,402.864C67.941,399.1 68.336,395.32 68.767,391.521L68.978,391.69C78.752,378.323 83.821,375.77 76.747,399.727C74.85,406.154 69.366,413.466 70.324,420.033L75.146,423.873C78.423,405.088 92.722,409.513 89.613,431.999L108.277,437.268C105.647,386.898 123.731,396.442 136.496,445.573L143.761,447.569C132.196,444.95 120.994,442.299 110.057,439.626C82.47,432.884 57.66,419.757 66.74,404.166L66.261,403.971ZM233.073,465.516C237.436,447.114 243.067,376.752 255.145,364.557C267.417,352.166 290.213,381.447 306.493,392.016C322.827,402.621 341.208,412.834 353.152,428.183C365.096,443.531 358.849,477.46 378.156,484.107C381.446,485.24 385.484,486.329 390.125,487.37C329.288,480.803 278.05,473.424 233.073,465.516ZM271.737,378.548C268.83,378.49 262.58,381.513 259.702,383.78C257.117,385.817 255.274,388.961 254.47,392.152C253.569,395.728 252.261,402.966 254.296,405.233C256.33,407.501 263.001,407.639 266.679,405.756C270.371,403.867 274.702,397.501 276.446,393.896C277.868,390.958 277.929,386.687 277.144,384.129C276.384,381.653 274.327,378.6 271.737,378.548ZM871.641,514.265C876.292,518.935 880.294,523.666 883.675,528.433L881.771,527.666L871.412,521.862L870.922,522.274L871.417,514.733L871.641,514.265ZM889.536,537.862C892.086,542.621 894.042,547.399 895.429,552.175L895.077,552.045L885.7,549.188L881.057,543.204L878.556,535.346L874.895,528.113L882.575,532.131L888.558,537.489L889.536,537.862ZM787.883,195.572C791.076,201.764 794.092,207.968 796.937,214.185C796.058,213.585 795.287,212.893 794.754,211.996C792.611,208.381 790.365,202.018 787.883,195.572ZM527.012,79.704C526.831,77.123 526.555,70.293 528.384,68.102C530.213,65.912 535.318,65.692 537.986,66.559C540.653,67.426 541.952,71.385 544.387,73.303C546.901,75.284 551.511,76.837 553.074,78.447C554.134,79.539 555.221,82.535 553.759,82.962C551.216,83.705 541.862,82.8 537.814,82.905C535.024,82.977 531.27,84.124 529.47,83.591C528,83.155 527.12,81.233 527.012,79.704ZM527.467,44.708C529.705,44.422 532.83,44.06 534.554,44.708C536.136,45.303 537.888,47.709 537.811,48.594C537.735,49.48 535.413,49.857 534.096,50.023C532.21,50.261 528.658,50.623 526.495,50.023C524.418,49.447 520.961,47.308 521.123,46.423C521.285,45.537 525.294,44.985 527.467,44.708ZM598.254,43.076C599.907,43.04 601.606,43.466 603.082,44.21C604.619,44.984 607.612,46.99 607.472,47.721C607.331,48.453 604.006,48.695 602.241,48.599C600.107,48.483 596.809,47.709 594.67,47.026C592.815,46.434 588.805,45.161 589.403,44.502C590,43.844 595.974,43.125 598.254,43.076ZM588.333,28.674C589.045,28.911 590.491,29.844 589.942,30.247C589.394,30.649 586.687,31.286 585.041,31.088C583.316,30.881 581.377,29.716 579.591,29.003C577.825,28.298 574.318,27.345 574.324,26.809C574.33,26.272 578.286,25.632 579.628,25.784C580.74,25.911 581.308,27.37 582.371,27.723C583.822,28.205 587.071,28.253 588.333,28.674ZM485.237,20.025C485.919,20.327 485.508,21.988 484.798,22.219C483.433,22.664 479.092,22.878 477.044,22.695C475.45,22.552 473.094,21.591 472.508,21.122C472.09,20.786 473.041,20.093 473.533,19.878C474.356,19.519 476.107,18.947 477.446,18.964C479.397,18.988 484.012,19.482 485.237,20.025ZM336.147,41.626C336.984,41.343 338.833,41.159 338.776,41.969C338.719,42.779 337.202,45.347 335.804,46.484C333.918,48.017 330.293,49.704 327.46,51.17C324.478,52.713 321.068,54.8 317.915,55.743C314.902,56.644 311.602,56.098 308.542,56.828C305.39,57.581 299.874,60.181 298.998,60.258C298.122,60.334 301.782,58.16 303.284,57.286C305.38,56.066 308.923,54.39 311.571,52.942C314.132,51.542 316.522,49.819 319.173,48.599C323.269,46.713 332.88,42.731 336.147,41.626Z" style="fill:#a9b2b5;"/>
    <path d="M679.909,598.835L698.725,604.99C706.556,607.268 717.132,606.89 727.698,605.115C757.076,600.179 817.144,582.03 859.909,565.835L859.909,572.835C809.062,591.328 752.629,606.609 721.187,614.434C718.458,615.113 714.664,615.173 712.909,614.835C710.85,614.439 693.63,612.204 679.909,608.835L679.909,598.835Z" style="fill:#800020;"/>
    <path d="M719.039,461.79C720.291,462.078 721.381,462.056 722.083,461.295C746.095,432.188 770.256,403.16 792.398,373.056C794.63,370.02 801.39,368.398 803.783,371.158C820.671,390.636 839.811,409.047 859.037,427.417L859.909,282.835L712.909,305.835" style="fill:#800020;"/>
    <path d="M679.909,447.835L719.023,461.842L719.039,307.835L859.909,282.835L818.438,268.592L679.909,298.835L679.909,447.835Z" style="fill:#900024;"/>
</svg>
