<?xml version="1.0" encoding="UTF-8" standalone="no"?>
<!DOCTYPE svg PUBLIC "-//W3C//DTD SVG 1.1//EN" "http://www.w3.org/Graphics/SVG/1.1/DTD/svg11.dtd">
<svg width="100%" height="100%" viewBox="0 0 809 789" version="1.1" xmlns="http://www.w3.org/2000/svg" xmlns:xlink="http://www.w3.org/1999/xlink" xml:space="preserve" xmlns:serif="http://www.serif.com/" style="fill-rule:evenodd;clip-rule:evenodd;stroke-linejoin:round;stroke-miterlimit:2;">
    <path d="M521.932,780.289C468.859,777.291 416.363,784.294 381.122,782.767C189.602,774.47 70.614,735.132 41.707,657.242C34.081,636.696 31.486,615.955 29.8,596.784C28.126,577.747 30.595,565.138 34.166,554.24C15.259,679.588 267.113,727.061 481.667,714.441C493.128,712.259 507.536,710.652 529.447,710.514C522.109,731.935 519.29,752.513 519.599,772.507C519.657,776.29 520.964,777.903 521.932,780.289ZM537.011,708.914C538.354,706.018 542.051,702.544 547.069,700.291C556.851,695.9 567.24,691.104 577.889,686.135C574.467,682.964 578.47,679.335 589.065,675.297C620.841,651.66 650.7,622.061 680.794,593.193C679.092,587.807 680.202,583.507 684.858,580.578C710.55,581.288 731.164,579.028 745.989,573.381C733.932,583.699 723.26,594.105 713.053,604.539C712.495,611.126 711.07,616.551 709.158,620.202C681.491,673.034 647.208,705.217 612.058,734.693C612.59,737.845 612.601,741.138 611.462,741.954C604.829,746.708 598.53,751.696 593.471,757.561C583.592,765.729 573.231,773.508 559.056,778.193C556.257,781.446 554.15,784.536 549.831,786.1C540.399,789.517 534.563,788.943 532.556,784.12C532.16,779.449 530.322,776.152 526.626,774.624C525.792,751.41 528.866,728.309 536.32,710.518C536.381,710.519 536.442,710.519 536.503,710.519C536.566,710.1 536.695,709.656 536.887,709.196C536.927,709.102 536.968,709.008 537.011,708.914ZM555,723.82L558.522,770.205L591.794,751.564L587.133,712.658C575.332,708.284 561.924,715.116 555,723.82ZM674.798,530.901C667.164,523.89 661.278,515.131 656.819,504.945C658.348,499.162 655.231,494.515 649.616,490.478C650.372,465.993 652.391,446.361 655.212,429.814C662.118,437.099 669.261,446.521 676.644,458.092C676.352,461.799 677.054,465.34 679.62,468.57C674.616,489.347 673.768,510.124 674.798,530.901ZM624.807,563.768C625.97,559.267 626.965,554.695 627.236,549.813L630.761,547.527C635.361,549.484 640.612,551.178 649.288,551.48C655.269,557.598 660.594,564.428 665.052,572.198C651.801,570.043 638.44,567.447 624.807,563.768ZM780.273,473.001C785.142,486.358 793.815,487.98 799.635,499.919L807.387,509.918C796.97,541.997 772.298,558.625 742.186,569.356C742.75,562.996 738.458,557.027 731.148,551.301C728.42,533.988 728.938,517.423 732.815,501.634L737.196,503.396C744.264,510.151 748.881,518.181 752.77,526.59C752.691,535.015 753.517,542.232 755.342,548.117C759.311,548.487 763.28,546.938 767.249,543.878C767.1,536.229 766.525,529.921 765.487,525.066C763.954,522.671 762.083,520.952 759.914,519.827C760.427,515.595 761.656,511.803 763.82,508.587C764.113,506.73 763.305,504.744 761.438,502.634C762.035,499.69 761.35,497.306 759.914,495.252C770.008,502.333 777.012,510.85 783.537,519.589C786.981,522.088 789.619,522.503 791.539,521.065C794.48,519.612 794.534,517.581 792.396,515.112C792.446,511.32 791.076,508.696 788.967,506.682C788.533,499.202 786.21,492.746 782.728,486.917C783.013,482.347 781.947,477.693 780.273,473.001ZM81.184,290.515C85.002,290.086 89.353,290.659 94.187,292.135C94.991,294.663 96.558,296.497 98.759,297.755C95.838,313.579 91.885,329.16 86.804,344.477C84.699,354.544 80.782,359.111 75.374,359.146C72.633,357.989 69.892,357.415 67.151,357.528C68.739,351.294 71.175,345.387 74.414,339.787C78.318,323.42 80.964,307.01 81.184,290.515ZM102.77,214.349C111.439,213.191 119.745,212.637 127.193,213.511L127.422,216.102C120.712,226.468 117.695,237.801 115.268,249.288C112.203,252.799 110.012,256.611 109.895,261.138C105.955,266.414 104.066,273.031 102.77,280.036C96.158,277.495 88.999,276.228 81.167,276.531C81.895,273.172 83.192,270.109 86.463,268.072C90.416,255.196 94.715,242.492 99.684,230.123C99.136,224.775 99.761,219.494 102.77,214.349ZM190.014,87.178C200.773,87.74 210.927,87.647 220.162,86.559C219.837,87.843 219.931,89.068 220.495,90.226L176.917,141.758L170.201,144.663C162.712,140.826 153.75,140.008 143.721,141.377C143.145,140.565 143.152,139.364 143.34,138.043C146.025,136.963 148.37,135.488 150.293,133.519C161.599,117.427 174.898,102 190.014,87.178ZM255.327,39.658C265.87,39.924 276.471,40.144 284.951,42.087C266.299,54.423 249.784,66.63 235.323,78.712C231.712,76.987 227.567,77.801 222.94,80.903L199.556,79.093C216.52,65.892 234.678,52.732 255.327,39.658ZM380.544,12.655C385.37,10.669 390.588,8.818 397.499,7.549C406.346,7.353 412.217,6.164 415.407,4.082C417.363,3.566 419.571,3.217 422.113,3.091C429.331,3.239 436.309,3.628 442.421,4.882C432.372,6.382 422.827,8.364 414.34,11.36C410.462,10.964 406.579,10.575 402.109,10.902C396.275,12.438 388.785,12.81 380.544,12.655ZM266.685,33.051C286.629,23.97 308.191,16.035 332.036,9.717L359.287,17.246C338.026,21.765 319.035,28.729 300.946,36.663L269.123,35.337L266.685,33.051ZM353.673,7.433C368.682,6.218 382.159,4.269 391.393,0.289C398.435,0.472 406.018,0.492 413.873,0.432C411.05,2.337 407.49,4.02 401.919,4.289C390.98,4.819 371.377,7.044 369.58,8.623C367.709,10.268 364.261,11.138 361.245,9.528C358.854,8.252 356.307,7.652 353.673,7.433ZM140.072,145.88C148.747,144.579 157.421,144.689 166.095,147.861C165.251,150.098 164.959,152.381 165.333,154.719C161.78,158.17 158.46,161.752 157.256,166.531C153.868,170.696 151.144,175.103 148.874,179.676C143.095,186.314 140.09,193.458 137.672,200.708C135.127,201.003 133.18,202.126 131.956,204.251C124.702,201.171 116.733,199.518 108.562,198.269C108.307,196.799 109.414,196.221 111.801,196.478C119.713,178.832 129.01,161.9 140.072,145.88ZM64.467,368.782C69.063,369.843 73.206,371.61 76.659,374.449C77.611,377.148 77.645,379.847 77.326,382.546C70.264,382.322 64.052,382.834 58.895,384.261C61.414,380.226 63.218,374.975 64.467,368.782ZM517.67,7.766C494.448,6.248 474.509,5.943 455.041,5.813L448.849,1.669C453.727,0.387 459.332,-0.036 465.328,0.002C470.863,1.476 477.504,2.259 484.665,2.717C495.936,3.727 507.208,3.711 518.48,2.384C518.88,4.036 519.6,5.849 520.813,7.908L517.67,7.766ZM524.031,6.301C537.443,10.402 551.047,14.885 564.967,20.001C565.613,21.204 565.897,22.528 565.958,23.926C567.061,24.726 566.838,25.526 566.377,26.326C564.708,26.545 563.486,27.123 562.833,28.155C561.019,28.605 559.148,28.542 557.232,28.079C554.69,25.168 551.583,22.633 547.821,20.535C537.93,16.126 530.365,11.319 524.031,6.301ZM580.218,27.321C590.002,33.666 600.995,39.577 613.319,45.008C616.141,47.042 619.845,48.333 624.597,48.742L626.616,49.694C626.72,52.717 628.954,54.985 631.172,57.777C632.555,59.518 633.443,61.836 635.304,63.525C629.409,60.602 623.827,57.054 618.847,52.302C616.856,51.74 615.148,51.573 613.665,51.723C610.462,50.528 607.826,48.457 605.74,45.535L601.778,45.23C593.512,40.943 585.497,37.156 577.841,34.088C574.195,32.741 570.401,31.837 566.349,31.71L565.435,29.79C570.23,29.848 575.118,29.296 580.218,27.321ZM642.688,67.646C656.078,79.538 670.471,91.086 687.114,101.861C687.979,105.264 689.183,108.668 690.658,112.072C695.374,129.257 699.835,130.893 709.099,163.318C700.051,159.861 678.991,130.895 663.758,115.844C663.589,111.689 663.038,108.136 662.158,105.099C652.941,94.156 647.227,81.233 642.688,67.646ZM698.637,121.22L707.209,132.993L707.781,136.46L713.725,143.242L713.839,147.205C721.239,158.515 728.687,169.791 737.729,179.972C737.501,184.89 738.185,189.634 740.091,194.146C742.012,204.69 743.828,215.395 744.625,227.675C744.769,229.902 742.241,229.602 741.234,227.789C732.511,212.081 725.708,195.695 718.754,179.363C718.628,175.066 718.969,170.629 719.859,166.027C711.474,151.637 704.583,136.626 698.637,121.22ZM748.406,217.843C754.829,229.254 758.271,240.914 760.122,252.706C763.47,257.187 764.982,261.418 762.741,265.137C763.788,272.265 763.997,279.393 763.646,286.521C759.851,279.015 756.821,267.342 754.168,253.611C755.059,247.852 755.12,242.145 753.978,236.513C751.385,235.053 749.871,233.178 748.929,231.083C748.175,225.8 748.144,221.602 748.406,217.843ZM768.477,308.929C770.536,317.356 771.69,325.174 774.954,335.41C774.656,337.524 773.983,338.963 773.049,339.934C773.564,353.984 774.169,367.985 773.002,382.941C772.574,395.844 771.731,408.902 770.287,422.186C769.925,425.515 767.466,425.486 767.096,422.757C765.236,409.026 764.813,394.577 766.001,379.321C765.722,369.808 764.946,359.132 763.905,347.84C764.6,333.977 766.131,321.014 768.477,308.929ZM776.874,410.971C778.977,414.774 779.735,419.008 778.663,423.827C778.743,435.074 785.598,442.093 788.665,455.737C790.459,455.675 792.253,456.18 794.047,457.261C794.193,459.629 793.82,461.672 792.951,463.405L796.999,470.311L798.333,475.407C790.57,469.641 783.028,462.002 775.52,454.07C773.089,450.915 772.155,447.573 771.757,444.163C771.836,439.349 772.196,434.56 773.674,429.872C773.255,422.581 773.07,415.446 776.874,410.971ZM780.597,464.766C788.85,473.732 797.41,481.933 806.935,487.722C808.038,495.158 808.339,501.606 807.792,507.01C806.191,503.632 804.345,500.704 801.981,498.723C800.2,490.641 795.524,485.231 788.789,481.721C785.882,475.902 782.853,471.537 779.692,468.766L780.597,464.766ZM735.116,572.797C730.511,574.5 725.315,575.024 719.757,574.821C723.801,556.635 708.235,553.111 707.612,525.349C712.077,539.08 718.087,550.835 728.27,557.259C731.597,562.874 733.695,567.976 735.116,572.797ZM715.414,575.568C711.21,576.149 706.76,576.158 702.079,575.628C680.832,545.015 676.818,511.077 682.719,475.225L685.231,474.109C689.521,489.723 694.675,501.883 700.393,511.782C700.729,515.721 701.377,519.598 702.347,523.41C703.961,543.477 714.012,558.371 715.414,575.568ZM693.667,575.277C684.21,575.502 675.07,574.457 666.207,572.301C666.696,566.616 665.942,561.242 664.049,556.152C662.26,552.013 659.414,548.931 655.64,546.776C651.574,533.592 650.125,521.063 649.24,508.674C655.509,518.059 662.593,526.849 671.044,534.646C676.986,540.003 681.475,546.652 683.844,555.185C688.695,561.182 692.389,567.693 693.667,575.277ZM572.844,546.839C575.623,541.998 577.446,536.837 578.321,531.361L583.941,530.265C589.893,535.484 601.712,538.797 612.898,542.315C614.026,548.94 616.611,555.137 619.899,561.127C603.904,557.358 588.204,552.641 572.844,546.839ZM507.465,534.663C510.331,527.61 511.934,520.599 511.752,513.648C512.521,508.549 514.018,504.048 516.514,500.372C528.395,494.877 539.737,488.169 550.806,480.845L556.64,483.583C556.329,496.033 559.247,506.981 563.308,517.398C559.602,518.731 557.103,520.165 557.057,521.804C560.84,524.111 564.437,527.392 567.713,532.341C567.867,537.308 566.504,541.138 562.593,543.057C545.301,539.176 523.869,538.175 507.465,534.663ZM483.515,517.917C490.892,516.719 496.2,513.553 499.41,508.392L504.59,507.915C503.285,509.963 502.23,512.051 502.863,514.405C500.437,517.098 499.32,519.955 500.958,523.156C501.368,526.808 500.967,530.364 499.649,533.812L496.791,533.396L483.515,517.917ZM42.261,426.027C44.892,424.624 48.127,424.229 51.672,424.35C46.024,431.742 38.625,437.66 29.116,441.801L28.926,436.924C34.015,433.341 38.493,429.711 42.261,426.027ZM22.242,440.807L22.623,443.236C19.483,445.48 17.827,448.161 18.003,451.38C11.033,454.369 5.214,459.108 0,464.763C1.824,458.629 3.728,452.461 13.05,443.236C14.935,442.803 16.621,442.171 18.051,441.283L22.242,440.807ZM57.154,389.588C91.149,381.902 124.871,391.907 157.926,397.35C232.418,409.616 354.37,443.198 417.113,477.514C448.512,494.687 480.861,510.72 499.436,546.163C480.305,544.116 461.174,541.531 442.042,538.722C422.613,516.621 392.656,500.305 359.068,489.607C284.723,465.926 209.172,443.495 127.826,427.07C105.728,423.214 79.995,416.03 68.055,416.89C51.056,418.114 35.862,421.626 23.435,428.642C32.959,415.624 43.972,402.606 57.154,389.588ZM78.122,423.345C76.559,428.086 74.643,432.374 72.511,436.384C64.471,437.616 62.293,442.609 64.007,450.1C61.477,451.542 59.689,453.119 58.947,454.886C53.053,455.338 49.621,457.197 48.279,460.25C41.968,460.914 36.717,462.584 32.032,464.792C32.219,463.087 31.746,461.129 30.876,459.018C32.749,456.525 34.316,453.91 35.782,451.254C46.322,443.297 55.913,434.296 63.119,422.678C68.022,421.285 73.056,422.052 78.122,423.345ZM27.609,452.889C24.737,456.487 23.014,460.008 22.58,463.443C20.13,466.527 18.156,469.744 17.17,473.235C11.939,476.685 9.143,480.697 8.14,485.123C5.463,481.461 3.315,477.272 1.777,472.473C4.519,470.281 6.55,467.294 7.911,463.557C15.016,461.037 21.561,457.441 27.609,452.889ZM66.813,452.696C65.094,462.922 62.19,473.493 58.52,484.287C51.373,489.303 47.447,496.628 48.347,507.415C37.076,503.513 26.823,498.449 17.828,491.946C17.78,485.707 22.13,481.184 30.211,478.115C31.629,475.3 37.675,471.105 47.547,465.77C47.235,467.838 48.417,468.973 51.357,469.009C53.704,469.038 52.87,459.577 66.813,452.696ZM90.088,425.132C100.208,427.746 110.538,429.466 121.064,430.352C117.449,432.992 115.561,435.815 116.721,438.963C113.673,439.496 112.453,441.351 113.063,444.526C95.69,457.242 86.374,466.936 75.8,477.102C70.659,477.736 66.513,479.86 62.998,482.932C67.446,472.559 70.793,461.706 72.904,450.317C76.912,442.01 82.116,433.642 90.088,425.132ZM124.201,445.562C127.87,459.015 129.566,473.544 130.44,488.521C119.696,496.651 119.007,500.299 130.488,498.523C129.214,501.058 128.633,503.703 129.773,506.619C122.349,507.374 118.877,510.468 117.676,514.906C120.176,519.108 120.163,523.849 119.105,528.813C96.818,527.018 75.302,522.101 55.428,510.525C51.983,505.283 54.412,500.51 63.668,496.284C71.668,490.997 78.576,484.617 84.671,477.424C100.804,468.961 112.787,457.469 124.201,445.562ZM136.285,431.404C152.963,433.511 168.643,437.894 183.492,444.168C182.101,447.793 181.887,451.135 183.035,454.15C165.114,462.848 165.519,468.528 142.419,487.108C141.196,488.091 139.563,489.027 138.876,487.222C133.79,473.88 132.832,456.791 129.579,438.529C132.116,436.214 134.256,433.82 136.285,431.404ZM187.035,457.417L190.369,457.321C193.828,469.962 199.786,480.464 198.799,493.041C190.483,498.836 189.477,502.503 195.132,504.233C194.232,507.503 192.492,510.966 189.941,514.616C182.45,522.012 174.828,529.362 171.08,538.048C155.849,537.048 141.289,534.889 127.455,531.476C122.518,530.258 120.957,527.933 124.216,517.807C126.534,518.538 129.169,517.298 132.122,514.092C135.034,503.488 142.084,493.247 156.554,483.659C167.213,473.22 178.329,466.966 187.035,457.417ZM250.176,460.727C238.273,472.913 222.123,482.287 210.17,493.647C207.696,495.997 206.074,496.294 205.94,492.618C205.449,479.16 202.799,466.616 197.025,455.393C198.077,452.741 198.004,449.891 197.329,446.935C200.165,446.724 204.715,447.449 209.788,448.459C222.553,451.944 235.887,455.921 250.176,460.727ZM197.322,516.352L202.999,518.714C203.386,521.545 203.36,523.846 203.037,525.763C204.566,530.044 205.914,535.007 207.037,540.813C197.127,541.492 187.889,541.429 179.909,539.974C179.869,536.729 181.461,532.539 185.282,527.058C190.896,524.411 195.06,520.929 197.322,516.352ZM211.343,540.851C213.301,537.213 212.801,533.883 210.695,530.754C210.714,527.586 210.498,524.231 210.009,520.657C211.841,514.652 210.68,511.153 208.142,508.807C211.884,505.772 215.005,502.152 217.02,497.491C234.582,487.578 246.832,476.31 256.95,463.543C260.247,464.064 263.445,465.016 266.437,466.858C269.731,481.187 273.634,494.81 278.858,506.902C274.253,514.741 268.846,521.836 262.818,528.353C259.197,531.764 256.009,535.47 254.321,540.203L211.343,540.851ZM285.452,520.677C286.211,519.384 287.99,518.716 288.738,520.296C292.331,527.883 294.307,534.568 294.405,540.204C286.735,540.247 278.969,540.097 270.973,539.49C270.71,536.427 271.972,533.209 274.879,529.821C279.71,527.196 283.384,524.196 285.452,520.677ZM275.406,467.993C289.466,471.184 303.726,474.924 318.193,479.233C306.34,487.303 295.476,495.89 285.96,505.18C283.617,492.504 279.882,480.16 275.406,467.993ZM326.367,483.545C340.273,488.63 354.017,493.716 367.668,498.801C368.253,505.527 369.762,511.113 372.505,515.172C366.657,521.618 362.69,528.193 360.524,534.893C341.427,537.416 321.827,538.875 301.587,538.986C302.021,534.717 300.711,530.551 298.982,526.409C299.865,523.136 298.855,520.147 297.196,517.256C298.076,515.266 298.107,512.597 297.717,509.591C308.455,502.66 318.042,494.032 326.367,483.545ZM393.731,507.478C406.223,513.304 418.312,520.474 429.89,529.348C411.219,532.822 392.5,534.676 373.728,534.796C375.406,529.889 378.49,525.493 383.52,521.804C383.372,518.529 383.732,515.655 385.006,513.498C388.408,512.232 391.144,509.966 393.731,507.478ZM630.824,542.141C632.514,536.486 627.11,532.89 618.717,530.162C613.977,518.297 611.884,503.073 611.371,485.843C612.183,483.714 613.902,482.018 616.584,480.783C627.088,487.789 636.461,495.447 642.736,504.893C642.685,508.764 642.391,512.554 641.852,516.263C642.181,519.82 643.282,522.836 645.236,525.255C645.738,531.81 646.388,538.366 648.772,544.921L645.821,547.92C641.07,546.356 636.347,545.006 631.678,544.092L630.824,542.141ZM610.503,537.19C602.146,534.009 593.789,530.768 585.432,526.255C584.985,519.81 578.668,517.876 569.887,517.834C565.861,506.492 563.282,495.101 562.305,483.658C565.644,481.46 568.376,479.212 570.496,476.914C578.948,476.5 587.521,476.692 596.177,477.295C597.839,480.858 600.484,482.977 603.873,484C607.749,502.17 607.452,520.925 612.979,533.265C611.527,534.333 610.634,535.615 610.503,537.19ZM725.958,550.651C721.115,545.226 717.326,537.737 715.023,527.333C715.331,524.232 714.677,521.9 713.461,520.018C713.827,514.184 712.067,510.357 708.774,507.978C709.037,491.576 710.921,475.28 717.385,459.285C722.371,468.003 726.104,478.633 729.159,490.299C728.601,494.109 728.611,497.399 729.273,500.091C723.081,517.732 723.604,534.333 725.958,550.651ZM750.867,445.469C751.136,455.546 752.169,464.73 754.725,472.14C756.449,476.968 756.525,481.918 754.82,486.999C753.013,489.282 752.071,491.511 752.296,493.667C757.991,500.463 758.081,509.572 755.772,519.671C751.397,512.363 746.241,506.007 740.722,500.097C741.127,497.417 740.714,494.854 739.341,492.429C739.731,489.777 739.348,486.794 737.96,483.38C738.543,467.654 742.791,454.972 750.867,445.469ZM767.107,453.994C770.518,460.126 773.412,469.072 775.68,481.427C779.259,492.258 783.928,502.252 789.159,511.813C791.011,515.199 788.255,517.584 786.539,515.147C780.984,507.259 774.837,499.49 768.012,491.857C767.275,486.597 766.083,482.322 764.583,478.712C766.309,471.493 767.033,463.119 767.107,453.994ZM697.004,398.44L700.814,400.762C703.916,413.15 706.404,426.356 708.077,440.649C709.157,444.848 710.827,448.456 713.018,451.544C708.196,468.526 705.14,485.442 704.446,502.266C703.518,503.982 702.389,504.759 700.993,504.29C695.881,492.96 692.194,481.706 690.098,470.535L687.598,453.984C691.868,436.929 694.956,418.353 697.004,398.44ZM729.812,386.378C730.253,382.884 733.467,383.107 734.67,387.045C738.734,400.351 741.861,413.999 744.528,427.813C746.424,430.855 747.205,435.011 747.195,439.958C738.634,454.576 735.663,469.093 734.098,483.584L731.622,481.793C729.909,474.512 727.429,467.179 723.811,459.771C724.484,456.969 723.709,454.444 721.715,452.15C723.62,446.821 722.798,441.589 721.144,436.386C721.976,419.646 727.581,404.039 729.812,386.378ZM759.361,390.572C760.658,405.441 762.585,419.05 765,431.684C764.715,442.877 762.098,453.321 762.371,465.708C762.478,470.56 758.889,470.589 758.332,465.289C757.536,457.709 756.678,449.068 755.78,439.761C756.691,434.055 756.177,427.992 755.056,421.777C758.076,413.9 759.086,402.822 759.361,390.572ZM746.457,419.275C744.589,408.636 742.489,397.94 737.656,386.584C738.496,379.808 739.292,372.98 737.77,363.533C739.218,360.524 738.675,356.878 737.58,353.055C739.962,340.412 741.509,327.141 742.266,313.278C744.884,330.497 748.424,347.507 753.277,364.219L756.668,367.648C757.498,373.65 757.783,379.756 756.478,386.165C754.561,386.98 753.378,388.094 753.696,389.823C753.811,400.949 752.35,410.956 749.315,419.847C748.433,422.429 746.969,422.192 746.457,419.275ZM714.092,432.01C710.414,419.342 707.181,409.232 704.013,399.496C704.933,395.305 704.648,391.177 703.155,387.113C704.887,383.308 704.409,380.171 700.679,378.016C703.902,358.54 706.347,338.532 706.775,317.15L710.347,316.673C713.731,334.869 718.615,352.804 724.921,370.491C726.185,373.745 726.007,377.763 725.111,382.16C721.895,397.789 719.008,413.399 718.085,428.901C717.825,433.277 714.822,434.521 714.092,432.01ZM748.435,251.901C751.161,262.588 753.572,273.065 754.388,282.478C755.327,293.304 761.135,301.528 760.151,313.006C761.695,327.676 759.575,341.236 756.912,354.632C753.422,338.198 750.005,320.36 746.768,299.099C750.546,293.895 749.697,287.383 747.625,280.525C749.067,271.843 748.903,261.984 748.435,251.901ZM714.323,179.7C724.099,198.404 730.853,217.004 739.756,233.47L744.137,245.043C743.049,251.864 741.975,258.719 742.042,268.237C740.465,272.825 740.522,278.16 741.994,284.145C739.738,294.467 737.478,288.486 736.088,282.954C732.793,269.832 727.906,256.339 720.8,242.329C722.856,236.668 721.967,232.034 718.562,228.279C719.49,222.819 719.047,216.244 717.943,209.133C717.711,199.183 716.333,189.396 714.323,179.7ZM715.594,242.094C723.758,260.776 731.014,279.458 737.654,298.141C737.626,301.525 737.848,304.409 738.226,306.98C734.772,324.062 732.202,340.525 729.767,356.893C729.184,360.816 726.738,360.467 726.224,357.197C723.764,341.534 720.213,326.187 714.603,311.438C715.92,306.129 715.001,301.442 712.66,297.15C714.539,279.299 715.543,260.961 715.594,242.094ZM660.119,118.275C673.97,134.177 687.113,150.197 699.501,166.343C702.908,170.784 709.742,172.568 709.468,178.261C709.05,189.666 709.592,201.726 710.962,214.351L713.217,221.514C712.797,222.765 711.412,222.914 709.285,222.215C698.319,206.973 686.226,194.162 673.714,182.254C674.919,175.384 671.81,169.779 666.917,164.697L665.789,159.302C666.212,151.174 665.752,142.659 664.143,133.637C666.953,125.894 660.459,125.256 660.119,118.275ZM669.523,186.813L671.656,187.613C687,202.913 700.665,219.137 709.91,237.792C707.703,257.463 706.566,277 705.985,296.468C705.266,298.051 704.139,298.657 702.404,297.802C694.939,282.568 685.764,270.753 675.962,260.196C678.72,252.99 676.068,248.842 671.809,245.603C672.916,225.958 670.892,205.899 669.523,186.813ZM670.278,265.527L674.271,265.527C684.428,279.208 692.692,293.599 700.88,308.018L703.136,308.841C702.39,310.901 702.419,312.857 702.892,314.754L701.002,315.943C700.117,336.142 697.536,356.482 694.693,376.844L691.34,377.21C687.327,363.457 679.197,352.871 670.918,342.4C671.838,337.688 671.003,333.853 668.51,330.848C668.613,308.848 668.952,286.958 670.278,265.527ZM666.242,345.74C673.495,355.263 679.792,365.464 684.606,376.714C686.126,383.003 689.943,385.738 695.77,385.363C690.297,407.553 686.521,430.2 683.165,452.96L680.092,454.155C675.443,447.602 671.077,440.269 666.754,432.818C666.869,422.55 665.237,414.501 658.439,413.018L658.292,408.117C662.344,403.522 662.6,398.008 661.609,392.193C662.969,386.674 663.907,381.034 663.559,375.026C664.385,369.413 664.684,363.554 664.291,357.372C666.268,354.547 666.622,350.435 666.242,345.74ZM639.231,489.845C632.1,484.758 624.896,480.033 617.638,475.581C616.575,471.45 614.304,468.298 611.209,465.818C612.422,442.506 611.98,420.548 610.399,399.522L619.686,398.093C629.733,407.19 641.049,413.981 652.501,420.525C650.519,423.149 649.735,426.109 650.929,429.622C645.588,449.998 644.569,469.564 645.327,488.797L639.231,489.845ZM651.434,408.904L647.045,409.849C637.771,402.621 628.087,396.379 618.179,390.676C618.606,386.356 616.408,384.118 613.15,382.721C615.439,353.393 614.406,330.106 611.108,310.938L618.088,309.292C631.452,318.024 644.487,328.398 657.469,339.041L658.932,337.487C659.494,338.838 660.613,339.75 662.163,340.322L661.188,344.162C658.882,367.806 655.486,389.07 651.434,408.904ZM662.925,328.723L657.591,330.781C643.57,321.712 633.297,309.216 618.575,303.615C623.281,297.851 621.909,294.772 614.422,294.394C615.433,273.343 615.71,252.26 614.384,231.108L622.652,228.555C624.436,232.044 626.888,234.364 629.891,235.718C640.13,241.986 649.994,248.526 659.115,255.607L665.63,256.369C662.234,280.707 663.799,304.698 662.925,328.723ZM665.943,245.362L661.142,248.715C650.025,240.565 638.438,232.886 626.204,225.854C625.448,219.373 621.853,215.672 616.221,213.966C613.165,192.723 612.537,172.087 612.335,151.557L617.593,151.709C632.106,160.96 647.542,169.828 663.276,178.57L663.733,181.771C664.989,202.91 665.602,224.121 665.943,245.362ZM657.498,170.212C645.022,161.599 632.257,153.851 619.211,146.945C617.96,139.082 613.798,135.065 608.238,132.893C604.877,116.988 600.295,101.49 595.467,86.075L598.393,84.52C605.854,89.393 614.626,93.374 624.119,96.865C632.915,102.599 641.558,108.332 653.17,114.066C655.9,131.055 658.334,148.966 660.333,168.231C660.616,170.958 659.454,171.562 657.498,170.212ZM591.535,70.639C585.433,58.532 577.963,47.082 569.322,36.195C590.341,40.537 613.238,55.239 636.799,73.61C643.252,84.981 647.834,95.502 650.935,105.349C635.603,96.372 626.234,92.138 623.807,93.423C617.16,87.668 609.815,82.997 601.136,80.392C600.399,76.041 597.048,72.857 591.535,70.639ZM555.143,31.408C549.112,30.503 543.324,29.193 538.074,26.986C524.134,27.284 510.895,26.504 498.083,25.068C494.957,20.34 490.219,18.373 483.192,20.321C478.966,15.7 473.179,11.99 466.87,8.584C478.852,8.397 494.239,9.183 512.291,10.73C515.259,12.388 519.445,13.104 525.101,12.681C535.881,17.797 545.837,24.124 555.143,31.408ZM479.386,26.583C456.357,31.725 438.818,31.143 422.772,35.361L405.134,33.045C398.922,28.276 391.459,24.008 382.538,20.324C389.349,19.604 394.448,18.212 398.225,16.301C403.499,16.575 408.192,16.527 412.49,16.26C420.668,12.3 432.308,9.258 453.172,8.66C463.479,12.135 472.005,18.447 479.386,26.583ZM299.085,42.775C321.845,36.573 339.05,27.932 362.745,21.703C364.658,20.765 367.009,20.459 369.898,20.931C378.108,23.714 387.251,27.874 397.737,34.017C399.049,35.747 399.269,37.665 398.062,39.829C391.156,40.759 384.728,42.42 379.448,45.844C361.709,50.912 348.553,56.239 336.566,61.633C330.974,60.287 325.593,59.913 320.544,61.06C314.506,54.575 307.29,48.502 299.085,42.775ZM290.513,46.131C299.939,51.776 309.038,58.306 317.108,67.612L318.022,72.946C300.013,84.888 283.57,96.955 268.948,109.168L260.972,108.507C255.168,100.318 246.75,92.259 235.527,84.34C252.161,70.79 270.493,58.055 290.513,46.131ZM228.402,92.317C238.68,98.599 246.997,106.353 254.672,114.588C253.077,117.938 252.332,121.491 253.014,125.382C235.038,141.638 220.349,158.698 207.684,176.254C203.752,176.26 201.495,177.223 199.84,178.53C194.181,167.136 187.509,158.345 180.333,150.853C179.929,148.678 180.668,146.025 183.625,142.441C197.159,123.589 212.266,107.159 228.402,92.317ZM175.194,155.873C180.159,163.259 186.783,171.8 196.734,182.655C195.331,186.216 195.061,189.323 196.368,191.8C184.796,203.175 176.863,214.617 171.252,226.101C164.745,231.891 162.748,239.466 158.694,245.852C157.175,245.74 155.552,246.249 153.817,247.437C149.944,233.967 143.749,224.164 137.764,214.03C148.031,192.004 160.483,172.589 175.194,155.873ZM134.683,219.698C139.827,228.7 144.712,239.45 149.314,252.109C146.774,258.256 146.198,263.726 147.587,268.518C141.758,287.601 135.807,306.527 127.52,322.469L123.862,323.282C119.813,312.85 114.619,303.115 107.453,294.579C112.03,270.056 120.352,245.169 134.683,219.698ZM104.904,300.766C108.458,310.48 112.878,319.329 118.6,326.876C117.021,333.4 117.554,339.037 121.394,343.285C117.438,357.995 113.111,372.488 107.31,386.113C102.424,384.917 98.139,384.501 94.337,384.715C92.657,378.523 90.609,372.992 88.387,367.775C91.825,364.176 91.81,360.916 89.72,357.859C96.95,339.458 101.055,320.149 104.904,300.766ZM127.386,345.674C135.064,359.892 141.807,375.252 147.961,391.332C137.31,388.111 126.268,385.727 114.432,385.045C117.745,371.419 122.042,358.285 127.386,345.674ZM163.218,393.997C167.645,389.949 168.865,386.098 167.981,382.376L185.254,333.416L188.365,333.035C196.241,352.521 203.057,373.108 208.114,395.521C206.917,398.689 206.834,401.53 207.479,404.157C193.189,399.982 178.592,396.329 163.218,393.997ZM261.174,335.859C268.53,355.036 275.771,374.495 281.901,396.668C277.819,401.456 276.585,405.664 279.818,408.962C276.348,412.262 273.62,415.721 272.046,419.427C254.539,413.605 238.294,409.298 222.819,405.914C223.209,403.16 222.785,400.134 221.956,396.973C232.619,375.845 245.769,355.498 261.174,335.859ZM337.152,349.118L340.327,351.848C345.305,375.754 347.754,399.001 348.837,421.891C343.82,426.264 343.058,431.488 345.661,437.385L342.55,440.497C328.423,434.587 314.512,429.685 300.893,426.146C299.931,420.787 298.108,415.523 295.622,410.334C298.241,407.938 299.099,404.284 298.162,399.348C308.231,380.968 321.326,364.28 337.152,349.118ZM411.227,385.161L416.104,387.295C418.693,409.835 421.801,432.513 424.944,455.979C420.047,460.066 419.172,465.1 421.184,470.813C399.66,461.037 381.216,453.811 363.626,447.291C363.926,442.896 362.633,439.156 360.629,435.709C362.851,433.246 364.063,430.28 364.388,426.869C380.824,414.064 396.417,400.134 411.227,385.161ZM438.634,462.809C452.646,450.24 467.609,438.231 482.814,426.42L489.154,431.338C491.48,445.912 494.576,458.34 498.42,468.687C497.772,475.568 499.541,483.509 503.337,492.34C496.81,495.972 495.165,500.697 495.9,505.955C491.093,508.924 486.456,511.467 482.082,513.352C467.451,501.958 452.82,491.683 438.19,484.844C437.725,480.656 436.91,476.888 435.904,473.351C437.759,470.931 438.838,467.613 438.634,462.809ZM153.68,264.318C154.449,261.554 157.181,261.495 158.325,264.116C165.296,280.097 171.959,296.875 177.629,316.218C176.367,323.181 176.764,329.495 177.995,335.482C171.346,351.663 165.099,367.755 161.386,383.283C158.423,382.964 155.841,383.689 153.745,385.754C144.771,368.968 138.577,353.465 132.449,337.993C133.361,334.908 133.478,331.54 132.872,327.914C140.813,307.602 147.582,286.256 153.68,264.318ZM182.416,309.569C177.123,292.588 170.572,276.147 162.908,260.182C164.497,257.459 164.615,253.894 164.305,250.086C170.17,242.261 174.146,234.36 176.625,226.399C185.661,216.408 193.988,206.088 201.263,195.284C202.867,194.13 204.324,194.009 205.581,195.284C215.866,208.765 223.331,223.552 228.061,239.608C225.491,244.699 225.225,249.418 226.854,253.832C214.656,274.254 201.977,293.306 188.593,310.341C186.485,313.024 183.566,313.258 182.416,309.569ZM235.068,254.987C242.342,273.497 249.11,293.917 255.165,317.033C251.424,321.844 250.797,327.346 254.371,333.782C238.871,350.774 226.32,370.82 216.746,393.95C209.779,370.6 198.009,348.6 191.305,323.004C194.409,319.933 195.847,316.387 195.987,312.47C209.602,293.896 222.512,274.619 235.068,254.987ZM208.288,189.275C210.251,187.695 211.401,185.059 212.01,181.718C227.408,161.997 244.5,143.728 264.64,128.072C273.318,140.55 281.108,154.287 288.161,169.069C285.658,173.895 284.821,178.721 285.976,183.547C264.633,203.826 250.155,221.49 240.192,237.435C238.496,236.965 236.451,236.905 233.943,237.384C226.984,219.516 217.959,204.024 208.288,189.275ZM290.274,187.38C293.124,184.634 295.94,184.813 297.437,188.345C305.496,207.362 311.883,226.379 317.503,245.395C316.317,248.853 315.418,252.57 315.725,257.385C297.52,275.368 283.18,293.894 272.696,312.961C269.773,318.279 263.508,318.339 261.774,314.13C253.559,294.185 248.805,273.384 241.555,252.609C244.505,248.962 245.599,244.64 245.569,239.909C258.13,221.749 272.836,204.185 290.274,187.38ZM318.907,264.598C321.263,261.432 323.835,262.197 324.241,265.766C326.835,288.615 330.414,311.095 337.347,332.316C332.284,336.081 330.405,340.1 332.115,344.407C316.625,360.319 303.949,377.603 294.014,396.224L289.848,395.107C283.05,375.499 275.716,355.175 267.699,333.942C270.665,329.99 271.491,326.548 271.61,323.273C287.83,305.152 303.5,285.294 318.907,264.598ZM279.111,419.796L283.622,410.367C285.717,411.431 287.935,412 290.246,412.196L292.522,423.657L279.111,419.796ZM269.104,117.573C284.451,104.159 301.922,90.215 321.604,75.717C324.426,73.639 326.134,73.579 328.106,76.479C339.12,92.677 345.963,105.051 352.085,116.765C350.321,119.166 349.53,122.475 349.799,126.773C333.374,138.734 317.288,151.052 303.446,165.732C300.71,168.634 295.818,167.553 293.001,162.806C283.842,147.369 276.295,135.827 268.779,124.36C269.474,121.364 269.493,119.214 269.104,117.573ZM332.125,70.584L338.53,65.967C358.874,58.559 380.852,53.616 399.76,45.33C403.522,43.681 405.76,43.302 407.126,45.228C415.059,56.41 422.786,68.686 430.393,81.602C410.512,96.279 391.1,105.875 371.87,113.505C367.511,111.492 362.909,110.692 357.9,111.93C347.675,97.885 338.99,84.087 332.125,70.584ZM413.129,38.867C439.855,41.094 460.623,31.872 488.027,29.926C495.888,40.136 503.132,51.579 509.367,65.04C505.822,67.653 503.678,70.686 503.384,74.274C495.787,75.079 490.456,76.069 486.868,77.2C477.322,78.679 468.284,79.329 461.67,76.029C457.209,79.486 451.545,80.615 445.349,80.711C443.372,76.486 439.447,75.79 434.002,77.85C425.309,63.988 418.786,51.211 413.129,38.867ZM496.681,28.986C508.244,31.547 520.401,32.128 533.004,31.221C539.661,33.789 548.471,35.562 559.116,36.657C561.382,41.273 564.06,45.601 567.193,49.611C570.869,51.527 574.476,55.948 578.065,60.99C578.905,65.563 580.66,70.135 583.755,74.707C578.3,75.264 572.564,75.539 566.33,75.316C552.634,71.098 539.305,69.809 526.044,69.068C523.421,66.367 520.259,64.921 516.595,64.648C515.37,62.533 513.673,61.049 511.668,59.974C508.424,49.645 503.582,39.315 496.681,28.986ZM509.367,492.156C505.593,472.501 496.956,450.847 495.321,429.645C498.048,425.682 500.094,421.152 501.433,416.033C514.789,408.355 529.087,401.11 545.217,394.704L549.076,396.569C551.37,419.11 552.345,442.564 551.633,467.186C547.87,468.285 546.394,472.142 546.561,477.981C530.665,486.759 517.979,491.817 509.367,492.156ZM561.571,391.825C571.33,393.948 585.641,394.416 601.508,394.318C608.238,410.157 602.913,434.027 602.863,464.437C599.853,465.958 597.637,467.876 596.848,470.506C582.736,470.398 568.6,470.319 558.049,465.9C558.206,443.358 557.791,420.816 556.098,398.274C558.971,396.886 560.733,394.692 561.571,391.825ZM308.898,167.176C323.499,153.195 339.597,139.396 358.968,125.993C359.669,126.855 360.976,128.256 362.978,130.274C371.054,149.629 378.221,170.001 383.84,192.102C380.84,194.941 379.344,197.554 379.234,199.96C361.461,213.983 344.461,228.455 329.435,244.069C327.164,242.863 324.716,242.421 322.011,243.093C317.026,222.755 310.578,202.416 302.124,182.078C308.769,175.538 309.916,170.969 308.898,167.176ZM368.126,124.253C387.852,110.91 411.527,102.477 434.929,89.789C442.193,109.781 448.898,129.951 453.266,150.87C450.698,154.468 448.709,157.893 448.454,160.797C424.271,176.11 400.444,190.988 389.454,190.189C383.646,168.522 376.825,146.613 368.126,124.253ZM444.26,85.887C468.007,84.844 491.384,81.575 514.438,76.371C519.612,93.699 527.801,110.603 532.348,128.786C529.346,131.919 528.113,135.052 528.117,138.185C502.579,144.495 479.594,146.729 459.866,151.19C452.998,125.371 443.883,101.785 444.26,85.887ZM521.302,73.104C546.772,74.686 568.719,78.118 587.368,83.283C592.789,98.858 598.138,114.824 603.096,132.902C600.83,135.022 599.939,137.083 599.801,139.11C592.585,139.558 584.88,137.982 577.016,135.746C567.513,136.021 558.161,135.866 549.306,134.29C549.444,132.02 549.204,130.317 548.786,128.879C544.644,128.949 540.824,128.672 537.885,127.446C532.665,107.723 521.732,87.559 521.302,73.104ZM604.286,146.324C607.118,168.258 608.563,190.886 609.658,213.689C606.973,213.886 605.371,214.828 604.998,216.615C586.938,215.893 569.463,214.684 554.007,211.792C552.427,208.429 549.896,206.413 546.583,205.507C542.993,184.81 541.007,163.344 541.029,140.914C560.07,141.981 581.631,143.956 604.286,146.324ZM547.508,220.907C550.066,220.686 552.556,219.844 554.999,218.583C569.869,221.299 587.836,222.388 607.331,222.675C608.879,243.734 608.87,267.128 607.643,292.348C601.698,293.413 598.838,295.329 599.598,298.244C580.419,299.633 567.553,298.727 559.819,295.955C557.473,292.114 554.594,289.138 551.323,286.799C548.434,262.064 547.943,241.438 547.508,220.907ZM558.442,300.782C567.459,306.491 582.337,306.628 600.717,303.435C601.648,305.88 603.327,307.897 605.876,309.417C607.757,330.783 607.853,354.35 606.266,379.992C601.564,380.496 600.01,383.164 600.856,387.483C588.134,387.722 575.694,387.454 564.13,385.61C562.668,380.249 559.406,377.446 553.552,378.327C553.841,354.801 553.799,331.102 550.951,305.949C554.781,305.496 557.04,303.548 558.442,300.782ZM548.353,377.389C543.792,380.639 540.788,385.213 539.926,391.607C525.127,397.851 510.311,404.076 498.136,413.317L490.68,412.763C489.295,387.481 487.151,362.072 483.546,336.42C486.658,334.358 488.14,331.697 488.477,328.617C506.074,321.725 523.847,313.603 541.907,303.474C544.644,301.939 545.622,302.749 545.7,306.237C546.201,328.574 547.351,353.246 548.353,377.389ZM478.389,424.122C462.758,434.774 448.531,445.642 435.905,456.756L430.634,456.895C429.403,430.137 423.5,407.065 423.199,382.911C426.162,380.585 427.982,377.058 428.748,372.42C444.507,362.032 459.577,350.267 474.18,337.567C475.896,336.918 477.391,337.262 478.645,338.694C478.916,364.562 481.839,388.628 485.017,412.519C481.646,415.342 479.448,419.219 478.389,424.122ZM350.19,338.229C367.445,324.199 385.375,308.634 403.901,291.714C405.837,317.971 409.811,343.097 414.869,367.62C409.339,369.946 406.338,373.516 407.629,379.195C391.688,392.198 375.992,405.457 363.542,422.068L358.21,421.982C355.259,398.218 351.509,374.015 346.245,348.979C348.848,345.747 350.131,342.155 350.19,338.229ZM414.857,284.788C430.941,271.295 449.275,259.625 468.395,248.59C469.141,275.152 471.422,299.412 474.193,322.936C470.612,325.756 469.032,330.142 468.774,335.562C453.229,346.658 439.127,357.593 426.183,368.4C423.959,370.911 422.012,371.523 420.655,367.316C413.723,339.763 413.213,317.741 411.714,294.867C413.853,292.525 414.886,289.152 414.857,284.788ZM483.16,241.086L542.498,220.764C542.15,248.781 543.654,268.35 544.857,289.292C540.799,292.529 538.037,296.506 536.568,301.222C518.376,309.296 501.289,316.655 485.553,323.14C482.245,324.402 480.907,323.694 480.49,322.065C478.192,299.789 475.766,277.926 474.802,251.352C479.137,248.627 481.716,245.112 483.16,241.086ZM333.89,248.799C347.661,235.118 362.799,221.009 381.196,205.882L388.349,205.503C395.812,229.63 395.606,254.981 401.625,280.065C395.675,283.762 393.34,288.362 394.905,293.938C377.826,306.104 361.432,318.647 348.845,333.278L343.264,332.79C341.444,317.636 338.493,302.481 332.914,287.327C333.985,276.316 332.041,268.713 329.771,261.479C332.15,257.098 333.39,252.891 333.89,248.799ZM402.161,195.891C420.197,184.03 438.573,172.68 457.997,162.902C463.35,186.869 467.181,210.679 469.181,234.3C463.941,236.744 462.096,240.886 462.635,246.221C444.603,256.237 427.204,266.658 413.346,279.341C411.081,280.056 408.79,280.333 406.41,279.081C404.296,254.761 400.62,230.442 393.882,206.122C397.744,203.176 400.495,199.762 402.161,195.891ZM469.969,156.33C493.491,153.973 514.524,148.779 532.775,140.411C534.49,140.721 535.857,141.697 536.555,143.949C536.333,162.929 537.413,183.145 540.578,205.368C536.688,208.895 534.952,212.625 534.023,216.431C513.482,224.673 492.689,227.941 480.72,235.435C478.967,233.667 476.9,232.291 474.408,231.447C472.119,209.036 468.917,186.74 465.148,164.514C467.893,162.287 469.536,159.574 469.969,156.33ZM53.412,521.229C56.14,521.297 58.961,520.345 61.92,517.869C79.535,524.494 99.225,529.045 119.847,532.663C90.955,554.835 69.317,583.283 56.501,619.363C31.252,587.393 30.679,547.865 53.412,521.229Z" style="fill:#2d3234;"/>
</svg>
