<?xml version="1.0" encoding="UTF-8" standalone="no"?>
<!DOCTYPE svg PUBLIC "-//W3C//DTD SVG 1.1//EN" "http://www.w3.org/Graphics/SVG/1.1/DTD/svg11.dtd">
<svg width="100%" height="100%" viewBox="0 0 93 90" version="1.1" xmlns="http://www.w3.org/2000/svg" xmlns:xlink="http://www.w3.org/1999/xlink" xml:space="preserve" xmlns:serif="http://www.serif.com/" style="fill-rule:evenodd;clip-rule:evenodd;stroke-linejoin:round;stroke-miterlimit:2;">
    <g>
        <path d="M58.584,16.512l-8.864,2.415l8.68,-18.927l-56.281,20.715l3.077,24.813l-5.196,5.009l15.494,38.811l32.932,-12.134l11.448,-26.875l-4.914,-4.738l3.624,-29.089Z" style="fill:#ff5100;"/>
        <path d="M87.275,20.623c0,-0.153 -0.092,-0.337 -0.306,-0.337l-4.77,0l0,4.55l4.77,0c0.214,0 0.306,-0.152 0.306,-0.305l0,-3.908Zm0,-8.061c0,-0.153 -0.092,-0.337 -0.306,-0.337l-4.77,0l0,4.275l4.77,0c0.214,0 0.306,-0.152 0.306,-0.335l0,-3.603Zm-10.366,16.183l0,-20.611l12.72,0c1.682,0 2.752,1.068 2.752,2.595l0,4.58c0,1.405 -0.917,2.749 -2.813,3.207c1.896,0.458 2.966,1.74 2.966,3.114l0,4.489c0,1.618 -1.07,2.626 -2.752,2.626l-12.873,0Zm9.393,39.816l5.779,0l0,10.29c0,1.343 -1.039,2.352 -2.354,2.352l-10.433,-0c-1.315,-0 -2.385,-1.009 -2.385,-2.352l0,-15.939c0,-1.252 1.07,-2.32 2.385,-2.32l12.786,-0l0,4.427l-9.576,-0c-0.153,-0 -0.306,0.152 -0.306,0.336l0,11.053c0,0.184 0.153,0.306 0.306,0.306l4.378,-0c0.214,-0 0.337,-0.122 0.337,-0.306l0,-3.48l-2.783,-0l1.866,-4.367Zm0.001,-26.264l5.778,0l0,10.29c0,1.344 -1.039,2.352 -2.354,2.352l-10.433,0c-1.315,0 -2.385,-1.008 -2.385,-2.352l-0,-15.937c-0,-1.253 1.07,-2.321 2.385,-2.321l12.786,-0l-0,4.427l-9.576,-0c-0.153,-0 -0.306,0.153 -0.306,0.336l-0,11.054c-0,0.183 0.153,0.305 0.306,0.305l4.378,-0c0.214,-0 0.337,-0.122 0.337,-0.305l-0,-3.48l-2.783,-0l1.866,-4.368l0.001,-0.001Z" style="fill:#3f3a60;"/>
    </g>
</svg>
