<?xml version="1.0" encoding="UTF-8" standalone="no"?>
<!DOCTYPE svg PUBLIC "-//W3C//DTD SVG 1.1//EN" "http://www.w3.org/Graphics/SVG/1.1/DTD/svg11.dtd">
<svg width="100%" height="100%" viewBox="0 0 1240 707" version="1.1" xmlns="http://www.w3.org/2000/svg" xmlns:xlink="http://www.w3.org/1999/xlink" xml:space="preserve" xmlns:serif="http://www.serif.com/" style="fill-rule:evenodd;clip-rule:evenodd;stroke-linejoin:round;stroke-miterlimit:2;">
    <path d="M245.482,94.877L306.468,96.189C344.217,28.578 446.129,-3.097 599.431,0.238C787.129,4.322 834.486,59.519 871.534,116.855C981.784,155.319 1079.84,230.906 1168.78,334.291C1000.39,151.781 795.018,88.425 610.707,117.474C351.091,158.39 259.6,301.581 156.004,536.189C25.671,831.345 -53.733,667.636 42.736,480.833C107.717,355.005 197.394,233.584 245.482,94.877ZM105.467,706.277C149.745,677.302 199.12,605.339 230.921,521.746C316.752,296.134 440.767,197.768 663.523,167.225C864.397,139.682 1186.11,317.887 1239.17,533.868C1071.99,559.315 905.319,549.046 708.887,544.088C576.17,540.737 305.963,643.193 105.467,706.277ZM751.447,190.035L748.375,190.059C747.681,192.918 742.701,193.121 736.231,192.4C730.137,195.572 724.85,199.214 720.706,203.524C717.763,209.595 712.931,212.863 707.466,215.192C703.88,222.781 700.171,228.161 696.179,228.432C693.263,239.503 688.802,249.228 683.367,258.104C680.096,262.317 679.136,268.329 678.795,274.821C678.474,283.779 677.777,292.71 676.318,301.587L669.46,302.397C668.765,313.054 669.418,323.758 671.079,334.497C674.27,345.521 673.874,352.791 680.509,364.312C678.263,369.161 686.26,387.164 693.797,395.793C699.368,403.818 705.638,410.885 712.753,416.796C721.315,417.62 720.564,423.258 733.947,430.275L747.52,402.318L749.711,403.223L738.186,432.418L759.57,439.895C768.642,442.595 777.755,443.426 786.908,442.467L789.67,440.514C800.081,439.846 810.055,438.363 819.246,435.418L819.437,432.37C824.174,429.725 828.809,426.883 834.63,426.322L841.107,422.273L840.869,420.749C848.511,419.323 851.72,410.9 858.729,404.413L860.015,398.365C867.112,391.008 872.886,382.528 876.732,372.408L868.207,364.835L880.542,370.884C882.176,362.025 883.898,353.167 888.734,344.308C889.563,342.846 888.568,341.266 886.876,339.641C886.556,337.827 889.017,336.437 888.829,334.021C887.631,318.583 890.877,302.612 887.114,298.587L883.447,298.253L887.353,295.348C883.746,285.617 884.61,276.182 879.542,266.343L877.78,265.819C879.313,263.532 880.633,261.088 881.542,258.342C881.652,256.395 880.37,255.951 878.446,256.199C875.576,254.299 872.889,251.452 870.588,246.626C866.779,238.715 863.233,230.617 855.443,225.527C854.34,221.728 852.736,219.493 850.251,220.002C850.428,215.257 845.893,210.781 837.535,206.524C830.496,201.325 822.712,197.554 813.722,196.094L779.573,186.044L778.764,187.616C769.542,189.135 760.902,188.781 752.616,187.283L751.447,190.035ZM782.046,268.299C803.527,268.299 833.096,287.637 833.096,315.479C833.096,348.822 808.521,367.868 781.897,367.868C755.273,367.868 733.749,347.743 733.749,323.665C733.749,297.294 757.503,268.299 782.046,268.299ZM787.975,275.666C769.117,270 730.507,302.664 745.896,344.774C752.353,297.688 764.156,293.959 787.975,275.666ZM211.251,60.539C222.258,60.986 224.042,68.289 218.954,88.446C193.386,189.739 109.809,268.32 54.859,391.637C45.175,386.391 32.759,374.633 31.458,364.166C27.803,334.757 43.708,304.064 57.475,286.407C122.293,203.273 178.411,87.215 211.251,60.539ZM250.949,62.673L330.761,63.789L324.249,70.021L251.786,69.463L250.949,62.673Z" style="fill:#2d3234;"/>
    <path d="M744.467,144.016C755.258,142.059 766.23,140.462 778.326,141.114C794.02,141.626 807.91,144.281 821.563,147.216C839.762,153.062 852.194,161.744 862.641,171.402C871.426,176.538 879.093,182.401 885.338,189.188L889.356,197.969C896.472,213.892 906.791,228.701 916.891,243.586L913.319,245.075L912.798,253.26C918.136,258.187 917.506,267.155 920.463,271.939C925.468,282.703 925.868,289.484 919.57,290.469C916.307,296.343 915.147,303.006 916.965,310.785C920.195,321.39 922.614,331.129 916.519,331.77C913.933,338.798 912.747,345.899 912.575,353.054L912.128,378.951L904.612,379.397L889.356,415.489C886.573,420.346 883.163,420.889 879.236,417.871C873.301,431.932 865.39,444.675 855.646,456.195L849.692,454.186L835.107,462.446L831.088,465.125C828.06,471.375 823.256,475.386 816.577,477.032L815.46,480.232C806.521,477.92 797.739,477.34 789.117,478.52L788.149,483.73C781.576,481.187 768.806,484.941 754.587,483.209L754.215,476.734L734.197,470.558L704.951,458.205L696.989,456.493L698.998,449.647L677.864,430.373L665.585,413.852L667.52,410.057L659.483,407.973L648.618,384.309C658.167,379.474 668.536,372.589 678.757,366.077C668.492,371.509 658.455,377.082 642.218,378.802L632.32,339.212L644.227,330.58L630.609,326.487C629.265,316.942 630.169,297.02 631.832,296.125C632.053,295.948 632.847,267.509 633.586,253.558C643.578,244.029 648.702,230.037 651.073,213.522C659.1,208.323 657.956,202.437 664.022,197.076L671.389,187.625L679.278,182.341C678.885,173.858 687.726,168.256 700.04,163.737L713.881,154.063L724.374,152.798L739.332,142.528L744.467,144.016ZM751.447,190.035L748.375,190.059C747.681,192.918 742.701,193.121 736.231,192.4C730.137,195.572 724.85,199.214 720.706,203.524C717.763,209.595 712.931,212.863 707.466,215.192C703.88,222.781 700.171,228.161 696.179,228.432C693.263,239.503 688.802,249.228 683.367,258.104C680.096,262.317 679.136,268.329 678.795,274.821C678.474,283.779 677.777,292.71 676.318,301.587L669.46,302.397C668.765,313.054 669.418,323.758 671.079,334.497C674.27,345.521 673.874,352.791 680.509,364.312C678.263,369.161 686.26,387.164 693.797,395.793C699.368,403.818 705.638,410.885 712.753,416.796C721.315,417.62 720.564,423.258 733.947,430.275L747.52,402.318L749.711,403.223L738.186,432.418L759.57,439.895C768.642,442.595 777.755,443.426 786.908,442.467L789.67,440.514C800.081,439.846 810.055,438.363 819.246,435.418L819.437,432.37C824.174,429.725 828.809,426.883 834.63,426.322L841.107,422.273L840.869,420.749C848.511,419.323 851.72,410.9 858.729,404.413L860.015,398.365C867.112,391.008 872.886,382.528 876.732,372.408L868.207,364.835L880.542,370.884C882.176,362.025 883.898,353.167 888.734,344.308C889.563,342.846 888.568,341.266 886.876,339.641C886.556,337.827 889.017,336.437 888.829,334.021C887.631,318.583 890.877,302.612 887.114,298.587L883.447,298.253L887.353,295.348C883.746,285.617 884.61,276.182 879.542,266.343L877.78,265.819C879.313,263.532 880.633,261.088 881.542,258.342C881.652,256.395 880.37,255.951 878.446,256.199C875.576,254.299 872.889,251.452 870.588,246.626C866.779,238.715 863.233,230.617 855.443,225.527C854.34,221.728 852.736,219.493 850.251,220.002C850.428,215.257 845.893,210.781 837.535,206.524C830.496,201.325 822.712,197.554 813.722,196.094L779.573,186.044L778.764,187.616C769.542,189.135 760.902,188.781 752.616,187.283L751.447,190.035Z" style="fill:#a9b2b5;"/>
    <path d="M819.897,232.594C820.815,231.786 821.981,231.356 823.44,231.379C825.503,232.701 827.565,233.509 829.628,234.123C830.25,237.709 831.982,240.52 834.81,242.566C837.85,245.241 841.351,247.339 845.691,248.388C851.277,252.558 851.427,259.031 854.897,264.695C858.036,268.384 859.734,272.552 861.115,276.827C861.819,293.054 864.239,298.82 867.028,302.34L867.021,304.103C867.844,311.787 866.435,319.709 862.967,327.848L861.321,333.761L865.314,336.718C862.464,344.613 860.037,352.753 857.968,361.103L857.449,364.974C851.72,369.806 847.281,376.092 841.447,381.129L841.904,382.104L822.731,396.126C814.162,407.181 801.84,412.412 785.727,411.763L783.746,412.525C777.442,414.254 771.406,413.722 765.61,411.183C760.973,407.031 755.717,403.926 749.76,402.009C742.558,400.198 736.773,396.392 731.806,391.432L727.966,390.03C721.54,387.152 717.853,382.363 710.348,377.746C710.655,372.22 709.044,367.427 705.775,363.267C705.102,361.423 704.943,359.379 705.44,357.079L697.545,353.94C697.936,345.953 697.732,338.048 696.692,330.256C697.437,321.469 697.304,312.862 695.839,304.53C702.093,297.384 706.032,286.784 708.58,274.11C712.393,272.645 714.463,267.276 715.285,259.113C720.826,257.081 725.827,254.032 729.154,247.835L733.574,244.97L728.514,239.971L746.285,235.368C747.226,230.717 756.133,228.965 761.068,224.243C765.269,223.581 769.923,223.116 775.425,223.023C777.981,221.456 780.723,221.116 783.685,222.231C794.735,226.389 808.37,226.954 819.897,232.594ZM782.046,268.299C757.503,268.299 733.749,297.294 733.749,323.665C733.749,347.743 755.273,367.868 781.897,367.868C808.521,367.868 833.096,348.822 833.096,315.479C833.096,287.637 803.527,268.299 782.046,268.299Z" style="fill:#800020;"/>
</svg>
