<?xml version="1.0" encoding="UTF-8" standalone="no"?>
<!DOCTYPE svg PUBLIC "-//W3C//DTD SVG 1.1//EN" "http://www.w3.org/Graphics/SVG/1.1/DTD/svg11.dtd">
<svg width="100%" height="100%" viewBox="0 0 899 769" version="1.1" xmlns="http://www.w3.org/2000/svg" xmlns:xlink="http://www.w3.org/1999/xlink" xml:space="preserve" xmlns:serif="http://www.serif.com/" style="fill-rule:evenodd;clip-rule:evenodd;stroke-linejoin:round;stroke-miterlimit:2;">
    <path d="M542.288,0.176C616.389,-1.717 683.087,11.692 743.184,39.528C769.821,51.866 784.016,75.439 786.061,91.489C789.913,121.72 795.811,146.914 806.029,162.464C841.501,216.45 875.806,271.962 883.806,365.284C897.54,381.515 901.416,398.843 895.616,417.245C895.14,440.812 897.453,465.316 898.341,492.098C898.894,508.773 896.764,521.226 887.621,529.161C845.36,565.839 780.288,578.037 712.48,587.299L560.594,721.562C484.006,773.242 395.025,779.507 298.426,752.448C231.67,733.749 162.035,709.162 103.481,693.22C64.835,682.698 28.059,668.87 11.156,650.48C-9.464,628.046 -0.716,593.167 30.923,561.528L139.997,478.802C142.448,476.352 142.023,472.153 138.755,470.998C131.651,468.486 130.079,458.552 128.872,440.33C128.028,427.585 130.859,414.722 139.627,401.668C144.227,392.289 152.082,387.142 162.883,385.825C162.011,362.704 167.281,346.011 179.743,336.844C179.858,305.926 186.879,279.85 193.405,273.037C209.467,256.268 217.66,227.357 210.265,168.388C208.144,151.471 203.676,137.6 206.394,124.882C217.667,72.134 327.864,5.651 542.288,0.176ZM147.255,484.268C110.65,510.751 76.234,540.335 42.607,571.039C15.774,595.539 28.865,636.777 68.624,649.816C137.436,672.383 224.321,696.966 317.455,722.924C394.015,744.264 475.393,733.619 510.022,702.816C391.275,752.499 106.179,660.164 66.985,619.944C32.971,585.039 99.971,535.199 147.255,484.268ZM156.448,485.907L155.023,497.531C211.332,578.134 522.957,603.915 599.549,589.228C606.047,587.982 606.5,573.929 599.221,573.702C589.582,573.4 580.423,571.539 572.055,567.11C471.939,566.304 377.872,553.399 287.059,533.986C269.685,546.873 236.706,538.481 230.306,518.743C199.201,506.504 170.288,503.032 156.448,485.907ZM334.567,212.436C321.497,265.557 308.06,336.503 305.18,414.693C361.447,426.396 420.314,434.315 481.911,438.266C523.778,440.952 556.94,405.823 597.052,388.304C670.024,356.431 747.532,328.108 831.648,304.957C853.016,299.076 849.41,267.835 828.923,254.995C808.512,242.202 769.573,242.362 720.368,251.815C635.759,268.071 370.217,222.105 334.567,212.436ZM260.584,463.736C241.993,463.736 228.317,478.83 228.317,495.705C228.317,511.659 245.467,533.866 260.465,533.866C280.07,533.866 290.291,520.351 290.291,499.337C290.291,482.04 272.636,463.736 260.584,463.736ZM754.972,494.638C741.011,494.638 731.349,510.261 731.349,525.739C731.349,539.421 739.622,550.981 753.305,550.981C764.371,550.981 774.07,534.5 774.07,520.928C774.07,503.869 764.805,494.638 754.972,494.638ZM766.038,508.804C773.003,520.435 763.441,545.262 753.226,545.262C745.98,531.932 749.021,515.713 766.038,508.804ZM499.145,25.602C382.01,31.644 271.967,66.975 253.487,118.867C236.342,167.014 304.74,189.142 419.025,197.315C551.119,206.761 757.738,120.883 738.017,81.507C718.295,42.131 608.946,19.938 499.145,25.602ZM498.698,35.072C596.377,30.033 693.654,49.776 711.198,84.805C728.742,119.834 544.935,196.231 427.424,187.828C325.756,180.557 264.91,160.872 280.162,118.04C296.601,71.877 394.495,40.447 498.698,35.072ZM236.089,180.917C237.115,229.834 229.102,267.047 214.65,295.921C204.815,315.572 201.629,345.089 190.487,366.777C213.07,384.322 237.656,395.258 263.341,402.569C267.012,335.431 274.841,268.294 288.435,201.156C273.071,198.062 251.143,190.212 236.089,180.917ZM181.673,391.022C176.908,401.252 171.971,411.489 170.976,424.696C191.764,438.022 217.591,450.593 243.737,458.76C262.347,446.054 279.76,454.065 296.387,475.69C388.289,490.66 482.817,502.574 591.822,497.643C592.291,494.159 594.631,491.039 598.147,491.039L640.193,491.225C699.365,491.225 772.195,469.253 832.143,449.008C567.766,492.592 239.765,456.902 181.673,391.022Z" style="fill:#2d3234;"/>
</svg>
