<?xml version="1.0" encoding="UTF-8" standalone="no"?>
<!DOCTYPE svg PUBLIC "-//W3C//DTD SVG 1.1//EN" "http://www.w3.org/Graphics/SVG/1.1/DTD/svg11.dtd">
<svg width="100%" height="100%" viewBox="0 0 802 1176" version="1.1" xmlns="http://www.w3.org/2000/svg" xmlns:xlink="http://www.w3.org/1999/xlink" xml:space="preserve" xmlns:serif="http://www.serif.com/" style="fill-rule:evenodd;clip-rule:evenodd;stroke-linejoin:round;stroke-miterlimit:2;">
    <path d="M395.939,9.465C416.517,-3.446 430.629,-2.286 445.411,7.74C686.123,171.005 728.214,320.194 717.983,445.486C710.822,533.184 673.509,605.351 680.004,678.749C680.384,683.043 682.131,686.132 684.668,688.213C692.508,694.644 693.597,701.49 689.332,709.519C688.674,710.756 689.496,711.499 690.2,712.4C713.647,742.411 753.451,772.062 780.261,801.15C836.126,836.227 771.997,915.966 681.415,940.875C627.452,955.713 571.366,955.742 526.763,954.289C378.161,1083.55 242.321,1176.15 95.825,1175.95C-19.032,1078.16 -36.053,908.704 74.346,793.966C62.645,736.931 47.088,680.771 28.839,625.224C26.174,617.114 27.827,608.59 31.482,599.577C37.445,584.873 42.196,569.796 45.063,554.14C49.844,528.032 53.909,508.454 42.548,479.385C38.688,469.507 35.8,457.217 43.554,449.025C44.933,447.568 45.128,445.862 45.414,442.831C45.841,438.302 46.617,433.86 47.825,429.526C48.472,427.204 50.126,425.505 52.2,424.525C56.072,422.696 59.703,421.53 63.184,420.774C66.01,420.161 69.259,414.808 70.328,409.255C104.195,233.398 232.999,111.696 395.939,9.465ZM552.977,743.933C547.375,743.933 542.388,752.015 542.388,757.284C542.388,762.553 547.193,764.855 552.795,764.855C558.396,764.855 561.847,759.517 561.847,754.248C561.847,748.979 558.579,743.933 552.977,743.933ZM164.83,944.451C227.814,952.634 426.971,857.897 558.265,772.997C408.08,850.904 261.354,926.197 164.83,944.451ZM393.661,17.29C267.279,138.899 200.119,283.097 161.867,438.322C255.6,460.112 382.049,468.725 502.414,479.86C510.353,470.299 522.015,463.256 533.49,458.437C572.168,442.198 607.526,421.627 642.574,404.596C670.288,391.129 685.36,391.312 695.456,412.967C695.067,392.613 671.992,371.914 646.9,385.48C607.342,406.867 566.77,426.329 525.164,443.843C509.656,450.371 491.417,458.94 477.27,459.477C420.782,456.365 365.432,451.262 312.665,442.795C412.662,327.468 442.641,179.854 393.661,17.29ZM164.18,744.293C158.635,744.293 155.109,747.612 155.109,752.564C155.109,757.517 158.057,761.35 163.602,761.35C169.147,761.35 173.074,758.004 173.074,753.051C173.074,748.099 169.724,744.293 164.18,744.293ZM378.367,673.439C373.391,673.439 366.612,678.984 366.612,683.738C366.612,688.492 370.16,692.282 375.136,692.282C380.112,692.282 384.948,687.954 384.948,683.2C384.948,678.446 383.343,673.439 378.367,673.439ZM298.313,735.544C293.241,735.544 287.477,740.05 287.477,744.642C287.477,749.235 289.675,754.335 294.747,754.335C299.819,754.335 305.711,748.796 305.711,744.203C305.711,739.611 303.385,735.544 298.313,735.544ZM584.04,755.896C554.842,674.776 578.936,593.421 681.711,511.72C698.344,498.497 704.17,465.471 705.474,444.571C699.237,471.294 690.177,495.505 671.682,510.412C568.973,593.196 539.673,672.538 584.04,755.896ZM684.072,431.655C676.779,424.46 668.189,426.549 662.193,436.298C654.361,449.034 652.604,460.296 652.638,471.125C652.693,488.222 660.638,496.73 672.999,495.503C679.168,494.891 683.506,491.053 686.304,486.484C666.067,493.732 656.859,486.274 660.854,461.213C663.579,444.119 673.526,433.017 684.072,431.655ZM174.538,793.452C169.611,793.452 165.179,797.898 165.179,802.021C165.179,806.144 168.912,810.323 173.839,810.323C178.766,810.323 183.997,806.21 183.997,802.087C183.997,797.964 179.465,793.452 174.538,793.452ZM275.853,118.657C181.783,193.326 116.835,296.27 82.646,429.077C111.352,437.485 137.288,437.037 145.295,405.915C173.672,295.614 217.825,200.47 275.853,118.657ZM530.52,949.642C645.785,849.873 738.923,795.804 785.876,820.305C774.591,810.677 766.278,802.399 761.542,795.748C693.373,800.655 628.45,833.177 578.106,878.5C563.297,891.832 569.023,906.025 530.52,949.642ZM358.452,722.725C353.301,722.725 349.073,728.316 349.073,732.751C349.073,737.187 351.241,740.858 356.392,740.858C361.542,740.858 367.385,736.274 367.385,731.838C367.385,727.403 363.602,722.725 358.452,722.725ZM227.185,691.414C221.825,691.414 217.029,695.527 217.029,700.16C217.029,704.793 220.749,708.694 226.108,708.694C231.468,708.694 235.796,704.254 235.796,699.621C235.796,694.988 232.545,691.414 227.185,691.414ZM149.586,695.426C144.086,695.426 139.551,699.261 139.551,704.071C139.551,708.881 143.946,713.255 149.446,713.255C154.946,713.255 159.412,709.349 159.412,704.539C159.412,699.729 155.087,695.426 149.586,695.426ZM75.808,808.531C-10.098,906.473 15.453,1046.9 91.296,1126.24C98.329,1066.51 113.332,1008.49 136.643,952.246C101.839,930.758 72.367,881.492 75.808,808.531ZM26.159,918.933C26.96,914.923 29.257,911.198 32.36,911.484C35.211,911.747 37.199,917.01 35.98,920.307C34.392,924.605 31.987,927.571 27.699,927.465C25.164,927.402 25.464,922.415 26.159,918.933ZM69.807,823.57C73.35,823.876 66.685,837.172 58.726,836.003C56.173,835.628 65.698,823.216 69.807,823.57ZM40.359,1006.35C43.086,1006.35 43.004,1010.44 43.004,1014.29C43.004,1018.14 37.593,1023.59 34.866,1023.59C32.138,1023.59 31.525,1017.7 32.054,1015.25C32.632,1012.59 37.631,1006.35 40.359,1006.35ZM102.86,1114.01C98.195,1114.01 94.513,1119.23 94.513,1124.12C94.513,1129.01 96.89,1133.3 101.555,1133.3C106.22,1133.3 111.42,1129.01 111.42,1124.12C111.42,1119.23 107.526,1114.01 102.86,1114.01ZM230.502,792.284C225.657,792.284 221.298,796.612 221.298,801.385C221.298,806.158 224.725,810.14 229.57,810.14C234.415,810.14 239.28,805.706 239.28,800.932C239.28,796.159 235.347,792.284 230.502,792.284ZM66.942,681.23L47.314,666.042C69.949,705.199 79.915,755.992 86.476,794.428C96.459,852.915 99.588,909.908 147.177,946.716C116.262,850.23 99.047,762.021 66.942,681.23ZM692.551,456.25C692.225,448.19 689.589,438.601 682.218,438.601C672.607,438.601 667.633,454.64 667.633,464.251C667.633,473.862 677.812,481.993 683.909,477.647C689.965,473.33 692.957,466.297 692.551,456.25ZM671.584,788.447C666.763,788.447 664.66,793.086 664.66,796.997C664.66,800.907 670.678,803.788 675.5,803.788C680.321,803.788 683.889,803.091 683.889,799.181C683.889,795.27 676.406,788.447 671.584,788.447ZM151.97,959.123C130.106,1020.92 116.877,1081.56 112.455,1141.03C239.18,1145.6 391.312,1038.73 551.209,897.806C499.9,872.242 414.761,900.708 362.239,929.853C386.672,907.045 414.923,883.051 414.95,867.148C394.953,880.248 240.923,964.282 151.97,959.123ZM522.565,896.88C527.798,896.88 532.073,900.82 532.073,904.524C532.073,908.229 526.945,912.222 521.712,912.222C516.479,912.222 512.816,907.802 512.816,904.098C512.816,900.394 517.331,896.88 522.565,896.88ZM416.684,980.686C422.059,980.686 426.555,985.658 426.555,990.182C426.555,994.707 421.992,999.846 416.617,999.846C411.243,999.846 406.247,995.207 406.247,990.682C406.247,986.157 411.309,980.686 416.684,980.686ZM313.11,1053.98C318.02,1053.98 321.631,1059.12 321.631,1064.59C321.631,1070.06 318.186,1075 313.277,1075C308.367,1075 304.381,1070.56 304.381,1065.09C304.381,1059.62 308.201,1053.98 313.11,1053.98ZM207.052,1106.16C212.772,1106.16 216.219,1111.22 216.219,1115.9C216.219,1120.59 211.055,1125.85 205.336,1125.85C199.616,1125.85 195.857,1121.32 195.857,1116.63C195.857,1111.94 201.333,1106.16 207.052,1106.16ZM304.784,681.728C299.674,681.728 294.238,686.604 294.238,691.398C294.238,696.193 297.731,700.366 302.841,700.366C307.951,700.366 312.802,695.397 312.802,690.602C312.802,685.808 309.894,681.728 304.784,681.728ZM598.347,825.295C592.571,825.295 587.049,829.092 587.049,833.41C587.049,837.728 592.529,841.484 598.306,841.484C604.082,841.484 608.772,837.978 608.772,833.66C608.772,829.342 604.124,825.295 598.347,825.295ZM235.255,742.708C230.327,742.708 225.172,747.755 225.172,752.289C225.172,756.824 228.308,760.341 233.236,760.341C238.165,760.341 243.453,756.098 243.453,751.564C243.453,747.03 240.184,742.708 235.255,742.708ZM288.519,785.65C283.902,785.65 279.255,790.702 279.255,795.571C279.255,800.44 282.537,803.362 287.154,803.362C291.771,803.362 296.817,799.242 296.817,794.373C296.817,789.503 293.136,785.65 288.519,785.65ZM605.788,711.797C601.536,711.797 599.044,718.478 599.044,723.272C599.044,728.067 604.279,730.999 608.531,730.999C612.783,730.999 615.915,725.507 615.915,720.712C615.915,715.918 610.04,711.797 605.788,711.797ZM44.987,464.229C64.091,509.496 63.693,537.23 35.744,613.451C31.989,623.691 38.547,648.053 55.033,655.778C205.179,661.105 331.484,652.188 445.812,636.117C410.478,555.898 351.734,568.498 120.377,539.973C114.054,578.27 87.54,620.709 63.85,647.89C94.902,608.71 106.734,543.549 100.299,532.529C93.281,530.382 67.986,514.133 65.881,506.469C83.214,516.164 102.14,524.056 121.188,526.892C244.211,540.1 358.536,547.743 461.945,553.708C495.039,555.616 490.949,522.249 483.463,486.671C365.356,480.649 257.858,467.52 144.813,450.187C110.388,445.345 80.84,439.202 59.81,430.788C57.524,435.735 55.965,441.409 55.346,448.023C110.372,471.505 284.556,486.358 449.04,501.913C453.798,502.363 458.809,504.64 458.416,509.235C457.977,514.363 457.289,519.241 456.362,523.88C455.657,527.414 452.71,528.926 447.432,528.613C335.327,521.962 226.322,512.74 122.551,499.182C82.512,488.09 52.01,476.623 44.987,464.229ZM44.987,464.229C44.632,463.387 44.266,462.547 43.891,461.71C44.147,462.554 44.514,463.394 44.987,464.229ZM317.75,593.123C322.308,593.123 326.008,597.399 326.008,602.667C326.008,607.934 321.905,612.686 317.347,612.686C312.789,612.686 308.357,608.154 308.357,602.886C308.357,597.619 313.192,593.123 317.75,593.123ZM177.303,586.108C182.444,586.108 186.384,591.04 186.384,595.96C186.384,600.881 182.064,605.344 176.922,605.344C171.781,605.344 167.139,599.272 167.139,594.351C167.139,589.43 172.161,586.108 177.303,586.108ZM385.391,594.531C390.655,594.531 395.157,597.872 395.157,603.254C395.157,608.636 391.542,613.481 386.278,613.481C381.014,613.481 376.083,608.636 376.083,603.254C376.083,597.872 380.127,594.531 385.391,594.531ZM91.69,567.213C93.919,567.213 92.818,571.87 91.617,575.553C90.55,578.822 89.24,582.648 86.935,582.648C84.63,582.648 86.062,578.695 86.898,574.346C87.328,572.111 89.46,567.213 91.69,567.213ZM246.572,592.379C251.572,592.379 255.689,595.823 255.689,600.571C255.689,605.318 251.63,609.172 246.631,609.172C241.631,609.172 236.607,605.201 236.607,600.454C236.607,595.706 241.573,592.379 246.572,592.379ZM71.685,549.947C74.087,549.947 69.794,566.278 67.378,566.278C64.963,566.278 69.744,549.947 71.685,549.947Z" style="fill:#2d3234;"/>
</svg>
