<?xml version="1.0" encoding="UTF-8" standalone="no"?>
<!DOCTYPE svg PUBLIC "-//W3C//DTD SVG 1.1//EN" "http://www.w3.org/Graphics/SVG/1.1/DTD/svg11.dtd">
<svg width="100%" height="100%" viewBox="0 0 1010 1350" version="1.1" xmlns="http://www.w3.org/2000/svg" xmlns:xlink="http://www.w3.org/1999/xlink" xml:space="preserve" xmlns:serif="http://www.serif.com/" style="fill-rule:evenodd;clip-rule:evenodd;stroke-linejoin:round;stroke-miterlimit:2;">
    <path d="M903.273,769.219C903.93,770.201 904.996,771.176 904.877,773.142C904.683,776.341 904.004,779.328 903.011,782.177C903.32,785.096 903.064,787.827 902.024,790.297C902.091,793.333 901.841,796.105 901.309,798.642L901.548,864.065C908.422,871.499 913.108,881.653 912.121,898.856C926.771,961.756 972.352,993.987 994.52,1033.53C1010.39,1061.84 1015.26,1089.97 1002.56,1117.81C992.228,1140.44 975.673,1150.98 956.501,1137.57C913.332,1107.36 874.425,1076.38 836.504,1045.22C822.183,1070.31 808.448,1069.42 805.456,1047.34C804.944,1043.56 804.746,1039.17 804.914,1034.17C667.483,1241.11 481.718,1397.16 168.192,1336.12C-3.078,1302.78 -35.099,1217.15 34.075,1056.1C43.944,1033.12 51.761,1004.34 58.588,977.62L58.6,977.574C41.365,947.546 43.312,897.383 42.962,873.024C42.768,859.527 49.812,853.728 59.146,854.886C66.566,832.34 77.705,812.583 93.254,796.133C96.938,740.09 103.626,685.113 113.872,631.398C110.016,630.902 110.771,626.203 112.819,620.325C111.846,615.629 111.589,612.081 114.317,613.326C114.801,609.089 115.249,604.765 117.607,604.96C118.507,601.106 120.473,597.986 124.677,596.406C151.567,510.935 210.649,445.103 327.316,414.405L327.925,414.245C328.168,412.401 328.975,410.695 330.349,409.127C334.833,404.007 345.354,400.358 361.942,398.187C364.982,387.363 384.618,379.784 396.069,390.543C399.273,390.124 402.558,389.771 405.974,389.525C409.12,389.299 412.376,389.164 415.784,389.153C419.084,384.443 420.458,378.303 420.722,371.34C412.402,369.272 413.272,358.251 420.905,355.099C422.738,312.965 412.122,292.617 396.748,280.595C384.029,275.108 388.598,264.636 398.76,257.04C444.6,222.772 471.662,139.722 485.42,22.107C488.856,-7.265 510.386,-7.71 511.942,22.821C516.328,108.888 539.388,220.399 595.55,254.817C600.537,257.873 605.386,260.76 604.409,267.311C603.649,272.411 600.728,275.783 595.806,277.554C578.202,294.988 571.476,320.581 574.463,353.459C579.154,358.889 578.697,365.294 572.767,369.622C573.29,374.881 574.379,379.882 576.428,384.446C577.292,384.709 578.179,384.954 579.091,385.181C582.36,385.993 585.949,386.566 589.912,386.857C600.45,373.571 628.024,378.513 625.12,393.723C671.986,394.466 713.982,411.314 748.147,444.337C828.421,484.321 879.415,546.266 889.923,638.575C892.796,643.707 894.554,649.416 893.079,656.796C896.541,656.953 899.553,658.25 899.919,661.99C900.818,671.163 894.434,684.456 896.262,684.559C898.356,684.676 899.288,679.797 900.122,674.895C901.109,674.343 902.687,674.276 902.938,675.115C906.087,685.625 899.95,689.993 899.866,697.903C901.953,698.655 902.965,696.764 903.304,693.221C906.612,693.688 909.194,696.673 907.876,701.56C906.547,705.035 904.677,707.428 902.499,709.205L903.121,712.973C904.627,712.413 905.179,711.253 907.071,710.668C908.448,712.447 909.892,714.482 909.522,717.325C908.985,721.458 907.026,724.526 906.998,727.238C906.961,730.824 909.793,731.658 909.778,737.223C909.762,743.195 908.195,746.844 905.204,747.228C904.895,696.405 887.439,661.115 870.465,661.115C853.339,661.115 829.024,706.534 829.024,746.369C829.024,792.859 836.276,834.135 862.093,834.135C880.18,834.135 897.584,801.21 903.273,769.219ZM88.326,964.757C84.442,962.819 73.146,964.87 73.356,968.939C74.23,985.876 75.272,1002.93 77.053,1020.52C77.836,1028.25 78.929,1035.51 84.387,1039.73C98.982,1051.03 114.746,1060.96 131.54,1069.67C137.315,1072.67 143.834,1067.82 143.54,1059.91C142.867,1041.79 141.688,1023.72 139.722,1005.73C138.925,998.434 135.246,990.92 128.873,987.061C114.871,978.584 101.423,971.295 88.326,964.757ZM82.935,971.013C99.375,981.279 115.741,990.421 132.052,998.748C132.78,1019.13 133.748,1039.99 134.864,1061.15C118.717,1054.52 101.668,1044.7 83.323,1030.31C81.226,1000.13 81.539,982.704 82.935,971.013ZM152.573,756.843C148.046,761.106 143.837,764.143 139.893,766.158C136.539,767.872 140.39,778.265 143.599,774.595C147.503,770.131 151.729,768.033 156.133,767.231C158.653,766.772 160.174,766.858 162.488,768.281C160.144,760.794 155.978,753.637 152.573,756.843ZM369.55,630.359C364.969,640.121 364.668,650.224 364.307,660.323C363.967,669.832 381.797,669.538 386.998,659.636C387.925,657.872 386.884,655.488 385.375,653.612C381.797,654.566 379.131,653.491 377.385,650.366C377.334,646.006 378.226,641.732 380.006,637.538C374.038,640.433 371.023,637.038 369.55,630.359ZM224.63,541.776C227.135,544.461 228.518,542.787 233.338,538.592C237.206,535.226 238.236,531.127 235.242,525.858C233.305,522.447 230.941,519.436 227.938,517.025C224.749,515.243 221.855,516.529 220.073,518.148C215.702,522.12 214.896,525.773 216.234,529.853C217.551,533.871 221.44,538.356 224.63,541.776ZM371.381,621.444C378.601,623.113 386.176,610.76 390.998,614.625C399.669,621.574 411.167,624.941 421.707,623.007C436.449,620.303 449.341,610.334 450.893,598.927C452.434,587.596 445.68,573.784 446.092,562.807C446.481,552.475 454.804,535.383 470.02,531.412C487.2,526.928 496.53,529.85 495.243,541.623C502.713,540.428 512.062,540.575 515.677,545.455C520.853,552.442 518.015,559.34 513.303,564.636C523.579,561.348 538.672,569.471 534.182,579.038C527.68,592.891 518.497,601.239 507.054,604.947C512.25,610.322 517.252,620.08 514.979,627.427C512.389,635.799 499.784,639.721 486.556,636.952C487.625,643.499 487.055,650.821 483.526,654.491C475.31,663.035 463.387,661.16 450.36,654.098C450.749,660.321 450.051,669.054 443.959,670.633C435.313,672.875 427.649,671.107 420.564,666.976C418.954,672.547 414.462,677.289 407.762,677.187C399.892,677.066 393.121,673.935 387.721,667.052C374.447,671.165 364.987,670.414 362.117,661.261L355.039,677.255C356.943,700.331 372.643,699.819 378.852,677.494C379.336,700.823 383.956,720.612 401.832,729.049C412.107,733.899 419.866,736.002 424.289,733.753C427.797,731.968 430.632,723.76 428.264,720.238C421.371,709.986 418.182,698.281 416.596,685.947C427.796,722.949 447.853,738.182 477.677,729.406C485.56,706.032 465.103,690.977 447.791,674.279C465.039,689.435 484.084,700.721 509.824,703.093C528.756,704.837 541.986,701.253 545.851,691.15C550.102,680.038 545.153,670.775 529.653,670.083C509.299,669.175 496.641,662.472 485.461,655.621C525.042,671.833 555.18,669.547 579.57,656.002C587.97,651.337 593.6,641.238 590.81,630.474C589.584,625.743 584.09,626.419 576.522,627.998C547.003,634.155 534.526,632.5 519.271,630.282C555.316,631.572 594.528,618.494 608.146,602.47C615.78,593.487 623.026,583.194 612.718,576.085C606.167,571.566 597.504,572.988 588.715,579.133C566.063,594.969 547.639,598.225 523.685,598.56C567.079,592.043 592.509,576.216 612.623,552.272C616.604,540.253 621.725,527.773 607.003,523.315C602.33,521.9 596.88,525.82 591.096,531.507C561.413,560.689 543.995,562.115 526.8,563.035C557.108,555.114 580.767,537.473 595.858,507.313C599.208,500.618 592.964,486.796 583.857,486.357C574.893,485.925 567.97,489.43 564.997,495.501C552.841,520.319 533.022,534.544 507.601,541.024C526.123,531.535 542.902,519.237 552.042,494.633C556.997,481.294 554.172,470.743 537.229,469.211C518.25,467.496 517.028,487.372 508.545,496.568C489.36,517.364 465.473,524.6 442.725,536.574C433.389,541.488 428.3,549.249 425.865,560.006C422.811,573.497 439.922,576.15 440.915,589.249C437.891,599.331 432.795,608.071 423.484,610.3C417.684,611.688 411.354,610.926 403.576,604.299C400.175,601.401 391.987,603.509 385.954,605.251C372.618,609.102 370.445,614.989 371.381,621.444ZM453.352,582.37C453.847,584.603 454.059,587.191 454.035,590.075C460.309,596.638 474.642,587.03 471.153,580.712C467.471,574.045 461.455,574.861 453.352,582.37ZM821.783,739.057C822.078,734.884 822.619,730.683 823.373,726.503C815.917,722.983 809.833,721.919 805.285,723.605C809.061,729.689 814.684,734.773 821.783,739.057ZM410.851,279.995C423.841,294.015 432.611,316.111 430.896,355.534C430.889,355.692 430.878,355.849 430.864,356.005C453.891,357.575 511.318,359.484 553.752,356.055C540.713,355.513 520.999,354.169 508.742,349.322C502.602,319.499 504.291,296.129 514.466,279.752C474.745,281.332 437.134,281.998 410.851,279.995ZM437.731,295.37C445.753,295.37 457.55,305.151 457.55,315.446C457.55,325.742 453.8,331.458 445.778,331.458C437.755,331.458 432.339,323.994 429.86,313.821C427.422,303.818 429.708,295.37 437.731,295.37ZM145.486,591.535C133.075,591.376 130.45,600.445 138.49,603.605C126.665,614.352 133.664,635.023 158.924,624.881C149.684,629.775 139.262,636.022 137.807,644.279C134.607,662.43 136.845,670.979 143.659,671.443C148.92,671.801 162.77,651.843 162.908,651.912C159.19,659.653 135.889,681.809 148.438,687.049C154.334,689.511 160.498,685.526 165.763,679.411C163.408,685.624 162.516,694.068 171.347,690.281C164.881,700.004 171.11,709.994 179.366,703.694C186.178,706.984 192.195,704.937 196.731,692.944C199.866,703.962 213.002,693.55 228.675,677.704C232.866,680.212 237.497,681.748 242.533,682.388C241.491,675.368 241.569,667.339 243.137,658.189C238.369,656.751 234.735,652.934 232.366,646.458C221.993,656.33 216.697,653.51 214.907,641.923C205.741,644.345 201.672,641.094 201.739,633.242C184.824,636.543 181.249,624.56 194.375,610.418C185.94,609.92 180.911,606.561 178.978,600.601C171.123,597.068 170.252,589.113 174.101,578.167C175.919,573 180.366,569.565 184.562,568.068C178.513,565.789 176.395,560.065 185.05,544.903C188.358,539.108 193.102,537.794 198.827,538.136C197.101,532.092 201.597,527.656 211.446,524.603C212.877,519.249 216.192,515.15 224.258,514.219C227.95,513.793 237.892,524.292 238.81,531.61C238.564,540.42 225.915,545.462 223.643,549.342C211.797,569.574 213.733,579.912 215.099,590.659C216.865,604.562 228.18,606.736 235.777,599.399C236.239,602.817 238.559,605.641 243.549,607.748C246.683,609.071 248.849,612.144 251.539,612.742C252.536,612.963 253.527,613.146 254.512,613.293C256.098,607.748 257.864,601.992 259.924,595.916C249.821,591.042 240.571,586.116 232.293,588.296C226.321,585.443 227.379,568.889 236.194,559.339C238.704,556.62 255.324,563.097 263.398,545.013C268.347,533.929 264.055,522.797 255.499,513.195C245.104,501.529 240.959,488.063 248.641,475.246C258.605,458.621 236.701,457.982 229.59,472.503C223.4,485.144 220.885,498.004 221.665,511.061C218.736,504.063 219.084,492.484 224.79,473.417C226.583,467.426 207.455,477.121 200.177,484.619C181.354,504.011 177.638,520.86 179.221,536.817C176.527,533.889 173.871,529.144 174.878,521.958C176.969,507.025 150.88,524.513 159.17,560.785C137.603,551.462 138.807,574.378 150.152,577.856C135.532,576.241 136.023,589.607 145.486,591.535C146.45,591.547 147.472,591.615 148.552,591.746C147.447,591.804 146.423,591.726 145.486,591.535ZM825.523,716.737C826.167,714.253 826.88,711.789 827.653,709.358L819.8,701.24C816.03,700.783 814.151,701.728 813.673,703.709L825.523,716.737ZM868.202,653.962C869.202,653.749 870.186,653.639 871.152,653.639C872.592,653.639 874.035,653.832 875.474,654.209C874.877,644.532 873.629,635.398 871.498,626.999C869.766,635.432 868.63,644.387 868.202,653.962ZM239.556,628.782C236.846,630.947 232.622,631.288 227.664,630.124C222.227,632.994 219.379,636.763 218.02,641.048C215.546,648.851 229.575,652.049 231.784,642.765C233.021,637.57 235.573,632.895 239.556,628.782ZM241.743,627.744C231.738,641.161 232.734,649.272 240.416,654.157C244.373,656.673 247.018,655.97 247.673,651.738C248.95,643.487 251.224,635.366 254.032,627.315C250.35,631.234 246.258,631.42 241.743,627.744ZM215.883,560.753C210.286,560.073 206.884,561.195 205.948,564.344C199.758,565.369 197.765,568.024 197.156,571.215C196.525,574.526 198.64,575.576 201.95,574.286C204.517,573.287 209.107,575.564 212.987,573.862C212.987,569.36 214.053,565.004 215.883,560.753ZM81.184,887.987C79.167,918.522 93.784,947.269 129.963,973.7C145.73,972.933 156.517,972.303 161.236,995.213C205.896,1014.67 249.537,1021.81 274.709,1021.59C396.748,1020.51 500.554,1015.89 503.428,1005.18C432.951,1010.85 360.839,1008.1 288.577,1000.21C156.224,985.744 85.57,943.291 81.184,887.987ZM333.98,475.563C337.31,474.341 343.464,472.384 345.411,473.339C355.664,478.365 366.537,482.389 377.872,485.668C382.779,487.087 388.854,489.522 394.183,493.18C391.396,484.058 383.954,477.218 375.768,475.701C343.203,469.667 338.5,472.585 333.98,475.563ZM160.469,781.766C157.13,785.426 152.574,787.498 147.477,788.867C151.295,801.127 156.153,812.01 164.136,818.752C174.068,827.14 192.088,820.648 186.063,810.91C180.67,802.194 177.084,793.2 174.397,784.068C169.546,783.81 164.84,783.196 160.469,781.766ZM400.507,829.888C406.664,827.239 412.722,815.899 422.064,817.825C428.168,819.083 433.194,827.482 429.895,839.281C432.901,836.367 435.66,832.539 440.499,834.211C453.169,838.591 455.778,843.824 457.203,849.482C461.288,847.809 464.155,843.759 466.054,837.82C472.732,823.748 473.181,811.698 465.96,794.598C466.082,786.877 467.359,780.023 472.062,775.739C473.601,779.233 475.237,782.046 477.088,783.355C479.217,784.86 486.937,779.273 485.527,777.555C482.861,774.308 479.768,772.215 476.436,770.766C477.12,769.629 477.169,768.571 476.787,767.567C483.593,764.088 489.464,760.622 481.313,757.345C479.258,756.519 475.781,756.14 474.954,757.267C473.54,759.193 472.8,761.402 472.652,763.86C470.774,764.02 469.4,764.809 468.321,765.967C467.169,761.117 463.655,755.385 460.986,756.447C455.118,758.782 452.964,763.593 451.895,769.127C451.523,771.056 455.406,770.414 458.138,770.259C460.02,770.152 461.371,769.127 463.444,769.245C462.56,771.3 462.702,773.028 463.483,774.551L450.238,783.078C433.152,771.178 416.941,775.019 401.286,788.87C392.684,790.489 389.444,794.33 389.947,799.721C387.18,803.773 385.981,808.058 386.023,812.526L400.507,829.888ZM363.67,408.037C363.528,408.062 363.384,408.084 363.24,408.103C353.721,409.348 346.446,411.02 341.467,413.372C340.421,413.866 339.508,414.379 338.747,414.943C338.408,415.194 337.962,415.651 337.801,415.82C337.543,417.439 336.898,418.933 335.959,420.2C357.575,430.593 405.681,435.327 465.196,437.622C542.042,440.587 651.19,428.913 662.758,416.951C670.436,409.012 618.085,403.74 581.337,395.869C579.362,395.522 577.48,395.107 575.681,394.629C573.482,395.859 570.09,397.101 565.703,398.206C555.536,400.766 539.418,402.947 521.318,404.338C482.909,407.291 435.64,406.522 417.187,399.054C416.736,399.118 416.279,399.151 415.818,399.153C413.381,399.161 411.026,399.237 408.738,399.368C389.797,400.972 374.317,405.297 365.15,407.66C364.671,407.821 364.177,407.948 363.67,408.037ZM540.588,293.687C530.526,293.687 519.152,302.725 519.152,313.096C519.152,323.466 526.385,330.429 536.448,330.429C546.51,330.429 554.575,321.073 554.575,310.703C554.575,300.332 550.651,293.687 540.588,293.687ZM485.976,577.053C492.368,588.969 488.277,594.853 476.32,596.17C486.379,600.708 496.791,602.541 507.63,601.096C513.496,594.465 525.215,586.523 524.992,579.589C524.636,568.535 515.294,562.8 510.215,567.835C503.899,574.096 495.673,576.904 485.976,577.053ZM822.3,770.752C822.09,767.681 821.926,764.56 821.804,761.399C811.669,764.363 807.906,768.17 809.5,772.685C813.502,772.916 817.746,772.347 822.3,770.752ZM828.807,705.884C830.254,701.704 831.875,697.636 833.634,693.735C829.908,688.626 826.301,683.738 822.865,679.173L821.128,684.385L815.733,682.876C819.715,690.841 824.113,698.479 828.807,705.884ZM212.191,579.603C209.548,580.67 206.743,581.273 203.801,581.488C198.89,581.848 207.077,590.29 209.011,589.574C210.489,589.028 213.427,587.746 213.022,586.426C212.281,584.01 211.953,581.72 212.191,579.603ZM841.361,679.073C842.715,676.866 844.108,674.765 845.526,672.785C842.254,665.752 838.945,659.653 835.576,655.034C836.252,662.46 838.177,670.471 841.361,679.073ZM220.003,551.589C218.298,551.114 216.723,550.64 215.284,550.166C211.026,548.762 209.068,549.124 208.393,552.937C203.806,552.381 202.545,557.739 206.07,558.78C209.872,559.903 213.239,560.237 216.308,560.029C217.16,557.152 218.352,554.332 220.003,551.589ZM347.498,685.585C337.097,708.137 315.579,720.542 277.876,723.127C277.325,723.164 276.773,723.088 276.253,722.902C265.179,718.937 254.442,711.477 247.969,699.29C246.288,696.125 244.89,692.631 243.856,688.784C236.215,690.93 228.117,691.121 225.458,693.248C218.788,698.583 204.682,696.912 198.787,713.289C189.756,738.381 199.976,751.272 199.321,755.886C198.762,759.822 200.956,760.131 207.855,756.115C209.651,764.12 209.873,772.649 209.588,781.382C209.294,790.367 215.917,787.079 216.248,777.142C217.952,791.486 229.579,791.797 226.677,772.27C228.391,776.187 230.936,779.583 236.584,781.033C242.808,782.631 243.798,780.318 240.546,769.831C238.716,763.93 239.779,754.786 246.795,743.923C248.186,741.768 249.071,739.522 249.317,737.16C249.652,733.96 254.653,730.967 259.681,731.216C262.661,731.364 263.894,733.719 263.338,735.712C260.252,746.783 254.395,753.604 248.174,759.868C250.663,762.024 254.044,763.36 258.614,763.602C246.924,781.044 231.616,799.972 218.913,790.578C215.843,791.947 214.23,793.978 213.502,796.293C207.161,816.476 222.567,831.464 238.42,813.286C250.959,798.91 259.983,781.161 269.206,763.602C256.371,791.273 248.117,825.484 221.885,834.028C222.741,831.473 223.333,828.211 220.848,827.566C216.551,826.451 212.713,824.352 209.326,821.287C204.017,816.481 194.163,815.962 189.941,821.226C181.016,832.354 177.037,844.096 187.136,857.254C196.197,869.059 206.15,855.099 199.634,850.671C195.014,847.531 192.377,843.14 195.671,835.003C209.373,834.057 217.931,834.615 220.604,836.893C218.348,847.233 217.225,857.596 222.914,863.312C236.478,876.938 245.22,863.059 260.942,820.139C255.972,844.449 252.348,848.726 247.716,859.601C244.913,866.18 247.183,871.895 251.204,871.789C257.364,871.627 262.815,864.307 267.227,846.499C267.485,865.294 260.091,866.629 261.111,868.455C265.912,877.053 276.567,884.809 282.447,882.743C288.97,880.451 292.646,875.674 291.782,866.931C285.778,861.534 286.38,855.022 289.02,848.166C295.453,865.924 308.61,882.03 322.739,872.361C332.654,865.575 335.206,859.47 325.978,854.453C333.437,858.492 341.061,852.489 347.695,854.834C357.696,861.299 346.517,866.919 344.742,870.455C336.332,887.212 363.369,887.148 369.984,875.98C376.649,864.729 377.09,850.02 354.363,838.641C347.809,835.36 324.335,846.872 321.025,844.452C313.826,839.189 312.302,829.712 306.451,820.734C313.711,829.24 323.593,835.657 331.788,835.688C350.553,835.761 352.844,812.05 336.265,811.304C323.567,810.732 313.148,804.018 307.118,781.775C309.797,777.762 308.231,771.592 304.355,764.249C306.869,766.626 310.9,769.821 313.5,769.488C319.114,768.768 322.417,766.224 320.643,759.677C319.896,756.918 307.874,753.472 307.88,749.199C307.889,741.498 308.929,735.076 311.957,731.121C314.347,740.698 322.221,746.814 325.795,756.481C319.864,765.123 320.86,779.525 320.735,789.34C320.619,798.473 333.074,804.484 337.012,799.764C341.356,794.557 345.573,789.224 349.082,783.182C351.716,782.45 354.257,782.963 356.642,785.56C397.046,769.225 406.477,737.952 383.952,721.245C370.835,711.517 356.925,699.909 347.498,685.585ZM504.143,1016.01C507.282,1038.47 510.781,1059.57 514.931,1078.19C516.951,1087.26 527.541,1091.31 538.204,1088.68C582.081,1077.85 624.403,1066.12 660.997,1051.04C670.911,1046.96 673.515,1039.95 672.634,1028.13C671.37,1011.19 669.545,994.176 667.118,977.1C665.899,968.523 657.428,962.411 650.512,963.826C607.738,972.581 564.008,983.355 519.416,995.949C509.606,998.719 502.657,1005.38 504.143,1016.01ZM520.018,1012.69C519.727,1010.19 522.573,1007.69 527.196,1006.57C564.775,997.45 601.501,987.619 637.564,977.236C641.289,976.164 650.944,980.109 651.504,983.357C654.608,1001.35 656.744,1019.92 658.232,1038.88C658.369,1040.63 656.467,1042.64 654.474,1043.36C616.981,1056.97 578.064,1068.76 538.348,1079.54C534.144,1080.68 530.159,1080.55 529.439,1076.63C525.538,1055.43 522.505,1034.1 520.018,1012.69ZM462.594,595.073C458.624,600.145 451.034,602.642 450.538,606.894C459.762,615.881 467.832,614.259 475.391,607.948C480.15,603.974 470.436,596.426 462.594,595.073ZM852.778,663.976C856.926,659.669 861.139,656.526 865.178,654.899C863.598,646.26 861.71,638.145 859.294,630.928C858.791,638.535 858.877,646.206 859.328,653.916C856.401,643.03 852.697,634.114 847.829,628.15C848.277,640.472 850.155,652.342 852.778,663.976ZM469.348,573.494C472.605,580.106 475.15,586.747 475.152,593.489C482.259,593.117 488.556,590.167 487.246,585.784C485.973,581.521 483.647,577.974 480.029,575.64C476.468,573.343 472.908,572.929 469.348,573.494ZM414.494,643.112C407.552,648.552 402.667,646.932 399.387,639.803C398.057,643.59 395.724,645.204 391.896,643.58C389.324,655.107 390.682,662.09 394.518,666.209C401.617,673.83 411.175,672.281 416.866,665.335C420.201,661.266 417.089,650.553 414.494,643.112ZM210.731,602.482C205.724,608.039 200.717,611.152 195.71,612.236C181.809,625.509 192.325,637.578 202.421,629.597C206.859,628.493 209.847,624.622 213.619,620.853C207.763,619.139 205.549,615.546 210.731,602.482ZM442.003,640.115C438.699,640.995 435.788,640.822 433.108,640.037C429.929,647.551 420.55,647.494 416.292,641.91C418.212,649.417 420.058,656.798 420.194,661.262C429.569,672.898 443.149,673.334 447.232,660.442C450.302,650.747 445.609,644.914 442.003,640.115ZM385.484,618.762C382.381,619.78 378.491,621.321 373.438,623.639C371.731,630.577 373.284,638.492 377.778,636.758C383.465,634.564 386.299,628.889 385.484,618.762ZM225.821,544.697C221.417,538.912 215.874,541.042 214.57,543.427C213.589,545.222 213.505,550.535 220.827,550.59C221.51,548.358 222.942,546.33 225.821,544.697ZM664.472,439.847C768.401,477.735 833.134,536.969 804.931,646.815C821.65,624.313 841.783,607.24 873.998,609.375C841.034,510.844 752.752,441.043 664.472,439.847ZM206.008,547.063C207.294,548.193 212.244,548.098 212.344,546.907C212.731,542.318 217.717,540.178 217.65,538.511C217.438,533.199 215.195,529.644 211.47,529.772C206.578,529.939 202.016,531.406 201.482,534.859C200.627,540.391 202.668,544.129 206.008,547.063ZM380.364,432.049C378.596,432.611 376.827,433.001 375.058,433.297C371.088,440.81 369.816,446.008 371.492,448.674C375.727,449.137 380.486,444.269 385.733,434.452C383.748,433.846 381.923,433.081 380.364,432.049ZM380.896,586.025C377.686,593.548 374.771,600.993 372.014,608.597C374.47,608.109 376.957,607.506 379.474,606.779C379.926,599.866 380.421,592.943 380.896,586.025ZM835.329,690.114C836.893,686.894 838.547,683.807 840.269,680.888C836.9,675.388 833.6,670.133 830.409,665.273L828.992,669.388L823.414,668.108C826.914,675.879 830.882,683.217 835.329,690.114ZM199.941,562.151C201.413,560.126 201.288,558.918 199.517,558.081C195.846,556.345 193.432,554.437 191.501,552.462C193.741,553.415 195.932,554.272 198.867,556.582C199.884,557.383 202.993,557.716 202.987,556.433C202.975,553.688 204.301,553.046 205.967,552.418C207.589,551.807 207.601,550.042 207.057,548.867C204.996,547.598 202.959,545.807 200.965,543.074C199.589,541.188 196.419,540.455 193.699,542.025C188.76,544.876 185.129,549.653 182.587,556.033C181.071,559.837 182.432,565.775 186.982,566.745C192.628,567.949 196.905,566.327 199.941,562.151ZM136.738,746.544C141.522,742.163 151.602,736.171 155.593,739.616C156.04,736.377 156.112,734.416 159.648,732.721C155.352,718.41 150.417,704.362 143.39,692.392C140.632,693.447 138.954,694.094 134.244,693.594C133.139,709.915 131.958,731.555 136.738,746.544ZM417.256,629.124C417.288,628.101 417.28,627.05 417.233,625.98C411.697,627.097 406.886,627.545 403.041,627.102C400.412,636.876 401.134,643.045 407.089,643.586C412.729,644.098 415.804,639.714 416.856,633.378C416.543,640.72 418.731,645.024 425.523,643.732C430.836,642.722 432.402,637.997 431.522,630.516C432.815,637.015 435.491,641.177 442.641,637.782C447.023,635.702 444.574,627.306 439.764,618.567C432.281,623.107 424.878,625.797 417.525,627.346C417.426,627.95 417.336,628.544 417.256,629.124ZM475.157,556.304C475.643,561.867 474.996,566.581 473.401,570.583C486.541,579.233 511.387,573.304 511.285,555.289C511.244,547.935 503.978,542.143 491.582,546.121C484.825,548.289 479.521,551.846 475.157,556.304ZM200.674,587.428C195.848,595.608 190.983,599.724 185.006,603.034C181.009,605.247 192.564,610.783 196.648,608.34C202.206,605.016 206.363,600.116 209.257,593.796C209.897,592.399 205.808,591.036 204.201,587.678C203.396,585.996 201.229,586.487 200.674,587.428ZM650.974,955.671L662.101,960.092C687.012,930.121 713.551,900.761 742.502,872.305L753.014,870.885C759.097,858.58 767.669,845.815 780.571,832.247C789.056,825.855 797.904,819.01 808.413,810.087C816.651,801.418 823.181,791.61 828.389,780.92C757.266,835.634 705.858,896.165 650.974,955.671ZM390.743,642.751C387.404,641.6 385.916,638.543 385.406,634.479C384.491,636.466 383.096,637.716 381.099,638.038C379.642,643.016 379.101,647.666 379.725,651.896C385.941,654.432 389.19,650.453 390.743,642.751ZM224.137,617.827C221.119,619.854 217.927,621.084 214.493,621.197C211.969,625.811 209.11,629.371 206.003,632.153C200.354,637.212 214.522,644.013 218.426,638.052C220.939,634.213 223.559,630.55 226.322,627.128C224.59,624.438 224.038,621.265 224.137,617.827ZM236.077,605.13C233.827,611.867 226.439,615.388 226.479,618.668C226.634,631.309 239.762,632.051 241.039,622.82C241.761,617.601 243.884,615.14 245.798,611.879C241.227,609.913 238.647,607.763 236.077,605.13ZM152.745,741.062C148.614,739.884 141.663,746.107 137.646,750.426C133.196,755.211 135.19,762.957 139.948,762.56C143.437,762.269 145.501,756.756 148.804,755.381C151.143,754.408 158.153,755.892 157.739,754.055C156.05,746.565 158.845,742.802 152.745,741.062ZM206.208,759.185C199.883,760.69 192.205,761.885 183.803,763.808C181.207,754.731 177.587,744.165 170.946,738.724C161.747,731.188 157.462,733.538 157.611,740.534C157.827,750.648 160.145,760.287 164.393,769.491C164.804,773.534 164.478,777.164 162.808,780.037C178.018,782.307 192.628,781.821 207.184,781.082C207.558,773.114 207.366,765.688 206.208,759.185ZM196.257,568.079C191.021,568.345 186.37,569.583 182.133,571.513C178.965,572.956 176.856,576.107 176.281,578.848C175.396,583.071 173.755,588.192 175.15,591.605C176.769,595.568 179.311,597.86 182.328,599.291C185.244,600.675 188.266,599.878 189.819,598.433C192.524,595.918 196.562,591.56 198.676,588.562C200.046,586.618 196.208,582.933 196.842,577.911C197.104,575.838 195.419,572.292 196.257,568.079ZM156.375,782.254C163.623,774.816 162.172,766.931 156.68,768.416C151.712,769.759 147.905,772.386 144.914,775.914C140.527,781.089 142.702,787.335 146.987,786.521C150.894,785.779 154.292,784.391 156.375,782.254ZM451.742,573.152C460.046,576.561 470.197,577.265 472.323,564.325C473.281,558.492 464.279,547.494 458.082,549.743C453.826,551.287 450.894,554.295 449.109,558.57C448.241,565.236 448.838,570.388 451.742,573.152ZM133.66,687.344C136.27,685.658 138.828,684.818 141.749,685.425C140.437,678.568 138.675,672.036 136.79,664.618C135.564,659.794 135.601,654.27 136.213,649.074C131.158,650.984 127.043,652.482 119.804,654.288C123.55,658.677 125.542,663.378 127.621,668.808C130.099,675.278 130.306,682.21 133.66,687.344ZM464.208,623.06C461.898,629.148 455.603,630.803 448.211,631.205C448.923,634.876 446.85,637.401 443.139,639.251C448.669,650.426 456.027,654.107 464.159,654.614C476.299,655.37 486.876,648.823 481.277,639.251C476.451,631.003 470.347,626.974 464.208,623.06ZM212.463,574.856C209.668,575.248 206.804,575.253 203.881,574.92C199.859,574.463 197.749,581.413 203.226,580.737C206.765,580.3 209.777,579.56 212.207,578.484C212.035,577.167 212.124,575.96 212.463,574.856ZM285.067,568.035C318.124,570.489 349.252,574.311 378.331,579.584C379.531,579.801 380.565,580.553 381.142,581.627L381.189,581.717C382.876,556.539 384.112,531.448 381.79,507.046C387.725,506.012 392.016,503.153 395.141,498.999C391.198,496.266 389.736,489.777 385.875,489.245C370.505,487.125 357.185,482.839 345.457,476.87C341.004,477.42 336.625,477.317 332.302,476.697C324.83,480.243 322.656,488.011 324.157,498.71C306.648,482.822 294.997,481.321 289.348,494.564C308.714,493.549 309.981,499.121 316.093,505.633C309.615,502.392 300.112,500.38 290.811,499.441C292.019,511.757 308.924,510.563 318.865,515.22C315.278,535.972 301.819,552.678 285.067,568.035ZM335.607,484.669C342.849,485.708 346.41,482.472 356.761,489.912C345.77,493.803 340.928,491.061 335.607,484.669ZM457.302,546.866C463.783,547.372 468.817,549.87 472.177,554.669C484.08,551.963 497.417,537.205 491.489,535.454C478.848,531.719 467.186,536.293 457.302,546.866ZM476.919,599.394C482.385,609.834 475.324,615.851 460.571,615.585C471.538,629.133 483.248,636.232 496.505,629.904C504.528,626.074 509.398,618.325 504.464,612.308C497.637,603.983 488.012,600.435 476.919,599.394ZM846.676,671.214C848.664,668.557 850.697,666.141 852.746,664.01C848.981,653.603 845.004,645.033 840.377,642.095C840.618,650.858 842.748,660.579 846.676,671.214ZM246.445,612.64C244.197,616.587 242.879,620.501 243.441,624.344C244.235,629.778 252.025,629.775 254.248,624.578C255.87,620.787 257.074,616.926 258.071,613.03C254.361,616.122 250.339,615.897 246.445,612.64ZM338.691,470.55C344.077,467.325 356.065,465.366 367.417,466.6C380.316,468.001 387.925,474.382 393.947,480.938L393.362,472.647L416.04,456.407C416.913,450.965 416.102,443.106 411.699,441.24C404.352,438.125 396.593,435.781 387.997,434.997C381.626,446.148 377.786,450.996 371.004,450.397C366.64,450.011 367.891,444.108 373.318,433.046C358.009,436.02 350.04,440.703 346.885,446.507C345.228,449.552 345.925,454.034 345.031,456.943C343.512,461.89 341.293,466.353 338.691,470.55ZM214.256,600.263C202.089,624.422 220.949,624.16 229.433,607.871C223.668,606.278 218.462,603.938 214.256,600.263ZM30.493,1092.03C9.062,1150.83 7.507,1190.54 24.487,1227.91C44.22,1271.35 91.112,1294.42 172.483,1310.26C479.84,1370.1 661.212,1214.04 796.31,1011.55L783.242,1000.75C604.46,1244.11 445.656,1336.16 179.654,1294.42C64.289,1276.32 1.699,1215.48 30.493,1092.03ZM452.411,610.757C448.712,613.698 444.885,615.996 440.979,617.897C444.055,622.81 447.445,627.746 451.825,627.924C455.939,628.091 459.404,627.133 461.54,623.866C463.21,621.313 456.61,614.752 452.411,610.757ZM821.611,754.911C821.551,752.056 821.523,749.174 821.523,746.274L821.525,745.545C816.223,744.36 811.282,743.921 806.714,744.252C807.762,748.829 812.989,752.314 821.611,754.911ZM499.346,11.511C499.278,11.394 499.209,11.278 499.141,11.166C498.81,11.604 498.472,12.097 498.233,12.56C496.85,15.239 495.872,18.828 495.352,23.269C486.956,95.048 473.579,154.146 454.237,197.488C440.749,227.712 424.255,250.466 404.747,265.049C403.39,266.064 401.986,267.627 400.904,268.961C431.182,272.742 490.693,271.342 541.097,268.893C483.808,217.896 495.971,107.558 499.346,11.511ZM388.41,622.517C386.091,632.129 386.984,639.312 392.068,640.562C397.903,641.996 400.475,635.636 401.626,625.883C396.668,626.541 392.197,625.631 388.41,622.517ZM788.943,851.546C776.358,851.546 772.094,866.815 772.094,889.062C772.094,897.732 782.759,902.032 791.428,902.032C800.098,902.032 811.368,883.817 811.368,871.001C811.368,858.185 801.529,851.546 788.943,851.546ZM793.112,858.306C789.075,871.107 789.902,883.511 795.764,895.504C788.698,893.525 782.44,886.356 781.976,878.458C781.148,864.379 787.1,862.692 793.112,858.306ZM823.377,782.61C823.133,780.497 822.916,778.351 822.724,776.175C814.266,781.767 811.078,786.773 810.643,791.474C814.623,789.181 818.87,786.221 823.377,782.61ZM157.756,1068.41C126.911,1139.6 113.868,1207.78 118.042,1273.05C137.933,1280.85 160.076,1285.91 184.512,1289.67C180.861,1227.45 216.506,1162.51 305.582,1093.88C260.002,1093.34 211.228,1085.92 157.756,1068.41ZM351.28,784.639L341.916,798.248C358.02,810.011 371.883,823.932 383.597,839.923C386.459,843.829 390.02,845.076 395.606,845.653C396.392,854.802 400.531,862 414.017,863.758C431.566,866.046 445.339,860.003 453.52,850.957C456.161,848.036 441.026,834.61 439.133,836.813C427.73,850.086 416.906,851.442 406.336,847.543C415.726,845.215 423.954,841.332 426.88,830.352C428.336,824.884 416.859,817.94 414.87,821.207C410.436,828.493 405.318,833.263 398.594,832.119C385.356,814.494 369.556,798.688 351.28,784.639ZM142.005,686.644C139.424,685.456 134.425,687.891 133.421,689.391C132.32,691.038 132.808,692.578 135.232,692.668C138.82,692.802 142.303,692.29 143.503,691.232C145.78,689.224 144.557,687.82 142.005,686.644ZM122.585,623.694C124.081,621.432 125.31,619.011 126.191,616.381C127.821,611.518 123.812,609.343 122.972,611.797C122.043,614.512 119.61,617.839 119.412,620.234C119.017,625.009 117.151,629.476 116.242,633.743C114.49,641.97 114.541,647.606 114.925,652.763C121.285,652.697 125.606,651.111 129.215,648.812C136.208,644.358 132.617,635.329 128.337,638.181C127.032,639.05 125.522,639.509 123.801,639.546C129.608,638.075 130.395,627.093 126.581,629.402C123.058,631.536 121.435,633.258 119.9,634.962C121.759,631.485 126.45,628.002 126.971,623.891C127.697,618.169 126.077,618.51 122.585,623.694ZM877.502,654.864C879.403,655.594 881.29,656.643 883.146,657.993C883.498,651.561 883.414,645.234 882.634,639.073C880.532,639.19 878.857,644.918 877.502,654.864ZM273.673,571.255C259.882,603.446 255.358,626.064 249.179,649.312C237.888,691.793 257.19,711.827 277.602,719.136C318.519,716.331 339.581,701.717 347.487,674.045C357.944,637.445 365.787,611.059 377.618,583.519C345.436,577.685 310.732,573.636 273.673,571.255ZM275.339,574.21C309.151,577.146 340.484,581.09 370.135,585.717C359.132,614.256 351.129,643.948 344.355,674.113C338.624,699.634 310.05,718.204 278.92,714.347C246.996,698.027 247.266,683.344 254.873,651.402C259.609,631.516 267.014,606.018 275.339,574.21ZM430.68,372.518C430.323,379.704 428.852,386.142 426.026,391.519C444.609,396.761 479.207,396.942 511.887,394.682C509.673,387.693 509.165,380.574 509.871,373.361C478.018,374.301 444.485,374.195 430.68,372.518ZM905.145,752.147C907.032,753.86 908.093,756.193 907.949,759.609C907.81,762.913 905.278,764.515 903.811,765.969C904.528,761.28 904.985,756.637 905.145,752.147ZM887.25,772.255C871.154,783.777 868.408,772.829 868.408,749.841C868.408,736.229 871.539,726.444 878.41,726.444C883.975,726.444 887.054,728.019 889.929,732.784C897.526,745.374 892.394,768.573 887.25,772.255ZM878.942,731.413C885.721,742.765 886.441,756.858 881.399,773.477C893.38,764.388 894.311,738.591 878.942,731.413Z" style="fill:#2d3234;"/>
    <path d="M870.027,672.434C884.912,672.434 900.225,703.661 900.225,748.474C900.225,780.223 881.93,822.816 862.75,822.816C840.311,822.816 834.008,786.94 834.008,746.533C834.008,711.91 855.142,672.434 870.027,672.434ZM889.929,732.784C889.929,717.915 885.558,708.941 873.855,708.941C862.152,708.941 856.799,727.567 856.799,748.233C856.799,776.177 860.645,793.062 871.891,793.062C880.797,793.062 884.803,783.025 887.25,772.255C892.394,768.573 897.526,745.374 889.929,732.784Z" style="fill:#800020;"/>
</svg>
